<?xml version="1.0" encoding="utf-8"?>
<!-- Generator: Adobe Illustrator 21.0.0, SVG Export Plug-In . SVG Version: 6.00 Build 0)  -->
<svg version="1.1" id="Warstwa_1" xmlns="http://www.w3.org/2000/svg" xmlns:xlink="http://www.w3.org/1999/xlink" x="0px" y="0px"
	 viewBox="0 0 500 500" style="enable-background:new 0 0 500 500;" xml:space="preserve">
<style type="text/css">
	.st0{fill:#50A433;}
	.st1{fill:#FFFFFF;}
	.st2{fill:#E3AC49;}
	.st3{fill:#EA5B27;}
	.st4{fill:#366BB2;}
	.st5{fill:#9F1916;}
</style>
<g>
	<path class="st1" d="M198.2,249.1c0-6.4,1.1-11.9,3.4-16.3s5.1-8.1,8.7-11c3.5-2.8,7.5-4.9,11.8-6.2s8.6-1.9,12.9-1.9
		c2.4,0,4.5,0.1,6.3,0.2s3.5,0.3,5,0.7c2,0.5,3.1,1.9,3.1,3.9v15c0,1.3-0.5,2.3-1.5,3s-2.2,0.9-3.4,0.9h-5.3
		c-4.3,0-7.7,1.4-10.3,4.2c-2.6,2.8-3.9,6.6-3.9,11.4v61.7c0,1.7-0.5,3-1.6,3.7c-1.1,0.7-2.1,1.1-3,1.1h-19c-0.9,0-1.6-0.3-2.2-0.9
		c-0.6-0.6-0.9-1.5-0.9-2.6V249.1z"/>
	<path class="st1" d="M258.2,189.5c0-1.6,0.4-2.8,1.3-3.8c0.9-1,2.5-1.5,4.8-1.5h17.3c2,0,3.4,0.5,4.2,1.4c0.8,0.9,1.2,2.3,1.2,4.1
		v14c0,2-0.5,3.3-1.4,4c-1,0.7-2.3,1-4,1h-17.2c-1.9,0-3.4-0.3-4.5-1c-1.1-0.7-1.7-2-1.7-3.8V189.5z M258.2,218.3
		c0-0.9,0.3-1.7,1-2.3c0.7-0.6,1.5-0.9,2.4-0.9h19.2c1,0,1.9,0.3,2.7,0.9s1.2,1.4,1.2,2.2v97.6c0,1.1-0.4,1.9-1.1,2.5
		c-0.7,0.6-1.6,0.9-2.8,0.9h-19.2c-2.3,0-3.5-1.1-3.5-3.4V218.3z"/>
	<path class="st1" d="M344.7,244.9c-0.1-1.1-0.3-2.2-0.8-3.3c-0.5-1-1.1-2-1.9-2.8c-0.8-0.8-1.7-1.5-2.7-1.9c-1-0.5-2.2-0.7-3.4-0.7
		c-1.4,0-2.7,0.3-3.8,0.9c-1.1,0.6-2,1.3-2.7,2.3c-0.7,0.9-1.3,2-1.7,3.2c-0.4,1.2-0.7,2.4-0.7,3.6v69.5c0,0.9-0.3,1.8-1,2.6
		c-0.7,0.8-1.9,1.2-3.7,1.2h-18.4c-2.3,0-3.5-1.1-3.5-3.2v-133c0-1.9,1.5-3.4,3.4-3.4h19.8c2.2,0,3.3,1.1,3.3,3.4v35.7
		c2.4-1.5,5-2.6,7.6-3.5s5.5-1.3,8.3-1.3c4,0,7.8,0.7,11.2,2.2c3.5,1.5,6.5,3.6,9,6.3s4.5,6,6,9.9c1.4,3.9,2.2,8.2,2.2,12.9v70.5
		c0,1.1-0.3,2-0.9,2.6c-0.6,0.6-1.3,0.9-2.2,0.9h-20.6c-0.9,0-1.6-0.3-2.1-0.9c-0.6-0.6-0.8-1.4-0.8-2.6V244.9z"/>
	<path class="st1" d="M382.2,243.8c0-4.3,0.9-8.3,2.8-12c1.8-3.7,4.4-7,7.5-9.8c3.2-2.8,6.9-5,11.2-6.6s8.9-2.4,13.7-2.4
		c5,0,9.5,0.8,13.6,2.4s7.6,3.8,10.6,6.6c3,2.8,5.3,6,6.9,9.8c1.6,3.7,2.5,7.7,2.5,12V269c0,1.2-0.4,2.1-1.2,2.7
		c-0.8,0.7-1.7,1-2.9,1h-38v16.4c0,1.1,0.2,2.1,0.7,3.1c0.4,1,1.1,1.9,1.9,2.7c0.8,0.8,1.7,1.5,2.8,1.9s2.3,0.7,3.6,0.7
		s2.6-0.3,3.6-0.8c1.1-0.5,2-1.2,2.8-2c0.8-0.8,1.3-1.7,1.7-2.8c0.4-1,0.6-2.1,0.6-3.2v-2.8c0-0.6,0.2-1.1,0.6-1.6
		c0.4-0.5,1.1-0.7,2-0.7h19.1c0.8,0,1.4,0.2,1.9,0.6c0.4,0.4,0.7,1.1,0.7,2.1v2.9c0,4.3-0.8,8.3-2.4,12c-1.6,3.8-3.9,7-6.8,9.9
		c-2.9,2.8-6.4,5-10.5,6.6c-4.1,1.6-8.6,2.4-13.6,2.4c-4.9,0-9.5-0.8-13.8-2.4c-4.3-1.6-8.1-3.8-11.2-6.6c-3.2-2.8-5.7-6.1-7.5-9.9
		c-1.9-3.8-2.8-7.8-2.8-12V243.8z M409,255h17.8v-11.2c0-2.4-0.8-4.5-2.4-6.3c-1.6-1.8-3.7-2.7-6.4-2.7c-1.3,0-2.6,0.3-3.6,0.8
		s-2,1.2-2.8,2c-0.8,0.8-1.4,1.8-1.9,2.8c-0.4,1.1-0.7,2.2-0.7,3.3V255z"/>
	<g>
		<path class="st0" d="M82.3,256.3c0,4-3.2,7.2-7.2,7.2c-4,0-7.2-3.2-7.2-7.2c0-4,3.2-7.2,7.2-7.2C79,249.1,82.3,252.3,82.3,256.3z"
			/>
		<path class="st0" d="M101.1,256.3c0,4-3.2,7.2-7.2,7.2c-4,0-7.2-3.2-7.2-7.2c0-4,3.2-7.2,7.2-7.2
			C97.8,249.1,101.1,252.3,101.1,256.3z"/>
		<path class="st0" d="M119.9,256.3c0,4-3.2,7.2-7.2,7.2c-4,0-7.2-3.2-7.2-7.2c0-4,3.2-7.2,7.2-7.2
			C116.6,249.1,119.9,252.3,119.9,256.3z"/>
		<path class="st0" d="M119.9,275.1c0,4-3.2,7.2-7.2,7.2c-4,0-7.2-3.2-7.2-7.2c0-4,3.2-7.2,7.2-7.2
			C116.6,267.9,119.9,271.1,119.9,275.1z"/>
		<path class="st0" d="M119.9,237.5c0,4-3.2,7.2-7.2,7.2c-4,0-7.2-3.2-7.2-7.2c0-4,3.2-7.2,7.2-7.2
			C116.6,230.3,119.9,233.5,119.9,237.5z"/>
		<path class="st0" d="M101.1,275.1c0,4-3.2,7.2-7.2,7.2c-4,0-7.2-3.2-7.2-7.2c0-4,3.2-7.2,7.2-7.2
			C97.8,267.9,101.1,271.1,101.1,275.1z"/>
		<path class="st0" d="M101.1,237.5c0,4-3.2,7.2-7.2,7.2c-4,0-7.2-3.2-7.2-7.2c0-4,3.2-7.2,7.2-7.2
			C97.8,230.3,101.1,233.5,101.1,237.5z"/>
		<path class="st0" d="M82.3,275.1c0,4-3.2,7.2-7.2,7.2c-4,0-7.2-3.2-7.2-7.2c0-4,3.2-7.2,7.2-7.2C79,267.9,82.3,271.1,82.3,275.1z"
			/>
		<path class="st0" d="M82.3,237.5c0,4-3.2,7.2-7.2,7.2c-4,0-7.2-3.2-7.2-7.2c0-4,3.2-7.2,7.2-7.2C79,230.3,82.3,233.5,82.3,237.5z"
			/>
		<path class="st0" d="M63.5,256.3c0,4-3.2,7.2-7.2,7.2c-4,0-7.2-3.2-7.2-7.2c0-4,3.2-7.2,7.2-7.2C60.2,249.1,63.5,252.3,63.5,256.3
			z"/>
		<path class="st0" d="M63.5,275.1c0,4-3.2,7.2-7.2,7.2c-4,0-7.2-3.2-7.2-7.2c0-4,3.2-7.2,7.2-7.2C60.2,267.9,63.5,271.1,63.5,275.1
			z"/>
		<path class="st0" d="M63.5,237.5c0,4-3.2,7.2-7.2,7.2c-4,0-7.2-3.2-7.2-7.2c0-4,3.2-7.2,7.2-7.2C60.2,230.3,63.5,233.5,63.5,237.5
			z"/>
		<circle class="st0" cx="112.7" cy="293" r="7.2"/>
		<circle class="st0" cx="112.7" cy="218.7" r="7.2"/>
		<path class="st0" d="M138.7,256.3c0,4-3.2,7.2-7.2,7.2c-4,0-7.2-3.2-7.2-7.2c0-4,3.2-7.2,7.2-7.2
			C135.5,249.1,138.7,252.3,138.7,256.3z"/>
		<path class="st0" d="M138.7,275.1c0,4-3.2,7.2-7.2,7.2c-4,0-7.2-3.2-7.2-7.2c0-4,3.2-7.2,7.2-7.2
			C135.5,267.9,138.7,271.1,138.7,275.1z"/>
		<path class="st0" d="M138.7,237.5c0,4-3.2,7.2-7.2,7.2c-4,0-7.2-3.2-7.2-7.2c0-4,3.2-7.2,7.2-7.2
			C135.5,230.3,138.7,233.5,138.7,237.5z"/>
		<path class="st0" d="M157.5,256.3c0,4-3.2,7.2-7.2,7.2c-4,0-7.2-3.2-7.2-7.2c0-4,3.2-7.2,7.2-7.2
			C154.3,249.1,157.5,252.3,157.5,256.3z"/>
		<path class="st0" d="M176.3,256.3c0,4-3.2,7.2-7.2,7.2c-4,0-7.2-3.2-7.2-7.2c0-4,3.2-7.2,7.2-7.2
			C173.1,249.1,176.3,252.3,176.3,256.3z"/>
		<circle class="st0" cx="112.7" cy="311.8" r="7.2"/>
		<circle class="st0" cx="131.5" cy="293.9" r="7.2"/>
		<path class="st0" d="M157.5,275.1c0,4-3.2,7.2-7.2,7.2c-4,0-7.2-3.2-7.2-7.2c0-4,3.2-7.2,7.2-7.2
			C154.3,267.9,157.5,271.1,157.5,275.1z"/>
		<circle class="st0" cx="112.7" cy="199.9" r="7.2"/>
		<circle class="st0" cx="131.5" cy="218.7" r="7.2"/>
		<path class="st0" d="M157.5,237.5c0,4-3.2,7.2-7.2,7.2c-4,0-7.2-3.2-7.2-7.2c0-4,3.2-7.2,7.2-7.2
			C154.3,230.3,157.5,233.5,157.5,237.5z"/>
	</g>
</g>
</svg>
