<?xml version="1.0" encoding="utf-8"?>
<!-- Generator: Adobe Illustrator 21.0.0, SVG Export Plug-In . SVG Version: 6.00 Build 0)  -->
<svg version="1.1" id="Warstwa_1" xmlns="http://www.w3.org/2000/svg" xmlns:xlink="http://www.w3.org/1999/xlink" x="0px" y="0px"
	 viewBox="0 0 90 90" style="enable-background:new 0 0 90 90;" xml:space="preserve">
<style type="text/css">
	.st0{fill-rule:evenodd;clip-rule:evenodd;fill:#A8DEE6;}
	.st1{fill-rule:evenodd;clip-rule:evenodd;fill:#435D76;}
	.st2{fill-rule:evenodd;clip-rule:evenodd;fill:#25292C;}
	.st3{fill-rule:evenodd;clip-rule:evenodd;fill:#F39C12;}
	.st4{fill-rule:evenodd;clip-rule:evenodd;fill:#EFF9FB;}
	.st5{fill-rule:evenodd;clip-rule:evenodd;fill:#F2C196;}
	.st6{fill-rule:evenodd;clip-rule:evenodd;fill:#F0FAFC;}
	.st7{fill-rule:evenodd;clip-rule:evenodd;fill:#85972D;}
	.st8{fill-rule:evenodd;clip-rule:evenodd;fill:#FEFEFE;}
	.st9{fill-rule:evenodd;clip-rule:evenodd;fill:#592D0D;}
	.st10{fill-rule:evenodd;clip-rule:evenodd;fill:#7E3E14;}
	.st11{fill-rule:evenodd;clip-rule:evenodd;fill:#CF850E;}
	.st12{fill-rule:evenodd;clip-rule:evenodd;fill:#F7B518;}
</style>
<g>
	<path class="st0" d="M42.3,35.5c1.2-0.6,2.7-0.1,3.4,1.1c0.6,1.2-1.6,7-2.9,7.6l-12.2,3l-3.4-1.1l1.1-3.4
		C32.8,40.3,37.4,37.8,42.3,35.5z"/>
	<path class="st0" d="M58.4,39.7c-0.8-1-0.6-2.5,0.5-3.3c0.8-0.6,4.5-1.6,5.8-0.2c3.8,4.2,6.4,8.9,7.9,14.2L70.7,52l-3.3-0.5
		L58.4,39.7z"/>
	<path class="st1" d="M42,61.3h21.5l-0.7,4.5c-8.1,2-13.8,1.8-20.2,0L42,61.3z"/>
	<path class="st1" d="M63.2,61.8c0.1-1.3-0.9-2.4-2.2-2.5c-1.3-0.1-4.8,3-4.9,4.3l1.6,13.5c-0.1,1.3,0.9,2.4,2.2,2.5
		c1.3,0.1,2.4-0.9,2.5-2.2L63.2,61.8z"/>
	<path class="st1" d="M42.4,61.8c-0.1-1.3,0.9-2.4,2.2-2.5c1.3-0.1,4.8,3,4.9,4.3l-1.6,13.5c0.1,1.3-0.9,2.4-2.2,2.5
		c-1.3,0.1-2.4-0.9-2.5-2.2L42.4,61.8z"/>
	<path class="st1" d="M49.5,81.4l-1.7-11.7c0-1.3-1.1-2.3-2.4-2.3c-1.3,0-2.3,1.1-2.3,2.4l0.4,12.3C45.3,82.9,48.3,82.6,49.5,81.4z"
		/>
	<path class="st2" d="M49.2,84.5c0.8-0.2,0.3-2.6,0-2.8c-1.1,0.2-1.8,0.7-4.8,0.1c-1.2-0.8-2.6-1-3.8-0.8c-0.7,0.1-1.4,0.4-1.9,0.8
		c-0.3,0.2-0.4,0.4-0.6,0.7c-0.3,0.4-0.2,1.2,0,1.7l0,0l0.2,0.3C41.8,84.5,45.5,84.5,49.2,84.5z"/>
	<path class="st1" d="M56.2,81.4l1.7-11.7c0-1.3,1.1-2.3,2.4-2.3c1.3,0,2.3,1.1,2.3,2.4l-0.4,12.3C60.4,82.9,57.4,82.6,56.2,81.4z"
		/>
	<path class="st2" d="M56.5,84.5c-0.8-0.2-0.3-2.6,0-2.8c1.1,0.2,1.8,0.7,4.8,0.1c1.9-1.3,4.1-1.1,5.8,0c0.9,0.5,1,1.6,0.7,2.4l0,0
		l-0.2,0.3C63.9,84.5,60.2,84.5,56.5,84.5z"/>
	<path class="st0" d="M64.6,42.6C64.2,49,64,55.5,64.6,61.9c-8.2,1.2-16,1.2-23.6,0c0.6-6.1,0.7-12.1-0.1-18.3l1.3-6.1
		C42,37.3,64.6,25.6,64.6,42.6z"/>
	<path class="st3" d="M46.4,34.1l4.8,11h-0.1v18c-3.4-0.1-6.8-0.5-10.2-1.2c0.7-6,0.5-11.2-0.1-17.1c1.7-1,1.2-5,0.1-8.6
		c0,0,0.1,0,0.1,0L46.4,34.1L46.4,34.1z M54.3,45.1l5.4-11.6l4.6,2.5l0.3,0.2c-1.1,3.9-1.4,10.5-0.1,11.3c-0.5,6-0.5,8.5,0.1,14.3
		c-3.4,0.8-6.8,1.2-10.3,1.3V45.1z"/>
	<g>
		<polygon class="st4" points="53,36.1 47.7,41 45.9,33.8 		"/>
		<polygon class="st4" points="53,36.1 58.3,41 60.1,33.8 		"/>
	</g>
	<path class="st5" d="M20.3,39.3c-1.6-1-2.4-2.4-3-4c-0.1-0.6,0.6-1.2,1-1c0.1-0.9,1.1-1.2,1.4-1.1c0.1-0.8,1-1,1.4-0.9l-0.6-3.2
		c0.1-0.9,1.4-1,1.7-0.6l1,5c0.8,0,1.4,0.6,1.2,1.8l-0.4,2.5l-2.3,2.7L20.3,39.3z"/>
	<polygon class="st6" points="24.2,37.3 21,41 22,41.8 25.1,38.3 	"/>
	<path class="st0" d="M31,43.2c1,0.9,1.1,2.5,0.2,3.5c-0.9,1-2.5,1.1-3.5,0.2l-6.2-5.6l3.3-3.7L31,43.2z"/>
	<polygon class="st7" points="55.3,46.7 55.9,46.1 66.8,43.5 70.6,57.5 59.1,60.7 	"/>
	<path class="st5" d="M61.4,54.5c-0.8-0.2-1.8-0.4-2.3-0.4c-0.7,0.1-0.8,0.8-0.3,1c0.4,0.2,1.3,0,2,0.4c0.1,0.1,0.1,0.1,0,0.1
		C59.3,56.1,58,56,56.4,56c-0.4,0.2-0.5,1-0.2,1.4c1.3,0.1,2.6,0,3.9-0.2c0.1,0,0.1,0,0.1,0.1c0,0.1,0,0.1-0.1,0.1
		c-1.3,0.1-2.6,0.2-3.8,0.2c-0.1,0.4,0.1,1,0.5,1.3c1.2,0.1,2.4,0,3.5-0.3c0.1,0,0.1,0,0.1,0.1c0,0.1,0,0.1-0.1,0.1
		c-1.1,0.2-2.3,0.3-3.4,0.3c0,0.5,0.2,0.9,0.7,1.2c0.9,0.1,1.8,0,2.7-0.3c0.1,0,0.1,0,0.1,0.1c0,0.1,0,0.1-0.1,0.1
		c-0.8,0.2-1.7,0.3-2.6,0.3c0.1,0.3,0.7,0.7,1.3,0.8c0.8,0,1.1-0.1,1.9-0.5c0.6-0.3,2.8-1.5,3-2.3c0.1-0.2,0.8-0.8,0.8-1
		c0.3-1.2-0.6-1.9-1.5-2.5C63.1,54.9,62.2,54.7,61.4,54.5z"/>
	<polygon class="st6" points="62.1,54.5 64.9,58.1 65.8,57.4 63.2,53.9 	"/>
	<path class="st0" d="M68.9,49.4c1-0.8,2.5-0.5,3.3,0.5c0.8,1,0.5,2.5-0.5,3.3l-6.4,4.7l-2.8-3.8L68.9,49.4z"/>
	<rect x="59.6" y="46.8" transform="matrix(0.9648 -0.2632 0.2632 0.9648 -10.279 18.1221)" class="st8" width="5.9" height="1.2"/>
	<g>
		<path class="st9" d="M62.2,28.4c0.3-4,1.7-8.1,0.7-11.8c-2.3-5.3-12.9-7.7-18-6.8c-3.2,5.4-1.9,12-1.3,18.2L62.2,28.4z"/>
		<path class="st5" d="M47.7,17.6c-1.7-0.3-3.3,1.4-3.6,3.1c-0.3,1.6-0.5,3.2-0.5,4.7c0,0-0.1,0-0.1,0c-0.6,0-1.2,0.7-1.2,1.6
			c0,0.9,0.5,1.6,1.2,1.6c0.1,0,0.1,0,0.2,0c0.1,1.2,0.2,1.4,0.5,2.5c0.4,1.7,1.6,3.8,4.1,4.4c1.2,0.3,2.9,0.4,4.6,0.5
			c1.7,0,3.4-0.2,4.6-0.5c2.4-0.6,3.7-2.7,4.1-4.4c0.3-1.1,0.4-1.3,0.5-2.5c0.1,0,0.1,0,0.2,0c0.6,0,1.2-0.7,1.2-1.6
			c0-0.9-0.5-1.6-1.2-1.6c0,0-0.1,0-0.1,0c-0.1-1.6-0.3-3.2-0.5-4.7c-0.3-1.7-1.9-3.4-3.6-3.1C54.3,18.3,51.4,18.3,47.7,17.6z"/>
		<g>
			<path class="st10" d="M60.1,13.4c-4.2-3-11.3-4.3-15.2-3.6c0,2.3,4.5,4.1,10.2,4.1C56.9,13.9,58.6,13.7,60.1,13.4z"/>
			<path class="st3" d="M52.9,6.3c7.1-0.1,11,5.4,10.5,11.3c-4.1,3-17,3.2-20.9,0C42.1,11.9,45.8,6.4,52.9,6.3z"/>
			<path class="st11" d="M51.6,6.1c0.8-0.1,1.7-0.1,2.6,0c0.2,0,0.4,0.3,0.5,0.6l0.5,9.6c0,0.3-0.7,0.6-1,0.6h-2.6
				c-0.3,0-1-0.3-1-0.6l0.5-9.6C51.2,6.4,51.4,6.2,51.6,6.1z"/>
			<path class="st12" d="M51.8,5.6c0.7-0.1,1.4-0.1,2.2,0c0.2,0,0.4,0.3,0.4,0.6v10.2c0,0.3-0.2,0.6-0.4,0.6h-2.2
				c-0.2,0-0.4-0.3-0.4-0.6V6.2C51.5,5.9,51.6,5.6,51.8,5.6z"/>
			<path class="st11" d="M63.4,17.6c-4.2,3-17,3.2-20.9,0C47.8,15.2,58.1,15.3,63.4,17.6z"/>
			<path class="st12" d="M63.1,17.8c-3.4,2.7-16.2,2.9-20.3,0C48,16.3,57.4,16.3,63.1,17.8z"/>
			<path class="st12" d="M42.5,17.6c-0.2,0.4-0.6,0.7-1,1.1l0.2,0.1c0.9,0.2,2-0.3,3.4,0.1L42.5,17.6z"/>
			<path class="st12" d="M63.4,17.6c0.2,0.4,0.6,0.7,1,1.1l-0.2,0.1c-0.9,0.2-2-0.3-3.4,0.1L63.4,17.6z"/>
		</g>
	</g>
	<path class="st11" d="M42.9,51.5h6.2c0.2,0,0.4,0.2,0.4,0.4v8.2c0,0.2-0.2,0.4-0.4,0.4c-2.2-0.1-4.2-0.3-6.2-0.8
		c-0.2-0.1-0.4-0.2-0.4-0.4v-7.4C42.4,51.7,42.6,51.5,42.9,51.5z"/>
</g>
</svg>
