<?xml version="1.0" encoding="utf-8"?>
<!-- Generator: Adobe Illustrator 21.0.0, SVG Export Plug-In . SVG Version: 6.00 Build 0)  -->
<svg version="1.1" xmlns="http://www.w3.org/2000/svg" xmlns:xlink="http://www.w3.org/1999/xlink" x="0px" y="0px"
	 viewBox="0 0 50 50" style="enable-background:new 0 0 50 50;" xml:space="preserve">
<path d="M36.9,16.3c-0.9,0.5-1.9,0.9-3,1.1c-0.9-0.9-2.1-1.5-3.4-1.5c-2.5,0-4.6,2-4.7,4.5c0,0.4,0,0.7,0.1,1
				c-3.7-0.2-7.2-1.9-9.6-4.8c-0.4,0.7-0.6,1.5-0.6,2.3c0,1.5,0.8,3,2.1,3.8c-0.7,0-1.5-0.2-2.1-0.6c0,0,0,0,0,0.1
				c0,2.2,1.6,4.1,3.7,4.5c-0.7,0.2-1.4,0.2-2.1,0.1c0.6,1.9,2.4,3.2,4.4,3.2c-1.6,1.3-3.7,2-5.8,2c-0.4,0-0.8,0-1.1-0.1
				c2.1,1.4,4.6,2.1,7.1,2.1c7.2,0.1,13.2-5.6,13.3-12.8c0-0.1,0-0.2,0-0.2c0-0.2,0-0.4,0-0.6c0.9-0.7,1.7-1.5,2.3-2.4
				c-0.9,0.4-1.8,0.6-2.7,0.7C35.8,18.2,36.5,17.3,36.9,16.3z"/>
			<path d="M25,0C11.2,0,0,11.2,0,25s11.2,25,25,25s25-11.2,25-25S38.8,0,25,0z M25,47.7C12.4,47.7,2.3,37.6,2.3,25S12.4,2.3,25,2.3
				S47.7,12.4,47.7,25S37.6,47.7,25,47.7z"/>
</svg>
