<?xml version="1.0" encoding="utf-8"?>
<!-- Generator: Adobe Illustrator 21.0.0, SVG Export Plug-In . SVG Version: 6.00 Build 0)  -->
<svg version="1.1" xmlns="http://www.w3.org/2000/svg" xmlns:xlink="http://www.w3.org/1999/xlink" x="0px" y="0px"
	 viewBox="0 0 50 50" style="enable-background:new 0 0 50 50;" xml:space="preserve">
<circle cx="18.2" cy="18.2" r="2.3"/>
			<rect x="15.9" y="21.6" width="4.5" height="12.5"/>
			<path d="M25,0C11.2,0,0,11.2,0,25s11.2,25,25,25s25-11.2,25-25S38.8,0,25,0z M25,47.7C12.4,47.7,2.3,37.6,2.3,25S12.4,2.3,25,2.3
				S47.7,12.4,47.7,25S37.6,47.7,25,47.7z"/>
			<path d="M31.1,21.6c-3.4,0-3.8,2-3.8,2v-2h-4.5v12.5h4.5v-6.8c0,0,0-2.3,1.9-2.3c1.1,0,1.5,1,1.5,2.3v6.8h4.5v-6.8
				C35.2,23.7,33.7,21.6,31.1,21.6z"/>
</svg>
