			<!-- 
			#icon-social-media-sample-002-facebook
			#icon-social-media-sample-002-instagram
			#icon-social-media-sample-002-linkedin
			#icon-social-media-sample-002-twitter
			#icon-social-media-sample-002-youtube
			#icon-social-media-sample-002-top
			#icon-social-media-sample-002-all
			-->

<svg aria-hidden="true" style="position: absolute; width: 0; height: 0; overflow: hidden;" version="1.1" xmlns="http://www.w3.org/2000/svg" xmlns:xlink="http://www.w3.org/1999/xlink" x="0px" y="0px">
<defs>
<symbol id="icon-social-media-sample-002-facebook" viewBox="0 0 50 50" >
<path d="M22.7,19.3v2.3h-2.3V25h2.3v10.2h4.5V25h3l0.4-3.4h-3.4v-2c0-0.9,0.1-1.4,1.5-1.4h1.9v-3.4h-3
				C24,14.8,22.7,16.5,22.7,19.3z"/>
			<path d="M25,0C11.2,0,0,11.2,0,25s11.2,25,25,25s25-11.2,25-25S38.8,0,25,0z M25,47.7C12.4,47.7,2.3,37.6,2.3,25S12.4,2.3,25,2.3
				S47.7,12.4,47.7,25S37.6,47.7,25,47.7z"/>
</symbol>
<symbol id="icon-social-media-sample-002-instagram" viewBox="0 0 50 50" >
<path d="M25,0C11.2,0,0,11.2,0,25s11.2,25,25,25s25-11.2,25-25S38.8,0,25,0z M25,47.7C12.4,47.7,2.3,37.6,2.3,25S12.4,2.3,25,2.3
				S47.7,12.4,47.7,25S37.6,47.7,25,47.7z"/>
			<path d="M31.8,13.6H18.2c-2.5,0-4.5,2-4.5,4.5v13.6c0,2.5,2,4.5,4.5,4.5h13.6c2.5,0,4.5-2,4.5-4.5V18.2
				C36.4,15.7,34.3,13.6,31.8,13.6z M29.5,17H33v3.4h-3.4V17z M25,20.5c2.5,0,4.5,2,4.5,4.5s-2,4.5-4.5,4.5s-4.5-2-4.5-4.5
				S22.5,20.5,25,20.5z M34.1,31.8c0,1.3-1,2.3-2.3,2.3H18.2c-1.3,0-2.3-1-2.3-2.3v-8h2.4c-0.7,3.7,1.8,7.3,5.5,7.9s7.3-1.8,7.9-5.5
				c0.1-0.4,0.1-0.9,0.1-1.3c0-0.4,0-0.8-0.1-1.1h2.4L34.1,31.8L34.1,31.8z"/>
</symbol>
<symbol id="icon-social-media-sample-002-linkedin" viewBox="0 0 50 50" >
<circle cx="18.2" cy="18.2" r="2.3"/>
			<rect x="15.9" y="21.6" width="4.5" height="12.5"/>
			<path d="M25,0C11.2,0,0,11.2,0,25s11.2,25,25,25s25-11.2,25-25S38.8,0,25,0z M25,47.7C12.4,47.7,2.3,37.6,2.3,25S12.4,2.3,25,2.3
				S47.7,12.4,47.7,25S37.6,47.7,25,47.7z"/>
			<path d="M31.1,21.6c-3.4,0-3.8,2-3.8,2v-2h-4.5v12.5h4.5v-6.8c0,0,0-2.3,1.9-2.3c1.1,0,1.5,1,1.5,2.3v6.8h4.5v-6.8
				C35.2,23.7,33.7,21.6,31.1,21.6z"/>
</symbol>
<symbol id="icon-social-media-sample-002-twitter" viewBox="0 0 50 50" >
<path d="M36.9,16.3c-0.9,0.5-1.9,0.9-3,1.1c-0.9-0.9-2.1-1.5-3.4-1.5c-2.5,0-4.6,2-4.7,4.5c0,0.4,0,0.7,0.1,1
				c-3.7-0.2-7.2-1.9-9.6-4.8c-0.4,0.7-0.6,1.5-0.6,2.3c0,1.5,0.8,3,2.1,3.8c-0.7,0-1.5-0.2-2.1-0.6c0,0,0,0,0,0.1
				c0,2.2,1.6,4.1,3.7,4.5c-0.7,0.2-1.4,0.2-2.1,0.1c0.6,1.9,2.4,3.2,4.4,3.2c-1.6,1.3-3.7,2-5.8,2c-0.4,0-0.8,0-1.1-0.1
				c2.1,1.4,4.6,2.1,7.1,2.1c7.2,0.1,13.2-5.6,13.3-12.8c0-0.1,0-0.2,0-0.2c0-0.2,0-0.4,0-0.6c0.9-0.7,1.7-1.5,2.3-2.4
				c-0.9,0.4-1.8,0.6-2.7,0.7C35.8,18.2,36.5,17.3,36.9,16.3z"/>
			<path d="M25,0C11.2,0,0,11.2,0,25s11.2,25,25,25s25-11.2,25-25S38.8,0,25,0z M25,47.7C12.4,47.7,2.3,37.6,2.3,25S12.4,2.3,25,2.3
				S47.7,12.4,47.7,25S37.6,47.7,25,47.7z"/>
</symbol>
<symbol id="icon-social-media-sample-002-youtube" viewBox="0 0 50 50" >
<path d="M24,20.4h0.5c1,0,1.9-0.8,1.9-1.9v-3c0-1-0.8-1.8-1.9-1.8H24c-1,0-1.9,0.8-1.9,1.9v3C22.2,19.6,23,20.4,24,20.4z
				 M23.5,15.4c0-0.4,0.3-0.7,0.7-0.7c0.4,0,0.7,0.3,0.7,0.7v3.3c0,0.4-0.3,0.7-0.7,0.7c-0.4,0-0.7-0.3-0.7-0.7V15.4z"/>
			<polygon points="18.5,20.3 20.1,20.3 20.1,16.6 22,11.5 20.5,11.5 19.3,14.9 18.2,11.5 16.5,11.5 18.5,16.6 			"/>
			<path d="M28.7,20.4c0.7-0.1,1.3-0.4,1.8-0.8v0.7h1.4v-6.6h-1.4v5.1c0,0-0.5,0.5-0.9,0.5c-0.4,0-0.5-0.4-0.5-0.4v-5.3h-1.4v5.8
				C27.7,20,28.2,20.4,28.7,20.4z"/>
			<path d="M27.8,28c-0.3,0-0.5,0.1-0.7,0.4V33c0.2,0.2,0.4,0.3,0.7,0.3c0.7,0,0.7-0.8,0.7-0.8v-3.8C28.5,28.8,28.3,28,27.8,28z"/>
			<path d="M25,0C11.2,0,0,11.2,0,25s11.2,25,25,25s25-11.2,25-25S38.8,0,25,0z M25,47.7C12.4,47.7,2.3,37.6,2.3,25S12.4,2.3,25,2.3
				S47.7,12.4,47.7,25S37.6,47.7,25,47.7z"/>
			<path d="M33.2,28c-0.7,0-0.7,0.8-0.7,0.8v1h1.4v-1C33.9,28.8,33.9,28,33.2,28z"/>
			<path d="M33.7,21.8C33.7,21.8,33.6,21.8,33.7,21.8L33.7,21.8c-0.1,0-4.4-0.2-8.7-0.2s-8.6,0.2-8.6,0.2c-1.9-0.1-3.5,1.4-3.5,3.3
				c0,0,0,0.1,0,0.1c-0.2,1.4-0.3,2.9-0.4,4.3c0,1.5,0.1,2.9,0.4,4.4c0,1.9,1.5,3.4,3.4,3.4c0,0,0.1,0,0.1,0c0,0,4.2,0.2,8.6,0.2
				s8.6-0.2,8.6-0.2c1.9,0.1,3.5-1.4,3.5-3.3c0,0,0-0.1,0-0.1c0.2-1.4,0.3-2.9,0.4-4.4c0-1.5-0.1-2.9-0.4-4.4
				C37.1,23.3,35.6,21.8,33.7,21.8z M19.9,25.6h-1.7v8.8h-1.7v-8.8h-1.7v-1.5h5.2L19.9,25.6z M24.4,34.5h-1.4v-0.7
				c-0.5,0.5-1.1,0.7-1.8,0.8c-0.5,0-1-0.4-1.1-0.9v-6.9h1.5v6.5c0,0,0,0.3,0.5,0.3S23,33,23,33v-6.3h1.4L24.4,34.5z M28.6,34.6
				c-0.6,0-1.2-0.3-1.5-0.8v0.6h-1.5V24.2H27v3.3c0.4-0.4,0.9-0.7,1.5-0.8c0.9,0,1.3,0.8,1.3,1.8l0,4.2
				C29.9,32.8,29.9,34.6,28.6,34.6z M35.4,30.9h-2.9v1.7c0,0,0,0.8,0.7,0.8s0.7-0.8,0.7-0.8v-0.8h1.5V33c-0.2,1-1.1,1.7-2.1,1.6
				c-1,0.1-2-0.6-2.3-1.6v-4.4c0-1.1,0.9-2,2-1.9c0.1,0,0.2,0,0.2,0c1-0.1,2,0.6,2.1,1.6c0,0.1,0,0.2,0,0.3L35.4,30.9L35.4,30.9z"/>
</symbol>
<symbol id="icon-social-media-sample-002-top" viewBox="0 0 50 50" >
<path d="M25,0C11.2,0,0,11.2,0,25s11.2,25,25,25s25-11.2,25-25S38.8,0,25,0z M25,47.7C12.4,47.7,2.3,37.6,2.3,25S12.4,2.3,25,2.3
	S47.7,12.4,47.7,25S37.6,47.7,25,47.7z"/>
<path d="M43,29.9c0,0.4-0.1,0.7-0.4,1c-0.3,0.3-0.6,0.4-1,0.4c-0.3,0-0.7-0.1-1-0.4L25,16.1L9.3,30.9c-0.3,0.3-0.6,0.4-1,0.4
				c-0.4,0-0.7-0.2-1-0.4v0c-0.3-0.3-0.4-0.6-0.4-1s0.1-0.7,0.4-1L24,13.2c0.5-0.5,1.4-0.5,1.9,0l16.6,15.7
				C42.9,29.2,43,29.6,43,29.9z"/>
</symbol>
<symbol id="icon-social-media-sample-002-all" viewBox="0 0 50 50" >
<path d="M25,0C11.2,0,0,11.2,0,25s11.2,25,25,25s25-11.2,25-25S38.8,0,25,0z M25,47.7C12.4,47.7,2.3,37.6,2.3,25S12.4,2.3,25,2.3
	S47.7,12.4,47.7,25S37.6,47.7,25,47.7z"/>
</symbol>
</defs>
</svg>









