<?xml version="1.0" encoding="utf-8"?>
<!-- Generator: Adobe Illustrator 21.0.0, SVG Export Plug-In . SVG Version: 6.00 Build 0)  -->
<svg version="1.1" id="Warstwa_1" xmlns="http://www.w3.org/2000/svg" xmlns:xlink="http://www.w3.org/1999/xlink" x="0px" y="0px"
	 viewBox="0 0 50 50" style="enable-background:new 0 0 50 50;" xml:space="preserve">
<style type="text/css">
	.st0{fill:#FF8031;}
</style>
<path class="st0" d="M25,0C11.2,0,0,11.2,0,25s11.2,25,25,25s25-11.2,25-25S38.8,0,25,0z M25,47.7C12.4,47.7,2.3,37.6,2.3,25
	S12.4,2.3,25,2.3S47.7,12.4,47.7,25S37.6,47.7,25,47.7z"/>
<path class="st0" d="M43,29.9c0,0.4-0.1,0.7-0.4,1c-0.3,0.3-0.6,0.4-1,0.4c-0.3,0-0.7-0.1-1-0.4L25,16.1L9.3,30.9
	c-0.3,0.3-0.6,0.4-1,0.4c-0.4,0-0.7-0.2-1-0.4l0,0c-0.3-0.3-0.4-0.6-0.4-1s0.1-0.7,0.4-1L24,13.2c0.5-0.5,1.4-0.5,1.9,0l16.6,15.7
	C42.9,29.2,43,29.6,43,29.9z"/>
</svg>
