<?xml version="1.0" encoding="utf-8"?>
<!-- Generator: Adobe Illustrator 21.0.0, SVG Export Plug-In . SVG Version: 6.00 Build 0)  -->
<svg version="1.1" id="Warstwa_1" xmlns="http://www.w3.org/2000/svg" xmlns:xlink="http://www.w3.org/1999/xlink" x="0px" y="0px"
	 viewBox="0 0 200 200" style="enable-background:new 0 0 200 200;" xml:space="preserve">
<style type="text/css">
	.st0{fill:#8098AB;}
	.st1{fill:#FFC431;}
	.st2{fill:#C47220;}
	.st3{fill:#FFCEB6;}
	.st4{fill:#FFBFA1;}
	.st5{fill:#02C26A;}
	.st6{fill:#D1E4FF;}
	.st7{fill:#B66514;}
	.st8{fill:#E0EDFF;}
	.st9{fill:#548AFF;}
	.st10{fill:#91C0FF;}
	.st11{fill:#00B55B;}
	.st12{fill:#4976F2;}
	.st13{fill:#FFB401;}
</style>
<g>
	<path class="st0" d="M113.8,179.3l-20.7-75.9l-31,75.9l-17.2,3.4l21.8-87.1c1.5-6.2,4.7-11.8,9.3-16.4h31l24.1,96.6L113.8,179.3z"
		/>
	<path class="st1" d="M124.1,131c17.1,0,31,13.9,31,31c0,17.1-13.9,31-31,31c-17.1,0-31-13.9-31-31C93.1,144.9,107,131,124.1,131"/>
	<path class="st2" d="M175,155.2c4.7,0,9-2.7,11.2-6.9l-2.6-2.6c-6.8-6.8-8.9-17-5.3-25.9c0.7-1.7,1-3.5,1-5.3
		c0-6.5-4.4-12.2-10.7-13.7c-1.9-0.5-3.9,0.1-5.3,1.5l-1.2,1.2l-13.8,10.3v27.6c0,7.6,6.2,13.8,13.8,13.8H175z"/>
	<path class="st3" d="M165.5,69l-9.6,8.7l-9.6-4.1l-12.4-5.3c-4-1.7-6.9-5.2-7.9-9.3l-1.4-5.6c0.1,0.6,0.2,1.2,0.2,1.8
		c0,4.7-3,8.9-7.5,10.3l-10.3,13.8h-31V57.5l9.8-16.3c2.5-4.2,7-6.7,11.8-6.7h25.8c4.8,0,9.3,2.5,11.8,6.7l6.3,10.5l16.5,11.8
		L165.5,69z"/>
	<path class="st4" d="M157.8,63.5c-3.5,1.4-6.5,3.6-8.8,6.6l-2.7,3.5l9.6,4.1l9.6-8.7L157.8,63.5z"/>
	<path class="st5" d="M141.4,51.7l-12.7,12.7c-1.3-1.6-2.3-3.5-2.8-5.5l-1.4-5.6c0.1,0.6,0.2,1.2,0.2,1.8c0,4.7-3,8.9-7.5,10.3
		l-10.3,13.8h-31V57.5l9.8-16.3c2.5-4.2,7-6.7,11.8-6.7h25.8c4.8,0,9.3,2.5,11.8,6.7L141.4,51.7z"/>
	<polygon class="st6" points="62.1,179.3 72.4,186.2 72.4,193.1 44.8,193.1 44.8,182.8 	"/>
	<path class="st3" d="M117.2,24.1v15.5c0,2.9-2.3,5.2-5.2,5.2c-2.9,0-5.2-2.3-5.2-5.2V24.1H117.2z"/>
	<path class="st4" d="M117.2,24.1v13.8c-3.8,0-6.9-3.1-6.9-6.9v0v-6.9H117.2z"/>
	<path class="st7" d="M106.9,6.9c5.7,0,10.3,4.6,10.3,10.3c0,5.7-4.6,10.3-10.3,10.3c-5.7,0-10.3-4.6-10.3-10.3
		C96.6,11.5,101.2,6.9,106.9,6.9"/>
	<path class="st2" d="M106.9,24.1v-6.9c0-3.8,3.1-6.9,6.9-6.9c3.8,0,6.9,3.1,6.9,6.9v6.9H106.9z"/>
	<path class="st3" d="M200,79.3h-6.9l2.4,4.9c0.8,1.6,0.1,3.5-1.4,4.2c-1,0.5-2.2,0.4-3.2-0.2l-8.2-5.5h-17.2l-13.8,20.7v20.7
		l8.1,18.6l16,36.6l11.4,5.7c2.1,1.1,3,3.6,1.9,5.7c-0.7,1.4-2.2,2.4-3.8,2.4H169l-22.4-42.4l-8.6-16.2c-4.1,2.1-9.1,1.3-12.3-2
		l-1.4-1.4l-10.3,3.4l-6.9-27.6l27.6-6.9l11.8-15.1l8.2-10.6c2.6-3.4,6.6-5.3,10.9-5.3h27.7c3.8,0,6.9,3.1,6.9,6.9v0V79.3z"/>
	<polygon class="st8" points="17.2,172.4 6.9,193.1 0,193.1 0,162.1 4.2,159.4 	"/>
	<path class="st9" d="M27.6,179.3l67.9-29.5c7.4-3.2,13.8-8.5,18.3-15.3l-6.9-27.6l-1.2-0.3c-8.1-2-16.6-0.7-23.7,3.8l-77.8,49
		l13,13l2.2-1.2L27.6,179.3z"/>
	<path class="st10" d="M159.8,142.7l-13.3,8l-8.6-16.2c-4.1,2.1-9.1,1.3-12.3-2l-1.4-1.4l-10.3,3.4l-6.9-27.6l27.6-6.9l11.8-15.1
		l12.4,8.2l-6.9,10.3v20.7L159.8,142.7z"/>
	<path class="st3" d="M110.3,17.2c2.2,2.2,5.2,3.4,8.3,3.4h2v6.9c0,3.8-3.1,6.9-6.9,6.9c-3.8,0-6.9-3.1-6.9-6.9v-6.9L110.3,17.2z"/>
	<path class="st3" d="M92.6,65.1L89.7,69l6.9,27.6l4.5,2.3c1.4,0.7,2.4,2.2,2.4,3.8c0,2.4-1.9,4.3-4.3,4.3h-2.6l3.4,6.9l-4.3,1.4
		c-3.4,1.1-7.1-0.5-8.5-3.8l-15.4-36c-1.7-4.1-1.4-8.7,0.8-12.5l5.3-8.8L92.6,65.1z"/>
	<path class="st11" d="M91.9,60.3l3.3-4.4c1.1-1.5,3.3-1.8,4.8-0.7c1.5,1.1,1.8,3.3,0.7,4.8l-3.3,4.4c-1.1,1.5-3.3,1.8-4.8,0.7
		C91,64,90.7,61.8,91.9,60.3"/>
	<path class="st3" d="M155.7,115.9l-9.2,3.1c-2.9,1-5.9-0.6-6.9-3.4c-1-2.9,0.6-5.9,3.4-6.9l9.1-3l0.4,1.3L155.7,115.9z"/>
	<polygon class="st6" points="27.6,179.3 19.5,171.2 17.2,172.4 6.9,193.1 17.2,193.1 	"/>
	<path class="st12" d="M18.6,167.7l69.8-38.1c1.7-0.9,3.8-0.3,4.7,1.4c0.9,1.7,0.3,3.8-1.4,4.7l-69.8,38.1c-1.7,0.9-3.8,0.3-4.7-1.4
		C16.4,170.8,17,168.7,18.6,167.7"/>
	<path class="st4" d="M155.7,115.9l-9.2,3.1c-0.6,0.2-1.1,0.3-1.7,0.3v-5.5c0-3.8,3.1-6.9,6.9-6.9h0h0.9L155.7,115.9z"/>
	<path class="st3" d="M158.6,117.2h-3.4c-3.8,0-6.9-3.1-6.9-6.9c0-3.8,3.1-6.9,6.9-6.9h6.9l3.4,6.9L158.6,117.2z"/>
	<path class="st13" d="M124.1,148.3c7.6,0,13.8,6.2,13.8,13.8s-6.2,13.8-13.8,13.8c-7.6,0-13.8-6.2-13.8-13.8
		S116.5,148.3,124.1,148.3"/>
</g>
</svg>
