<?xml version="1.0" encoding="utf-8"?>
<!-- Generator: Adobe Illustrator 21.0.0, SVG Export Plug-In . SVG Version: 6.00 Build 0)  -->
<svg version="1.1" id="Warstwa_1" xmlns="http://www.w3.org/2000/svg" xmlns:xlink="http://www.w3.org/1999/xlink" x="0px" y="0px"
	 viewBox="0 0 200 200" style="enable-background:new 0 0 200 200;" xml:space="preserve">
<style type="text/css">
	.st0{fill:#FFCEB6;}
	.st1{fill:#FFA100;}
	.st2{fill:#E0EDFF;}
	.st3{fill:#FFB401;}
	.st4{fill:#EF5E3B;}
	.st5{fill:#B1712C;}
	.st6{fill:#C78640;}
</style>
<g>
	<path class="st0" d="M120.7,117.2l9.4,28.1l4.4,13.3h51.7l-3.4,17.2l-54.3,5.7c-6.8,0.7-13.4-2.7-16.8-8.6l-8.2-14.4l-13.8-24.1
		v-17.2H120.7z"/>
	<polygon class="st1" points="120.7,117.2 130,145.3 103.4,158.6 89.7,134.5 89.7,117.2 	"/>
	<polygon class="st2" points="186.2,158.6 200,158.6 200,193.1 193.1,193.1 182.8,175.9 	"/>
	<path class="st0" d="M22.8,122.7c0.8-7.4,6.2-13.4,13.4-15l22.4-5l27.6-6.1h34.5v20.7c0,9.5-7.7,17.2-17.2,17.2H44.8l-10.3,51.7
		l-17.2-10.3L22.8,122.7z"/>
	<path class="st3" d="M86.2,96.6h34.5v20.7c0,9.5-7.7,17.2-17.2,17.2H58.6v-31.8L86.2,96.6z"/>
	<path class="st4" d="M106.9,41.4c8.7,6.5,13.8,16.7,13.8,27.6v27.6H86.2V79.3L83,76.1c-2.3-2.3-3.7-5.5-3.7-8.8
		c0-3.3,1.3-6.5,3.7-8.8l17-17H106.9z"/>
	<path class="st5" d="M113.8,27.6v6.9c0,9.5,7.7,17.2,17.2,17.2h10.3c-6.6-6.6-10.3-15.6-10.3-25c0-2.8,0-5.5,0-8v0
		c0-4.6-3.8-8.4-8.4-8.4h-0.1c-1.2,0-2.4,0.3-3.5,0.8l-8.7,4.3L113.8,27.6z"/>
	<path class="st0" d="M113.8,27.6v6.9c0,7.6-6.2,13.8-13.8,13.8c-7.6,0-13.8-6.2-13.8-13.8V20.7H100l6.9,6.9H113.8z"/>
	<path class="st6" d="M100,20.7l6.9,6.9h6.9v-6.9c0-7.6-6.2-13.8-13.8-13.8c-7.6,0-13.8,6.2-13.8,13.8H100z"/>
	<path class="st0" d="M89.7,58.7L89.7,58.7c0-5.8,4.7-10.4,10.4-10.4c4.3,0,8.3,2,10.9,5.4L122.4,69c3.4,4.5,5.2,9.9,5.2,15.5
		c0,5.6-1.8,11-5.2,15.5l-15.5,20.7H86.2l-3.4-6.9l3.4-3.4l10.3-3.4l10.3-20.7L91.6,64.8C90.3,63,89.7,60.9,89.7,58.7"/>
	<polygon class="st2" points="34.5,193.1 0,193.1 0,186.2 17.2,175.9 34.5,186.2 	"/>
</g>
</svg>
