<?xml version="1.0" encoding="utf-8"?>
<!-- Generator: Adobe Illustrator 21.0.0, SVG Export Plug-In . SVG Version: 6.00 Build 0)  -->
<svg version="1.1" id="Warstwa_1" xmlns="http://www.w3.org/2000/svg" xmlns:xlink="http://www.w3.org/1999/xlink" x="0px" y="0px"
	 viewBox="0 0 150 150" style="enable-background:new 0 0 150 150;" xml:space="preserve">
<style type="text/css">
	.st0{fill:#FFFFFF;}
</style>
<g>
	<g>
		<path class="st0" d="M75.8,1.9C35,1.9,1.9,35,1.9,75.7h146.2v-15C141.2,27.2,111.4,1.9,75.8,1.9z"/>
	</g>
	<g>
		<path d="M75,0C33.6,0,0,33.6,0,75s33.6,75,75,75s75-33.6,75-75S116.4,0,75,0z M75,4.7c38.7,0,70.2,31.5,70.2,70.3H4.8
			C4.8,36.2,36.3,4.7,75,4.7z"/>
	</g>
	<g>
		<path d="M43.2,60.2v4.6H28.3V40.1H34v20.1C34,60.2,43.2,60.2,43.2,60.2z"/>
		<path d="M69.7,52.4c0,1.8-0.3,3.4-0.9,5c-0.6,1.5-1.5,2.9-2.6,4s-2.5,2-4,2.7c-1.6,0.6-3.3,1-5.2,1s-3.7-0.3-5.2-1
			c-1.6-0.6-2.9-1.5-4-2.7c-1.1-1.1-2-2.5-2.6-4s-0.9-3.2-0.9-5s0.3-3.4,0.9-5c0.6-1.5,1.5-2.9,2.6-4s2.5-2,4-2.7
			c1.6-0.6,3.3-1,5.2-1s3.7,0.3,5.2,1c1.6,0.6,2.9,1.5,4,2.7c1.1,1.1,2,2.5,2.6,4C69.4,49,69.7,50.7,69.7,52.4z M63.8,52.4
			c0-1.2-0.2-2.3-0.5-3.3s-0.8-1.8-1.4-2.5c-0.6-0.7-1.3-1.2-2.2-1.5c-0.9-0.4-1.8-0.5-2.9-0.5c-1.1,0-2.1,0.2-3,0.5
			c-0.9,0.4-1.6,0.9-2.2,1.5c-0.6,0.7-1,1.5-1.4,2.5s-0.5,2.1-0.5,3.3s0.2,2.3,0.5,3.3s0.8,1.8,1.4,2.5c0.6,0.7,1.3,1.2,2.2,1.5
			c0.9,0.4,1.9,0.5,3,0.5s2.1-0.2,2.9-0.5c0.9-0.4,1.6-0.9,2.2-1.5c0.6-0.7,1-1.5,1.4-2.5S63.8,53.7,63.8,52.4z"/>
		<path d="M84.9,52h8.8v10.4c-1.3,0.9-2.6,1.6-4,2S86.8,65,85.2,65c-2,0-3.9-0.3-5.5-1c-1.7-0.6-3.1-1.5-4.3-2.6
			c-1.2-1.1-2.1-2.5-2.7-4s-1-3.2-1-5s0.3-3.5,0.9-5.1c0.6-1.5,1.5-2.9,2.6-4s2.5-2,4.1-2.6s3.4-0.9,5.4-0.9c1,0,2,0.1,2.9,0.3
			s1.7,0.4,2.5,0.7s1.5,0.6,2.1,1s1.2,0.9,1.7,1.3l-1.7,2.5c-0.3,0.4-0.6,0.6-1,0.7c-0.4,0.1-0.9,0-1.3-0.3
			c-0.5-0.3-0.9-0.5-1.3-0.7s-0.8-0.4-1.2-0.5c-0.4-0.1-0.9-0.2-1.3-0.3c-0.5,0-1-0.1-1.5-0.1c-1.1,0-2,0.2-2.9,0.6
			c-0.9,0.4-1.6,0.9-2.2,1.6s-1.1,1.5-1.4,2.5s-0.5,2-0.5,3.2c0,1.3,0.2,2.5,0.5,3.5c0.4,1,0.9,1.9,1.5,2.6c0.7,0.7,1.5,1.2,2.4,1.6
			c0.9,0.4,1.9,0.5,3,0.5c0.7,0,1.3-0.1,1.9-0.2c0.5-0.1,1.1-0.3,1.6-0.5v-3.7h-2.4c-0.4,0-0.6-0.1-0.9-0.3s-0.3-0.4-0.3-0.7
			L84.9,52z"/>
		<path d="M121.7,52.4c0,1.8-0.3,3.4-0.9,5c-0.6,1.5-1.5,2.9-2.6,4s-2.5,2-4,2.7c-1.6,0.6-3.3,1-5.2,1s-3.7-0.3-5.2-1
			s-2.9-1.5-4-2.7c-1.1-1.1-2-2.5-2.6-4s-0.9-3.2-0.9-5s0.3-3.4,0.9-5c0.6-1.5,1.5-2.9,2.6-4s2.5-2,4-2.7c1.6-0.6,3.3-1,5.2-1
			s3.7,0.3,5.2,1c1.6,0.6,2.9,1.5,4,2.7c1.1,1.1,2,2.5,2.6,4C121.4,49,121.7,50.7,121.7,52.4z M115.8,52.4c0-1.2-0.2-2.3-0.5-3.3
			s-0.8-1.8-1.4-2.5s-1.3-1.2-2.2-1.5c-0.9-0.4-1.8-0.5-2.9-0.5s-2.1,0.2-3,0.5c-0.9,0.4-1.6,0.9-2.2,1.5c-0.6,0.7-1,1.5-1.4,2.5
			s-0.5,2.1-0.5,3.3s0.2,2.3,0.5,3.3s0.8,1.8,1.4,2.5s1.3,1.2,2.2,1.5c0.9,0.4,1.9,0.5,3,0.5s2.1-0.2,2.9-0.5
			c0.9-0.4,1.6-0.9,2.2-1.5c0.6-0.7,1-1.5,1.4-2.5C115.7,54.7,115.8,53.7,115.8,52.4z"/>
	</g>
	<g>
		<g>
			<path class="st0" d="M40.4,86.8h-5.7V103h-4V86.8H25v-3.2h15.4V86.8z"/>
			<polygon class="st0" points="40.4,83.6 25,83.6 25,86.8 30.7,86.8 30.7,103 34.7,103 34.7,86.8 40.4,86.8 			"/>
		</g>
		<g>
			<path class="st0" d="M68.7,83.6l-6,19.5h-3.6l-4-12.7C55,90.2,55,90,54.9,89.8c-0.1-0.2-0.1-0.5-0.2-0.7c0,0.2-0.1,0.5-0.2,0.7
				c-0.1,0.2-0.1,0.4-0.2,0.6l-4,12.7h-3.6l-6-19.5H44c0.4,0,0.6,0.1,0.9,0.2c0.2,0.2,0.4,0.4,0.5,0.6l3,11c0.1,0.3,0.1,0.6,0.2,1
				c0.1,0.4,0.1,0.7,0.2,1.1c0.1-0.4,0.2-0.8,0.3-1.1c0.1-0.4,0.2-0.7,0.3-1l3.5-11c0.1-0.2,0.2-0.4,0.5-0.6
				c0.2-0.2,0.5-0.3,0.9-0.3h1.2c0.4,0,0.6,0.1,0.9,0.2s0.4,0.4,0.5,0.6l3.5,11c0.1,0.3,0.2,0.6,0.3,0.9s0.2,0.7,0.3,1.1
				c0.1-0.4,0.1-0.7,0.2-1.1c0.1-0.3,0.1-0.6,0.2-0.9l3-11c0.1-0.2,0.2-0.4,0.5-0.6c0.2-0.2,0.5-0.3,0.9-0.3L68.7,83.6L68.7,83.6z"
				/>
			<path class="st0" d="M68.7,83.6h-3.2c-0.3,0-0.6,0.1-0.9,0.3c-0.2,0.2-0.4,0.4-0.5,0.6l-3,11c0,0.2-0.1,0.5-0.1,0.8
				c-0.1,0.3-0.1,0.7-0.2,1.1c-0.1-0.4-0.2-0.7-0.3-1.1c-0.1-0.3-0.2-0.6-0.3-0.9l-3.5-11c-0.1-0.3-0.3-0.5-0.5-0.6
				c-0.2-0.2-0.5-0.2-0.9-0.2h-1.2c-0.3,0-0.6,0.1-0.9,0.3c-0.2,0.2-0.4,0.4-0.5,0.6l-3.5,11c-0.1,0.3-0.2,0.6-0.3,1
				s-0.2,0.7-0.3,1.1c-0.1-0.4-0.1-0.8-0.2-1.1c-0.1-0.4-0.1-0.7-0.2-1l-3-11c-0.1-0.3-0.2-0.5-0.5-0.6c-0.2-0.2-0.5-0.2-0.9-0.2
				h-3.4l6,19.5H50l4-12.7c0.1-0.2,0.1-0.4,0.2-0.6s0.1-0.5,0.2-0.7c0,0.2,0.1,0.5,0.2,0.7c0.1,0.2,0.1,0.4,0.2,0.6l4,12.7h3.6
				L68.7,83.6L68.7,83.6z"/>
		</g>
		<g>
			<path class="st0" d="M89,93.3c0,1.4-0.2,2.7-0.7,4c-0.5,1.2-1.1,2.3-2,3.1c-0.9,0.9-1.9,1.6-3.1,2.1s-2.6,0.8-4.1,0.8
				s-2.9-0.3-4.1-0.8s-2.3-1.2-3.1-2.1c-0.9-0.9-1.6-1.9-2-3.1c-0.5-1.2-0.7-2.5-0.7-4c0-1.4,0.2-2.7,0.7-4s1.1-2.3,2-3.1
				c0.9-0.9,1.9-1.6,3.1-2.1s2.6-0.8,4.1-0.8s2.9,0.3,4.1,0.8s2.3,1.2,3.1,2.1c0.9,0.9,1.5,1.9,2,3.1C88.7,90.6,89,91.9,89,93.3z
				 M84.9,93.3c0-1-0.1-1.9-0.4-2.7c-0.3-0.8-0.6-1.5-1.2-2.1c-0.5-0.6-1.1-1-1.8-1.3S80,86.7,79,86.7c-0.9,0-1.7,0.1-2.5,0.5
				c-0.7,0.3-1.3,0.7-1.8,1.3c-0.5,0.6-0.9,1.3-1.2,2.1c-0.3,0.8-0.4,1.7-0.4,2.7s0.1,2,0.4,2.8s0.6,1.5,1.2,2
				c0.5,0.6,1.1,1,1.8,1.3c0.7,0.3,1.5,0.5,2.5,0.5c0.9,0,1.7-0.1,2.5-0.5c0.7-0.3,1.3-0.7,1.8-1.3c0.5-0.6,0.9-1.2,1.2-2
				C84.7,95.2,84.9,94.3,84.9,93.3z"/>
			<path class="st0" d="M79,83.4c-1.5,0-2.9,0.3-4.1,0.8s-2.3,1.2-3.1,2.1c-0.9,0.9-1.5,1.9-2,3.1s-0.7,2.5-0.7,4s0.2,2.7,0.7,4
				c0.5,1.2,1.1,2.3,2,3.1c0.9,0.9,1.9,1.6,3.1,2.1s2.6,0.8,4.1,0.8s2.9-0.3,4.1-0.8s2.3-1.2,3.1-2.1c0.9-0.9,1.5-1.9,2-3.1
				s0.7-2.5,0.7-4c0-1.4-0.2-2.7-0.7-3.9c-0.5-1.2-1.1-2.3-2-3.1s-1.9-1.6-3.1-2.1C81.9,83.6,80.5,83.4,79,83.4L79,83.4z M79,99.8
				c-0.9,0-1.7-0.1-2.5-0.5c-0.7-0.3-1.3-0.7-1.8-1.3c-0.5-0.6-0.9-1.2-1.2-2c-0.3-0.8-0.4-1.7-0.4-2.8c0-1,0.1-1.9,0.4-2.7
				c0.3-0.8,0.6-1.5,1.2-2.1c0.5-0.6,1.1-1,1.8-1.3c0.7-0.3,1.5-0.5,2.5-0.5c0.9,0,1.7,0.1,2.5,0.5c0.7,0.3,1.3,0.7,1.8,1.3
				c0.5,0.6,0.9,1.3,1.2,2.1c0.3,0.8,0.4,1.7,0.4,2.7s-0.1,2-0.4,2.8s-0.6,1.5-1.2,2c-0.5,0.6-1.1,1-1.8,1.3
				C80.7,99.7,79.9,99.8,79,99.8L79,99.8z"/>
		</g>
		<g>
			<path class="st0" d="M98.6,96.1c0,1.1-0.1,2.1-0.4,3s-0.7,1.6-1.2,2.3s-1.2,1.1-2,1.5c-0.8,0.3-1.8,0.5-2.8,0.5
				c-0.5,0-1,0-1.5-0.1c-0.5,0-1-0.1-1.5-0.3c0-0.4,0.1-0.8,0.1-1.2c0-0.4,0.1-0.8,0.1-1.2c0-0.2,0.1-0.4,0.3-0.5
				c0.1-0.1,0.4-0.2,0.6-0.2c0.1,0,0.4,0,0.6,0.1c0.2,0,0.5,0.1,0.9,0.1c0.5,0,0.9-0.1,1.3-0.2s0.7-0.4,0.9-0.7
				c0.2-0.3,0.4-0.7,0.5-1.2s0.2-1.1,0.2-1.8V83.5h4L98.6,96.1L98.6,96.1z"/>
			<path class="st0" d="M98.6,83.6h-4v12.6c0,0.7-0.1,1.3-0.2,1.8s-0.3,0.9-0.5,1.2c-0.2,0.3-0.5,0.5-0.9,0.7
				c-0.4,0.1-0.8,0.2-1.3,0.2c-0.4,0-0.6,0-0.9-0.1s-0.4-0.1-0.6-0.1c-0.3,0-0.5,0.1-0.6,0.2s-0.2,0.3-0.3,0.5
				c0,0.4-0.1,0.8-0.1,1.2c0,0.4-0.1,0.8-0.1,1.2c0.5,0.1,1,0.2,1.5,0.3c0.5,0,1,0.1,1.5,0.1c1.1,0,2-0.2,2.8-0.5s1.5-0.8,2-1.5
				c0.5-0.6,1-1.4,1.2-2.3s0.4-1.9,0.4-3L98.6,83.6L98.6,83.6z"/>
		</g>
		<g>
			<path class="st0" d="M106.3,86.7v5h6.5v3h-6.5v5.1h8.3v3.1h-12.4V83.6h12.4v3.1H106.3L106.3,86.7z"/>
			<polygon class="st0" points="114.6,83.6 102.2,83.6 102.2,103 114.6,103 114.6,99.9 106.3,99.9 106.3,94.8 112.7,94.8 
				112.7,91.7 106.3,91.7 106.3,86.7 114.6,86.7 			"/>
		</g>
		<g>
			<path class="st0" d="M125,96.1c0,1.1-0.1,2.1-0.4,3s-0.7,1.6-1.2,2.3c-0.5,0.6-1.2,1.1-2,1.5c-0.8,0.3-1.8,0.5-2.8,0.5
				c-0.5,0-1,0-1.5-0.1c-0.5,0-1-0.1-1.5-0.3c0-0.4,0.1-0.8,0.1-1.2c0-0.4,0.1-0.8,0.1-1.2c0-0.2,0.1-0.4,0.3-0.5
				c0.1-0.1,0.4-0.2,0.6-0.2c0.1,0,0.4,0,0.6,0.1c0.2,0,0.5,0.1,0.9,0.1c0.5,0,0.9-0.1,1.3-0.2s0.7-0.4,0.9-0.7
				c0.2-0.3,0.4-0.7,0.5-1.2s0.2-1.1,0.2-1.8V83.5h4L125,96.1L125,96.1z"/>
			<path class="st0" d="M125,83.6h-4v12.6c0,0.7-0.1,1.3-0.2,1.8s-0.3,0.9-0.5,1.2c-0.2,0.3-0.5,0.5-0.9,0.7
				c-0.4,0.1-0.8,0.2-1.3,0.2c-0.4,0-0.6,0-0.9-0.1c-0.2,0-0.4-0.1-0.6-0.1c-0.3,0-0.5,0.1-0.6,0.2s-0.2,0.3-0.3,0.5
				c0,0.4-0.1,0.8-0.1,1.2c0,0.4-0.1,0.8-0.1,1.2c0.5,0.1,1,0.2,1.5,0.3c0.5,0,1,0.1,1.5,0.1c1.1,0,2-0.2,2.8-0.5s1.5-0.8,2-1.5
				c0.5-0.6,1-1.4,1.2-2.3s0.4-1.9,0.4-3L125,83.6L125,83.6z"/>
		</g>
		<g>
			<path class="st0" d="M41,110v5.4h7v3.2h-7v7.8h-4v-19.5h12.4v3.1H41z"/>
			<polygon class="st0" points="49.3,106.9 36.9,106.9 36.9,126.3 41,126.3 41,118.6 48,118.6 48,115.4 41,115.4 41,110 49.3,110 
							"/>
		</g>
		<g>
			<path class="st0" d="M55.9,126.3h-4v-19.5h4V126.3z"/>
			<polygon class="st0" points="55.9,106.9 51.8,106.9 51.8,126.3 55.9,126.3 			"/>
		</g>
		<g>
			<path class="st0" d="M75.2,126.3h-3.6c-0.7,0-1.2-0.3-1.5-0.8l-3.7-6c-0.1-0.2-0.3-0.4-0.5-0.5s-0.5-0.2-0.8-0.2h-1.4v7.4h-4
				v-19.5h6.1c1.4,0,2.5,0.1,3.5,0.4s1.8,0.7,2.4,1.2s1.1,1.1,1.4,1.8c0.3,0.7,0.4,1.5,0.4,2.3c0,0.6-0.1,1.3-0.3,1.8
				c-0.2,0.6-0.5,1.1-0.8,1.6c-0.4,0.5-0.8,0.9-1.3,1.3s-1.1,0.7-1.7,0.9c0.3,0.1,0.5,0.3,0.7,0.5s0.4,0.4,0.6,0.7L75.2,126.3z
				 M65.8,116.1c0.6,0,1.2-0.1,1.7-0.2c0.5-0.2,0.9-0.4,1.2-0.7c0.3-0.3,0.5-0.6,0.7-1c0.1-0.4,0.2-0.8,0.2-1.3
				c0-0.9-0.3-1.6-0.9-2.1s-1.5-0.8-2.8-0.8h-2.1v6.1H65.8z"/>
			<path class="st0" d="M65.8,106.9h-6.1v19.5h4V119h1.4c0.4,0,0.6,0,0.8,0.2c0.2,0.1,0.4,0.3,0.5,0.5l3.7,6
				c0.3,0.5,0.8,0.8,1.5,0.8h3.6l-4.5-7c-0.2-0.3-0.4-0.5-0.6-0.7s-0.5-0.4-0.7-0.5c0.6-0.2,1.2-0.5,1.7-0.9s0.9-0.8,1.3-1.3
				s0.6-1,0.8-1.6c0.2-0.6,0.3-1.2,0.3-1.8c0-0.8-0.1-1.6-0.4-2.3c-0.3-0.7-0.7-1.3-1.4-1.8c-0.6-0.5-1.4-0.9-2.4-1.2
				C68.3,107,67.2,106.9,65.8,106.9L65.8,106.9z M63.7,116.1V110h2.1c1.3,0,2.2,0.3,2.8,0.8c0.6,0.5,0.9,1.2,0.9,2.1
				c0,0.5-0.1,0.9-0.2,1.3s-0.4,0.7-0.7,1s-0.7,0.5-1.2,0.7s-1,0.2-1.7,0.2H63.7L63.7,116.1z"/>
		</g>
		<g>
			<path class="st0" d="M98.3,106.9v19.5h-3.5v-12c0-0.3,0-0.5,0-0.8s0-0.6,0.1-0.9l-5.6,10.5c-0.3,0.6-0.8,0.9-1.4,0.9h-0.6
				c-0.3,0-0.6-0.1-0.8-0.2s-0.4-0.4-0.6-0.6l-5.6-10.6c0,0.3,0,0.6,0.1,0.9c0,0.3,0,0.6,0,0.8v12h-3.5v-19.5h3c0.2,0,0.3,0,0.5,0
				c0.1,0,0.3,0,0.4,0.1s0.2,0.1,0.3,0.2c0.1,0.1,0.2,0.2,0.2,0.4l5.5,10.4c0.2,0.3,0.3,0.6,0.5,1c0.1,0.3,0.3,0.7,0.4,1
				c0.1-0.4,0.3-0.7,0.4-1s0.3-0.7,0.5-1l5.4-10.3c0.1-0.1,0.2-0.3,0.3-0.4c0.1-0.1,0.2-0.1,0.3-0.2c0.1,0,0.2-0.1,0.4-0.1
				c0.1,0,0.3,0,0.5,0L98.3,106.9L98.3,106.9z"/>
			<path class="st0" d="M98.3,106.9h-3c-0.2,0-0.3,0-0.5,0c-0.1,0-0.2,0-0.4,0.1s-0.2,0.1-0.3,0.2c-0.1,0.1-0.2,0.2-0.3,0.4
				l-5.4,10.3c-0.2,0.3-0.3,0.6-0.5,1c-0.1,0.3-0.3,0.7-0.4,1c-0.1-0.4-0.3-0.7-0.4-1s-0.3-0.6-0.5-1l-5.5-10.4
				c-0.1-0.1-0.2-0.3-0.2-0.4c-0.1-0.1-0.2-0.1-0.3-0.2c-0.1,0-0.2-0.1-0.4-0.1s-0.3,0-0.5,0h-3v19.5h3.5v-12c0-0.3,0-0.5,0-0.8
				s0-0.6-0.1-0.9l5.6,10.6c0.1,0.3,0.3,0.5,0.6,0.6c0.2,0.1,0.5,0.2,0.8,0.2h0.6c0.6,0,1.1-0.3,1.4-0.9l5.6-10.5
				c0,0.3-0.1,0.6-0.1,0.9s0,0.5,0,0.8v12h3.5L98.3,106.9L98.3,106.9z"/>
		</g>
		<g>
			<path class="st0" d="M110.9,118.8v7.5h-4v-7.5l-7.1-12h3.5c0.4,0,0.6,0.1,0.8,0.2s0.4,0.4,0.5,0.6l3.2,6.1
				c0.2,0.4,0.4,0.8,0.6,1.1c0.2,0.4,0.3,0.7,0.5,1.1c0.1-0.4,0.3-0.7,0.4-1.1c0.2-0.4,0.4-0.7,0.5-1.1l3.2-6.1
				c0.1-0.2,0.3-0.4,0.5-0.6s0.5-0.3,0.8-0.3h3.6L110.9,118.8z"/>
			<path class="st0" d="M117.9,106.9h-3.6c-0.3,0-0.6,0.1-0.8,0.3s-0.4,0.4-0.5,0.6l-3.2,6.1c-0.2,0.4-0.4,0.8-0.5,1.1
				c-0.2,0.4-0.3,0.7-0.4,1.1c-0.1-0.4-0.3-0.7-0.5-1.1s-0.4-0.7-0.6-1.1l-3.2-6.1c-0.1-0.3-0.3-0.5-0.5-0.6s-0.5-0.2-0.8-0.2h-3.6
				l7.1,12v7.5h4V119L117.9,106.9L117.9,106.9z"/>
		</g>
	</g>
</g>
</svg>
