<?xml version="1.0" encoding="utf-8"?>
<!-- Generator: Adobe Illustrator 21.0.0, SVG Export Plug-In . SVG Version: 6.00 Build 0)  -->
<svg version="1.1" id="Warstwa_1" xmlns="http://www.w3.org/2000/svg" xmlns:xlink="http://www.w3.org/1999/xlink" x="0px" y="0px"
	 viewBox="0 0 1400 440" style="enable-background:new 0 0 1400 440;" xml:space="preserve">
<style type="text/css">
	.st0{fill:#D66C1F;}
	.st1{fill:#F38031;}
	.st2{fill:#FFFFFF;}
</style>
<g>
	<path class="st0" d="M1400,133.2V179c-28.7-6.4-58.4-9.7-89-10.4c-211.9-4.9-467.5,112.5-767.4,146.1
		c-95.3,10.7-195.1,12.9-299.3,0c-78.8-9.7-160.2-28.1-244.1-58c97.4,33.1,190,50.9,278.3,58c62.8,5,123.6,4.6,182.4,0
		c331.5-25.4,601.6-178,850.1-185.7C1341,128.2,1370.6,129.4,1400,133.2"/>
	<path class="st1" d="M1400,393.8c-83.9-15.6-165.3-25.2-244.1-30.3c-104.2-6.7-204-5.6-299.3,0c-299.9,17.5-555.5,78.9-767.4,76.3
		c-30.6-0.4-60.3-2.1-89-5.4l-0.1-41.5l-0.1-32V256.8c83.9,29.9,165.3,48.3,244.1,58c104.2,12.9,204,10.7,299.3,0
		c299.9-33.6,555.5-151,767.4-146.1c30.6,0.8,60.3,4,89,10.4v138.8L1400,393.8z"/>
	<path class="st2" d="M958.7,168.8c-327,111.5-566.5,177.7-958.5,62.6V0.1C286.8,307.9,703.9,222.5,958.7,168.8"/>
</g>
</svg>
