<?xml version="1.0" encoding="utf-8"?>
<!-- Generator: Adobe Illustrator 21.0.0, SVG Export Plug-In . SVG Version: 6.00 Build 0)  -->
<svg version="1.1" id="Warstwa_1" xmlns="http://www.w3.org/2000/svg" xmlns:xlink="http://www.w3.org/1999/xlink" x="0px" y="0px"
	 viewBox="0 0 200 200" style="enable-background:new 0 0 200 200;" xml:space="preserve">
<style type="text/css">
	.st0{fill:#FFFFFF;}
	.st1{fill:#F38031;}
	.st2{fill:#FF8031;}
	.st3{fill:#80E441;}
	.st4{fill:#60605F;}
</style>
<g>
	<path class="st0" d="M180.9,43.7c29.8,42.8,19.2,101.7-23.7,131.5c-42.8,29.8-101.7,19.2-131.5-23.7C-4,108.7,6.6,49.8,49.4,20.1
		C92.2-9.7,151.1,0.9,180.9,43.7"/>
	<path class="st1" d="M181.3,43.4c14.2,20.4,20.5,46.3,16.6,71.2c-1,6.2-2.4,12.4-4.6,18.3c-2.1,6-4.8,11.8-8,17.3
		c-6.4,11-15.1,20.8-25.5,28.7c-10.3,7.8-22.3,13.8-35.1,17c-6.4,1.6-13,2.6-19.6,3c-6.6,0.3-13.3,0.1-19.9-1
		c-6.6-1-13.1-2.7-19.4-5c-6.3-2.3-12.4-5.2-18.1-8.8c-5.7-3.6-11.1-7.7-15.9-12.4c-4.9-4.7-9.3-9.8-13.1-15.3
		c-3.8-5.5-7.1-11.5-9.8-17.7c-2.7-6.2-4.6-12.7-6-19.3C0.3,106.3,0.4,92.6,3,79.6c1.3-6.5,3.4-12.9,6-19c2.6-6.1,5.9-11.9,9.6-17.3
		c7.5-10.8,17.2-20,28.2-26.9C57.8,9.4,70,4.7,82.6,2.5c6.3-1.1,12.6-1.6,19-1.5c6.3,0.1,12.6,0.9,18.8,2.1
		C145,8.1,167.1,23,181.3,43.4 M180.5,44c-7-10.1-16.1-18.8-26.4-25.4c-10.4-6.6-22-11.2-34.1-13.3C107.8,3.1,95.3,3.3,83.3,6
		c-12,2.6-23.4,7.7-33.5,14.7c-10.1,7-18.7,16-25.3,26.4c-6.6,10.3-11.1,22-13.3,34c-2.2,12.1-1.9,24.6,0.7,36.5
		c2.6,12,7.6,23.4,14.6,33.4c7,10.1,15.9,18.8,26.2,25.4c10.3,6.6,21.9,11.2,34,13.4c12.1,2.2,24.6,2,36.5-0.6
		c12-2.6,23.4-7.6,33.5-14.6c10.1-7,18.8-16,25.4-26.3c6.7-10.3,11.2-22,13.4-34.1c2.2-12.1,2-24.6-0.6-36.6
		C192.5,65.6,187.5,54.1,180.5,44"/>
</g>
<g>
	<path class="st2" d="M116.8,44.4c4,0,7.2,3.2,7.2,7.2c0,4-3.2,7.2-7.2,7.2c-4,0-7.2-3.2-7.2-7.2C109.6,47.6,112.8,44.4,116.8,44.4"
		/>
	<path class="st2" d="M110.6,34.8c-6,5.6-9.5,12.9-11.5,20.4c-1.6,6.2-2.4,12.5-2.8,18.8c-0.8,13.4,0.6,27.1,5.3,39.9
		c3.1,8.5,7.9,16.5,15,22.9c0.2,0.2,2.5,0.1,3.2,0.1c0.8,0,1.5-0.1,2.2-0.2c-0.1,0,1-0.2,0.9-0.3c-10.2-9.2-15.6-21.9-18.3-34.4
		c-2.8-13-2.9-26.5-0.8-39.6c1.6-10.1,4.9-20.3,13-28c0.1-0.1-1-0.1-0.9-0.1c-0.8,0-1.5,0-2.3,0.1c-0.8,0-1.5,0.1-2.2,0.2
		C111.2,34.6,110.8,34.6,110.6,34.8"/>
	<path class="st3" d="M157.8,79.6c-0.3,0.2-0.5,0.5-0.8,0.7c-0.1,0.1-0.2,0.1-0.2,0.2c-0.1,0.1-0.2,0.2-0.3,0.2
		c-0.6,0.5-1.3,1-1.9,1.6c-1.3,1.1-2.7,2.2-4,3.2c-0.4,0.3-1.3,1-1.9,1.4c-0.8,0.6-1.6,1.1-2.4,1.7c-1.6,1.1-3.1,2.1-4.8,3.1
		c-6.2,3.8-13.3,7.1-20.7,7.7c-4.1,0.3-8.2-0.3-11.9-2.1c-1.5-0.7-2.8-1.7-3.8-3c0.3,2.8,0.7,5.6,1.2,8.4c1.9,0.7,3.9,1,5.8,1.2
		c7.2,0.6,14.5-2,20.8-5.3c8.3-4.4,15.8-10.2,22.9-16.4c1.1-0.9,2.2-2,3-3.1C159.7,78.1,158,79.5,157.8,79.6"/>
	<path class="st3" d="M152.6,60.7c-0.5-0.4-1-0.8-1.5-1.1c-0.7-0.5-1.4-0.9-2.1-1.3c-0.4-0.2-0.9-0.6-1.3-0.6
		c-6.8-0.9-13.9-0.5-20.6,1c-7,1.5-13.9,4.2-19.7,8.4c-0.7,0.5-1.4,1-2,1.6c-0.3,3.3-0.5,6.6-0.6,9.9c7.7-11.2,22.3-16.4,35.4-17.6
		c4.2-0.4,8.5-0.3,12.6,0.2C153.1,61.2,152.6,60.8,152.6,60.7"/>
	<path class="st2" d="M76.2,72.2c3.4,0,6.1,2.7,6.1,6.1c0,3.4-2.7,6.1-6.1,6.1c-3.4,0-6.1-2.7-6.1-6.1
		C70.2,74.9,72.9,72.2,76.2,72.2"/>
	<path class="st2" d="M81.4,60.5c4.5,4.2,7.1,9.6,8.6,15.2c1.2,4.6,1.8,9.3,2.1,14.1c0.6,10-0.5,20.2-4,29.8
		c-2.3,6.3-5.9,12.4-11.2,17.1c-0.1,0.1-1.8,0.1-2.4,0.1c-0.6,0-1.1-0.1-1.7-0.2c0.1,0-0.8-0.1-0.7-0.2c7.6-6.9,11.6-16.4,13.7-25.7
		c2.1-9.7,2.2-19.8,0.6-29.6c-1.2-7.6-3.6-15.2-9.7-20.9c-0.1-0.1,0.8-0.1,0.7-0.1c0.6,0,1.1,0,1.7,0c0.6,0,1.1,0.1,1.7,0.2
		C80.9,60.4,81.2,60.4,81.4,60.5"/>
	<path class="st3" d="M82.4,115.9c0.7-2.2,1.3-4.4,1.8-6.5c0-0.2,0.1-0.4,0.1-0.6c-0.7,1.6-1.7,3.1-2.9,4.4
		c-3.7,4.1-8.8,6.9-13.9,8.9c-1.3,0.5-2.7,1-4,1.4c-0.7,0.2-1.4,0.5-2.1,0.7c-0.5,0.2-1.3,0.4-1.7,0.5c-1.2,0.4-2.5,0.7-3.7,1
		c-0.6,0.2-1.2,0.3-1.8,0.4c0,0-0.2,0-0.2,0.1c-0.1,0-0.1,0-0.2,0c-0.3,0.1-0.5,0.1-0.8,0.2c-0.1,0-1.7,0.4-0.8,0.5
		c1.1,0,2.2-0.2,3.2-0.4c6.8-1.5,13.7-3.3,20-6.4C77.9,118.9,80.2,117.5,82.4,115.9"/>
	<path class="st3" d="M85.2,93.2c0-1.5-0.1-3-0.2-4.5c-8.2,0.8-16.9-2.4-23.7-6.7c-2.7-1.7-5.2-3.6-7.4-5.9
		c-0.2-0.2-0.1,0.3-0.1,0.3c0.1,0.5,0.2,0.9,0.4,1.4c0.2,0.6,0.4,1.1,0.7,1.7c0.1,0.3,0.3,0.8,0.5,1c3.6,3.6,8,6.6,12.7,8.7
		c4.8,2.3,10.1,3.8,15.5,4C84,93.2,84.6,93.2,85.2,93.2"/>
	<polygon class="st4" points="42.1,149.7 49,149.7 49,151.8 44.4,151.8 44.4,154.7 48.7,154.7 48.7,156.8 44.4,156.8 44.4,161.5 
		42.1,161.5 	"/>
	<rect x="53.4" y="149.7" class="st4" width="2.3" height="11.8"/>
	<polygon class="st4" points="59.9,159.4 64.9,152.5 65.8,151.7 59.9,151.7 59.9,149.7 68.1,149.7 68.1,151.7 63.1,158.8 
		62.2,159.4 68.1,159.4 68.1,161.5 60,161.5 60,159.4 	"/>
	<path class="st4" d="M73.3,149.7h2.3v8.6c0,0.5-0.1,0.9-0.2,1.3c-0.1,0.4-0.3,0.8-0.5,1.1c-0.2,0.3-0.5,0.6-0.9,0.8
		c-0.4,0.2-0.8,0.3-1.3,0.3c-0.3,0-0.7,0-1-0.1c-0.4-0.1-0.7-0.2-1-0.3l0.5-1.9c0.3,0.1,0.6,0.2,1,0.2c0.5,0,0.8-0.2,0.9-0.5
		c0.1-0.4,0.2-0.8,0.2-1.4L73.3,149.7z"/>
	<path class="st4" d="M79.9,155.6c0-2,0.4-3.5,1.3-4.6c0.9-1,2.1-1.6,3.7-1.6c0.9,0,1.6,0.1,2.2,0.4c0.6,0.3,1.1,0.7,1.6,1.2
		c0.4,0.5,0.7,1.2,0.9,1.9c0.2,0.8,0.3,1.6,0.3,2.5c0,2-0.4,3.5-1.3,4.6c-0.9,1-2.1,1.6-3.7,1.6c-0.9,0-1.6-0.1-2.2-0.4
		c-0.6-0.3-1.1-0.7-1.6-1.2c-0.4-0.5-0.7-1.2-0.9-1.9C80,157.4,79.9,156.5,79.9,155.6 M82.3,155.6c0,0.6,0.1,1.1,0.2,1.6
		c0.1,0.5,0.3,0.9,0.5,1.3c0.2,0.4,0.5,0.7,0.8,0.9c0.3,0.2,0.7,0.3,1.1,0.3c0.8,0,1.4-0.3,1.9-0.9c0.5-0.7,0.7-1.7,0.7-3.1
		c0-0.6,0-1.1-0.1-1.6c-0.1-0.5-0.2-0.9-0.5-1.3c-0.2-0.4-0.5-0.7-0.8-0.9c-0.3-0.2-0.7-0.3-1.2-0.3c-0.8,0-1.4,0.3-1.9,1
		C82.5,153.2,82.3,154.2,82.3,155.6"/>
	<rect x="94" y="155.7" class="st4" width="4.2" height="1.9"/>
	<polygon class="st4" points="102.7,149.7 109.6,149.7 109.6,151.8 105,151.8 105,154.7 109.3,154.7 109.3,156.8 105,156.8 
		105,161.5 102.7,161.5 	"/>
	<path class="st4" d="M119.6,158.9h-3.6l-0.9,2.6h-2.3l4.3-11.9h1.7l4.3,11.9h-2.4L119.6,158.9z M116.6,157.1h2.5l-0.9-2.6l-0.4-1.9
		h-0.1l-0.4,1.9L116.6,157.1z"/>
	<polygon class="st4" points="135.6,155.4 135.9,153.1 135.8,153.1 135.1,155 132.5,159.4 131.8,159.4 129.2,155 128.4,153.1 
		128.3,153.1 128.6,155.4 128.6,161.5 126.4,161.5 126.4,149.7 128.5,149.7 131.7,155.2 132.2,156.5 132.3,156.5 132.8,155.1 
		135.8,149.7 137.9,149.7 137.9,161.5 135.6,161.5 	"/>
	<rect x="142.7" y="149.7" class="st4" width="2.3" height="11.8"/>
	<polygon class="st4" points="157.3,161.5 149.8,161.5 149.8,149.7 152.1,149.7 152.1,159.4 157.2,159.4 157.2,161.5 	"/>
	<polygon class="st4" points="161.7,157.2 157.8,149.7 160.6,149.7 162.8,154.2 163,155.4 163.1,155.4 163.3,154.1 165.4,149.7 
		167.9,149.7 164.1,157.2 164.1,161.5 161.8,161.5 	"/>
</g>
</svg>
