<?xml version="1.0" encoding="utf-8"?>
<!-- Generator: Adobe Illustrator 21.0.0, SVG Export Plug-In . SVG Version: 6.00 Build 0)  -->
<svg version="1.1" id="Warstwa_1" xmlns="http://www.w3.org/2000/svg" xmlns:xlink="http://www.w3.org/1999/xlink" x="0px" y="0px"
	 viewBox="0 0 200 200" style="enable-background:new 0 0 200 200;" xml:space="preserve">
<style type="text/css">
	.st0{fill:#FF8031;}
	.st1{fill:#80E441;}
	.st2{fill:#60605F;}
</style>
<g>
	<path class="st0" d="M118.6,15.9c6.3,0,11.4,5.1,11.4,11.4c0,6.3-5.1,11.4-11.4,11.4c-6.3,0-11.4-5.1-11.4-11.4
		C107.2,20.9,112.3,15.9,118.6,15.9"/>
	<path class="st0" d="M108.8,0.8c-9.5,8.8-14.9,20.2-18,32c-2.5,9.7-3.8,19.6-4.4,29.6c-1.2,21,0.9,42.5,8.4,62.6
		c4.9,13.3,12.4,26,23.5,36c0.3,0.3,3.9,0.2,5,0.2c1.2-0.1,2.4-0.2,3.5-0.4c-0.2,0,1.6-0.3,1.4-0.4c-16-14.5-24.5-34.3-28.7-54
		c-4.4-20.4-4.6-41.6-1.2-62.2c2.6-15.9,7.7-31.9,20.4-43.9c0.1-0.1-1.6-0.2-1.5-0.2c-1.2-0.1-2.4,0-3.5,0.1
		c-1.2,0.1-2.4,0.2-3.5,0.4C109.8,0.5,109.1,0.6,108.8,0.8"/>
	<path class="st1" d="M182.9,71.1c-0.4,0.4-0.8,0.7-1.2,1.1c-0.1,0.1-0.3,0.2-0.4,0.3c-0.1,0.1-0.3,0.3-0.4,0.4c-1,0.8-2,1.6-3,2.5
		c-2.1,1.7-4.2,3.4-6.3,5c-0.6,0.5-2,1.5-2.9,2.2c-1.2,0.9-2.5,1.8-3.7,2.6c-2.5,1.7-4.9,3.3-7.5,4.9c-9.8,6-20.9,11.2-32.4,12.1
		c-6.4,0.5-12.9-0.5-18.7-3.3c-2.4-1.1-4.4-2.7-6-4.7c0.5,4.4,1.1,8.8,1.9,13.2c3,1.1,6.2,1.6,9.1,1.9c11.4,1,22.7-3.2,32.6-8.4
		c13.1-6.8,24.8-16,35.9-25.7c1.7-1.4,3.4-3.1,4.7-4.9C185.8,68.8,183.1,71,182.9,71.1"/>
	<path class="st1" d="M174.6,41.6c-0.7-0.7-1.6-1.2-2.4-1.8c-1.1-0.7-2.2-1.4-3.3-2c-0.6-0.3-1.4-0.9-2.1-1
		c-10.7-1.4-21.7-0.7-32.3,1.5c-11,2.3-21.7,6.5-30.9,13.1c-1.1,0.8-2.2,1.6-3.2,2.5c-0.5,5.1-0.8,10.3-0.9,15.5
		c12.1-17.6,35-25.7,55.5-27.6c6.6-0.6,13.3-0.5,19.8,0.4C175.4,42.2,174.6,41.6,174.6,41.6"/>
	<path class="st0" d="M54.9,59.6c5.3,0,9.6,4.3,9.6,9.6c0,5.3-4.3,9.6-9.6,9.6c-5.3,0-9.6-4.3-9.6-9.6
		C45.3,63.8,49.6,59.6,54.9,59.6"/>
	<path class="st0" d="M62.9,41.2c7,6.6,11.2,15.1,13.4,23.9c1.9,7.2,2.8,14.7,3.3,22.1c0.9,15.7-0.7,31.7-6.2,46.7
		c-3.6,9.9-9.3,19.4-17.5,26.9c-0.2,0.2-2.9,0.2-3.8,0.1c-0.9-0.1-1.7-0.1-2.6-0.3c0.1,0-1.2-0.2-1.1-0.3
		c12-10.8,18.2-25.7,21.4-40.3c3.3-15.2,3.4-31.1,0.9-46.4c-2-11.9-5.7-23.9-15.3-32.7c-0.1-0.1,1.2-0.2,1.1-0.2
		c0.9,0,1.7,0,2.6,0.1c0.9,0.1,1.7,0.1,2.6,0.3C62.1,41,62.7,41,62.9,41.2"/>
	<path class="st1" d="M64.5,128.1c1.1-3.4,2-6.8,2.8-10.2c0.1-0.3,0.2-0.7,0.2-1c-1.1,2.5-2.7,4.8-4.5,6.9
		c-5.8,6.5-13.8,10.8-21.7,14c-2.1,0.8-4.2,1.6-6.3,2.3c-1.1,0.4-2.2,0.7-3.2,1c-0.8,0.3-2.1,0.6-2.6,0.8c-2,0.6-3.9,1.1-5.8,1.5
		c-0.9,0.3-1.9,0.5-2.8,0.7c-0.1,0-0.3,0.1-0.4,0.1c-0.1,0-0.2,0.1-0.4,0.1c-0.4,0.1-0.8,0.2-1.2,0.3c-0.2,0.1-2.7,0.7-1.2,0.7
		c1.7,0.1,3.4-0.3,5.1-0.6c10.7-2.4,21.4-5.2,31.4-10C57.4,132.8,61.2,130.6,64.5,128.1"/>
	<path class="st1" d="M68.9,92.4c-0.1-2.4-0.2-4.7-0.4-7.1C55.6,86.5,42,81.6,31.3,74.9c-4.2-2.6-8.1-5.7-11.6-9.2
		c-0.3-0.3-0.2,0.4-0.2,0.5c0.2,0.7,0.4,1.4,0.6,2.2c0.3,0.9,0.7,1.8,1,2.7c0.2,0.5,0.4,1.2,0.8,1.5c5.7,5.7,12.6,10.3,19.9,13.7
		c7.6,3.6,15.9,6,24.3,6.2C67.1,92.5,68,92.5,68.9,92.4"/>
	<polygon class="st2" points="1.3,181.1 12.2,181.1 12.2,184.4 4.9,184.4 4.9,188.9 11.7,188.9 11.7,192.2 4.9,192.2 4.9,199.7 
		1.3,199.7 	"/>
	<rect x="19" y="181.1" class="st2" width="3.6" height="18.5"/>
	<polygon class="st2" points="29.3,196.4 37.1,185.5 38.5,184.3 29.3,184.3 29.3,181.1 42.1,181.1 42.1,184.3 34.2,195.4 
		32.9,196.4 42.1,196.4 42.1,199.6 29.3,199.6 29.3,196.4 	"/>
	<path class="st2" d="M50.3,181.1h3.6v13.5c0,0.7-0.1,1.4-0.3,2c-0.2,0.6-0.4,1.2-0.8,1.7c-0.4,0.5-0.8,0.9-1.4,1.2
		c-0.6,0.3-1.2,0.4-2.1,0.4c-0.5,0-1.1-0.1-1.6-0.2c-0.6-0.1-1.1-0.3-1.5-0.5l0.8-3c0.5,0.2,1,0.4,1.5,0.4c0.7,0,1.2-0.3,1.4-0.8
		c0.2-0.6,0.3-1.3,0.3-2.2L50.3,181.1z"/>
	<path class="st2" d="M60.6,190.4c0-3.1,0.7-5.5,2.1-7.1c1.3-1.6,3.3-2.5,5.8-2.5c1.3,0,2.5,0.2,3.4,0.7c1,0.5,1.8,1.1,2.5,2
		c0.7,0.8,1.1,1.9,1.4,3c0.3,1.2,0.5,2.5,0.5,4c0,3.1-0.7,5.5-2.1,7.1c-1.4,1.6-3.3,2.5-5.8,2.5c-1.3,0-2.5-0.2-3.5-0.7
		c-1-0.5-1.8-1.1-2.5-2c-0.7-0.8-1.1-1.9-1.4-3C60.7,193.2,60.6,191.8,60.6,190.4 M64.4,190.4c0,0.9,0.1,1.8,0.3,2.6
		c0.2,0.8,0.4,1.4,0.7,2c0.3,0.6,0.7,1,1.2,1.3c0.5,0.3,1.1,0.5,1.8,0.5c1.3,0,2.3-0.5,3-1.5c0.7-1,1.1-2.6,1.1-4.9
		c0-0.9-0.1-1.7-0.2-2.5c-0.2-0.8-0.4-1.4-0.7-2.1c-0.3-0.6-0.7-1-1.2-1.3c-0.5-0.3-1.1-0.5-1.9-0.5c-1.3,0-2.3,0.5-3,1.5
		C64.8,186.6,64.4,188.2,64.4,190.4"/>
	<rect x="82.7" y="190.5" class="st2" width="6.6" height="3"/>
	<polygon class="st2" points="96.3,181.1 107.3,181.1 107.3,184.4 99.9,184.4 99.9,188.9 106.7,188.9 106.7,192.2 99.9,192.2 
		99.9,199.7 96.3,199.7 	"/>
	<path class="st2" d="M122.9,195.6h-5.7l-1.4,4.1h-3.6l6.7-18.7h2.7l6.7,18.7h-3.8L122.9,195.6z M118.1,192.6h4l-1.4-4.1l-0.6-2.9
		H120l-0.6,2.9L118.1,192.6z"/>
	<polygon class="st2" points="148,190.1 148.5,186.4 148.3,186.4 147.2,189.4 143.2,196.3 142.1,196.3 137.9,189.4 136.7,186.4 
		136.6,186.4 137.1,190.1 137.1,199.7 133.6,199.7 133.6,181.2 136.9,181.2 141.9,189.7 142.7,191.8 142.8,191.8 143.6,189.6 
		148.3,181.2 151.6,181.2 151.6,199.7 148,199.7 	"/>
	<rect x="159.2" y="181.1" class="st2" width="3.6" height="18.5"/>
	<polygon class="st2" points="182,199.6 170.3,199.6 170.3,181.1 173.9,181.1 173.9,196.4 182,196.4 182,199.6 	"/>
	<polygon class="st2" points="189,192.8 182.9,181.2 187.2,181.2 190.6,188.1 191,190.1 191.1,190.1 191.5,188.1 194.8,181.2 
		198.7,181.2 192.7,192.8 192.7,199.7 189.1,199.7 	"/>
</g>
</svg>
