<?xml version="1.0" encoding="utf-8"?>
<!-- Generator: Adobe Illustrator 21.0.0, SVG Export Plug-In . SVG Version: 6.00 Build 0)  -->
<svg version="1.1" id="Warstwa_1" xmlns="http://www.w3.org/2000/svg" xmlns:xlink="http://www.w3.org/1999/xlink" x="0px" y="0px"
	 viewBox="0 0 50 18" style="enable-background:new 0 0 50 18;" xml:space="preserve">
<style type="text/css">
	.st0{fill:#FFFFFF;}
	.st1{fill:#4FA504;}
</style>
<g>
	<path class="st0" d="M18.6,8.9c0-0.8,0.1-1.5,0.4-2c0.3-0.6,0.6-1,1.1-1.4c0.4-0.4,0.9-0.6,1.5-0.8c0.5-0.2,1.1-0.2,1.6-0.2
		c0.3,0,0.6,0,0.8,0c0.2,0,0.4,0,0.6,0.1c0.3,0.1,0.4,0.2,0.4,0.5v1.9c0,0.2-0.1,0.3-0.2,0.4c-0.1,0.1-0.3,0.1-0.4,0.1h-0.7
		c-0.5,0-1,0.2-1.3,0.5c-0.3,0.3-0.5,0.8-0.5,1.4V17c0,0.2-0.1,0.4-0.2,0.5s-0.3,0.1-0.4,0.1h-2.4c-0.1,0-0.2,0-0.3-0.1
		c-0.1-0.1-0.1-0.2-0.1-0.3V8.9z"/>
	<path class="st0" d="M26,1.5c0-0.2,0.1-0.4,0.2-0.5c0.1-0.1,0.3-0.2,0.6-0.2h2.2c0.2,0,0.4,0.1,0.5,0.2c0.1,0.1,0.2,0.3,0.2,0.5
		v1.7c0,0.2-0.1,0.4-0.2,0.5c-0.1,0.1-0.3,0.1-0.5,0.1h-2.1c-0.2,0-0.4,0-0.6-0.1C26.1,3.6,26,3.5,26,3.2V1.5z M26,5.1
		c0-0.1,0-0.2,0.1-0.3c0.1-0.1,0.2-0.1,0.3-0.1h2.4c0.1,0,0.2,0,0.3,0.1c0.1,0.1,0.1,0.2,0.1,0.3v12.1c0,0.1,0,0.2-0.1,0.3
		c-0.1,0.1-0.2,0.1-0.3,0.1h-2.4c-0.3,0-0.4-0.1-0.4-0.4V5.1z"/>
	<path class="st0" d="M36.8,8.4c0-0.1,0-0.3-0.1-0.4c-0.1-0.1-0.1-0.2-0.2-0.3c-0.1-0.1-0.2-0.2-0.3-0.2c-0.1-0.1-0.3-0.1-0.4-0.1
		c-0.2,0-0.3,0-0.5,0.1c-0.1,0.1-0.2,0.2-0.3,0.3c-0.1,0.1-0.2,0.3-0.2,0.4c-0.1,0.1-0.1,0.3-0.1,0.4v8.6c0,0.1,0,0.2-0.1,0.3
		c-0.1,0.1-0.2,0.1-0.5,0.1h-2.3c-0.3,0-0.4-0.1-0.4-0.4V0.7c0-0.2,0.2-0.4,0.4-0.4h2.5c0.3,0,0.4,0.1,0.4,0.4v4.4
		c0.3-0.2,0.6-0.3,1-0.4c0.3-0.1,0.7-0.2,1-0.2c0.5,0,1,0.1,1.4,0.3c0.4,0.2,0.8,0.4,1.1,0.8c0.3,0.3,0.6,0.7,0.7,1.2
		c0.2,0.5,0.3,1,0.3,1.6v8.8c0,0.1,0,0.2-0.1,0.3c-0.1,0.1-0.2,0.1-0.3,0.1h-2.6c-0.1,0-0.2,0-0.3-0.1c-0.1-0.1-0.1-0.2-0.1-0.3V8.4
		z"/>
	<path class="st0" d="M41.4,8.2c0-0.5,0.1-1,0.3-1.5c0.2-0.5,0.5-0.9,0.9-1.2c0.4-0.3,0.9-0.6,1.4-0.8c0.5-0.2,1.1-0.3,1.7-0.3
		c0.6,0,1.2,0.1,1.7,0.3c0.5,0.2,0.9,0.5,1.3,0.8c0.4,0.3,0.7,0.7,0.9,1.2c0.2,0.5,0.3,1,0.3,1.5v3.1c0,0.1,0,0.3-0.1,0.3
		c-0.1,0.1-0.2,0.1-0.4,0.1h-4.7v2c0,0.1,0,0.3,0.1,0.4c0.1,0.1,0.1,0.2,0.2,0.3c0.1,0.1,0.2,0.2,0.4,0.2c0.1,0.1,0.3,0.1,0.5,0.1
		c0.2,0,0.3,0,0.5-0.1c0.1-0.1,0.3-0.1,0.3-0.2c0.1-0.1,0.2-0.2,0.2-0.3c0-0.1,0.1-0.3,0.1-0.4v-0.3c0-0.1,0-0.1,0.1-0.2
		c0.1-0.1,0.1-0.1,0.2-0.1h2.4c0.1,0,0.2,0,0.2,0.1c0.1,0,0.1,0.1,0.1,0.3v0.4c0,0.5-0.1,1-0.3,1.5c-0.2,0.5-0.5,0.9-0.9,1.2
		c-0.4,0.3-0.8,0.6-1.3,0.8c-0.5,0.2-1.1,0.3-1.7,0.3c-0.6,0-1.2-0.1-1.7-0.3c-0.5-0.2-1-0.5-1.4-0.8c-0.4-0.3-0.7-0.8-0.9-1.2
		c-0.2-0.5-0.3-1-0.3-1.5V8.2z M44.8,9.6H47V8.2c0-0.3-0.1-0.6-0.3-0.8c-0.2-0.2-0.5-0.3-0.8-0.3c-0.2,0-0.3,0-0.5,0.1
		c-0.1,0.1-0.3,0.1-0.4,0.2c-0.1,0.1-0.2,0.2-0.2,0.4c-0.1,0.1-0.1,0.3-0.1,0.4V9.6z"/>
	<path class="st1" d="M4.1,9.8c0,0.5-0.4,0.9-0.9,0.9c-0.5,0-0.9-0.4-0.9-0.9c0-0.5,0.4-0.9,0.9-0.9C3.7,8.9,4.1,9.3,4.1,9.8"/>
	<path class="st1" d="M6.5,9.8c0,0.5-0.4,0.9-0.9,0.9c-0.5,0-0.9-0.4-0.9-0.9c0-0.5,0.4-0.9,0.9-0.9C6.1,8.9,6.5,9.3,6.5,9.8"/>
	<path class="st1" d="M8.8,9.8c0,0.5-0.4,0.9-0.9,0.9C7.4,10.7,7,10.3,7,9.8c0-0.5,0.4-0.9,0.9-0.9C8.4,8.9,8.8,9.3,8.8,9.8"/>
	<path class="st1" d="M8.8,12.1c0,0.5-0.4,0.9-0.9,0.9C7.4,13,7,12.6,7,12.1c0-0.5,0.4-0.9,0.9-0.9C8.4,11.2,8.8,11.6,8.8,12.1"/>
	<path class="st1" d="M8.8,7.4c0,0.5-0.4,0.9-0.9,0.9C7.4,8.3,7,7.9,7,7.4c0-0.5,0.4-0.9,0.9-0.9C8.4,6.5,8.8,6.9,8.8,7.4"/>
	<path class="st1" d="M6.5,12.1c0,0.5-0.4,0.9-0.9,0.9c-0.5,0-0.9-0.4-0.9-0.9c0-0.5,0.4-0.9,0.9-0.9C6.1,11.2,6.5,11.6,6.5,12.1"/>
	<path class="st1" d="M6.5,7.4c0,0.5-0.4,0.9-0.9,0.9c-0.5,0-0.9-0.4-0.9-0.9c0-0.5,0.4-0.9,0.9-0.9C6.1,6.5,6.5,6.9,6.5,7.4"/>
	<path class="st1" d="M4.1,12.1c0,0.5-0.4,0.9-0.9,0.9c-0.5,0-0.9-0.4-0.9-0.9c0-0.5,0.4-0.9,0.9-0.9C3.7,11.2,4.1,11.6,4.1,12.1"/>
	<path class="st1" d="M4.1,7.4c0,0.5-0.4,0.9-0.9,0.9c-0.5,0-0.9-0.4-0.9-0.9c0-0.5,0.4-0.9,0.9-0.9C3.7,6.5,4.1,6.9,4.1,7.4"/>
	<path class="st1" d="M1.8,9.8c0,0.5-0.4,0.9-0.9,0.9C0.4,10.7,0,10.3,0,9.8c0-0.5,0.4-0.9,0.9-0.9C1.4,8.9,1.8,9.3,1.8,9.8"/>
	<path class="st1" d="M1.8,12.1c0,0.5-0.4,0.9-0.9,0.9C0.4,13,0,12.6,0,12.1c0-0.5,0.4-0.9,0.9-0.9C1.4,11.2,1.8,11.6,1.8,12.1"/>
	<path class="st1" d="M1.8,7.4c0,0.5-0.4,0.9-0.9,0.9C0.4,8.3,0,7.9,0,7.4c0-0.5,0.4-0.9,0.9-0.9C1.4,6.5,1.8,6.9,1.8,7.4"/>
	<path class="st1" d="M8.8,14.3c0,0.5-0.4,0.9-0.9,0.9c-0.5,0-0.9-0.4-0.9-0.9c0-0.5,0.4-0.9,0.9-0.9C8.4,13.4,8.8,13.8,8.8,14.3"/>
	<path class="st1" d="M8.8,5.1C8.8,5.6,8.4,6,7.9,6C7.4,6,7,5.6,7,5.1c0-0.5,0.4-0.9,0.9-0.9C8.4,4.2,8.8,4.6,8.8,5.1"/>
	<path class="st1" d="M11.2,9.8c0,0.5-0.4,0.9-0.9,0.9c-0.5,0-0.9-0.4-0.9-0.9c0-0.5,0.4-0.9,0.9-0.9C10.8,8.9,11.2,9.3,11.2,9.8"/>
	<path class="st1" d="M11.2,12.1c0,0.5-0.4,0.9-0.9,0.9c-0.5,0-0.9-0.4-0.9-0.9c0-0.5,0.4-0.9,0.9-0.9
		C10.8,11.2,11.2,11.6,11.2,12.1"/>
	<path class="st1" d="M11.2,7.4c0,0.5-0.4,0.9-0.9,0.9c-0.5,0-0.9-0.4-0.9-0.9c0-0.5,0.4-0.9,0.9-0.9C10.8,6.5,11.2,6.9,11.2,7.4"/>
	<path class="st1" d="M13.5,9.8c0,0.5-0.4,0.9-0.9,0.9c-0.5,0-0.9-0.4-0.9-0.9c0-0.5,0.4-0.9,0.9-0.9C13.1,8.9,13.5,9.3,13.5,9.8"/>
	<path class="st1" d="M15.8,9.8c0,0.5-0.4,0.9-0.9,0.9c-0.5,0-0.9-0.4-0.9-0.9c0-0.5,0.4-0.9,0.9-0.9C15.4,8.9,15.8,9.3,15.8,9.8"/>
	<path class="st1" d="M8.8,16.7c0,0.5-0.4,0.9-0.9,0.9c-0.5,0-0.9-0.4-0.9-0.9c0-0.5,0.4-0.9,0.9-0.9C8.4,15.8,8.8,16.2,8.8,16.7"/>
	<path class="st1" d="M11.2,14.5c0,0.5-0.4,0.9-0.9,0.9c-0.5,0-0.9-0.4-0.9-0.9c0-0.5,0.4-0.9,0.9-0.9C10.8,13.6,11.2,14,11.2,14.5"
		/>
	<path class="st1" d="M13.5,12.1c0,0.5-0.4,0.9-0.9,0.9c-0.5,0-0.9-0.4-0.9-0.9c0-0.5,0.4-0.9,0.9-0.9
		C13.1,11.2,13.5,11.6,13.5,12.1"/>
	<path class="st1" d="M8.8,2.8c0,0.5-0.4,0.9-0.9,0.9C7.4,3.7,7,3.3,7,2.8c0-0.5,0.4-0.9,0.9-0.9C8.4,1.9,8.8,2.3,8.8,2.8"/>
	<path class="st1" d="M11.2,5.1c0,0.5-0.4,0.9-0.9,0.9C9.8,6,9.4,5.6,9.4,5.1c0-0.5,0.4-0.9,0.9-0.9C10.8,4.2,11.2,4.6,11.2,5.1"/>
	<path class="st1" d="M13.5,7.4c0,0.5-0.4,0.9-0.9,0.9c-0.5,0-0.9-0.4-0.9-0.9c0-0.5,0.4-0.9,0.9-0.9C13.1,6.5,13.5,6.9,13.5,7.4"/>
</g>
</svg>
