<?xml version="1.0" encoding="utf-8"?>
<!-- Generator: Adobe Illustrator 21.0.0, SVG Export Plug-In . SVG Version: 6.00 Build 0)  -->
<svg version="1.1" id="Warstwa_1" xmlns="http://www.w3.org/2000/svg" xmlns:xlink="http://www.w3.org/1999/xlink" x="0px" y="0px"
	 viewBox="0 0 200 200" style="enable-background:new 0 0 200 200;" xml:space="preserve">
<style type="text/css">
	.st0{fill:#EFBBA5;}
	.st1{fill:#ECA599;}
	.st2{fill:#0075FF;}
	.st3{fill:#2052DF;}
	.st4{fill:#F1C6B3;}
	.st5{fill:#D37A3D;}
	.st6{fill:#B65423;}
</style>
<g>
	<path class="st0" d="M184.8,89c-14.6-33.9-47.9-55.7-84.7-55.7h-0.4c-37,0.2-70.2,22.3-84.6,56.4c-3.6,8.6-2.7,18.3,2.5,26.1
		c5.2,7.8,13.8,12.4,23.2,12.4h0.1l118.6-0.5c9.4,0,18-4.8,23.2-12.6C187.7,107.2,188.5,97.5,184.8,89"/>
	<path class="st1" d="M184.8,89.1c-14.6-33.9-47.9-55.7-84.7-55.7c-0.1,0-0.3,0-0.4,0c-1.5,0-3,0.1-4.4,0.1
		c34.9,1.8,65.9,23.2,79.9,55.5c3.7,8.5,2.8,18.3-2.3,26.1c-5.1,7.9-13.8,12.6-23.2,12.6H39.4c0.5,0.5,0.9,0.5,1.4,0.4h0.1h118.6
		c9.4-0.5,18-5.2,23.2-13C187.7,107.3,188.5,97.6,184.8,89.1"/>
	<path class="st2" d="M152.4,72.9c-14-13.9-32.6-21.5-52.3-21.5h-0.3c-19.9,0.1-38.5,7.9-52.5,22c-14,14.1-21.6,32.8-21.5,52.7
		c0.1,19.9,7.9,38.5,22,52.5c14,13.9,32.6,21.5,52.3,21.5h0.3c41-0.2,74.2-33.7,74-74.7C174.4,105.5,166.5,86.8,152.4,72.9"/>
	<path class="st3" d="M152.4,72.9c-14-13.9-32.6-21.5-52.3-21.5h-0.3c-1.5,0-3,0.1-4.5,0.2c17.9,1.1,34.6,8.6,47.5,21.4
		c14.1,14,21.9,32.6,22,52.5c0.2,39.5-30.6,72-69.5,74.5c1.6,0.1,3.2,0.2,4.9,0.2h0.3c41-0.2,74.2-33.7,74-74.7
		C174.4,105.5,166.5,86.8,152.4,72.9"/>
	<path class="st4" d="M63.5,35.7c0,0.3,0,0.6,0,1C63.5,56.7,79.8,73,99.9,73c20.1,0,36.4-16.3,36.4-36.4c0-0.3,0-0.6,0-1H63.5z"/>
	<path class="st3" d="M153.2,120.4L153.2,120.4c-1.8,0-3.2-1.5-3.2-3.2c0.3-14.1-5.8-27.4-16.6-36.4c-1.3-1.1-1.5-3.1-0.4-4.4
		c1.1-1.3,3.1-1.5,4.4-0.4c12.3,10.3,19.2,25.4,18.9,41.4C156.3,119,154.9,120.4,153.2,120.4"/>
	<path class="st5" d="M99.9,0C79.8,0,63.5,16.3,63.5,36.4c0,1.8,1.4,3.2,3.2,3.2h66.5c1.8,0,3.2-1.4,3.2-3.2
		C136.3,16.3,120,0,99.9,0"/>
	<path class="st1" d="M99.9,0.1c-1.6,0-3.3,0.1-4.8,0.3c17.8,2.4,31.6,17.7,31.6,36.1c0,18.4-13.8,33.7-31.6,36.1
		c1.6,0.2,3.2,0.3,4.8,0.3c20.1,0,36.4-16.3,36.4-36.4S120,0.1,99.9,0.1"/>
	<path class="st6" d="M99.9,0c-1.6,0-3.3,0.1-4.8,0.3c17.8,2.4,31.6,17.7,31.6,36.1c0,1.7-1.4,3.2-3.2,3.2h9.7
		c1.8,0,3.2-1.4,3.2-3.2C136.3,16.3,120,0,99.9,0"/>
</g>
</svg>
