<?xml version="1.0" encoding="utf-8"?>
<!-- Generator: Adobe Illustrator 21.0.0, SVG Export Plug-In . SVG Version: 6.00 Build 0)  -->
<svg version="1.1" id="Warstwa_1" xmlns="http://www.w3.org/2000/svg" xmlns:xlink="http://www.w3.org/1999/xlink" x="0px" y="0px"
	 viewBox="0 0 200 200" style="enable-background:new 0 0 200 200;" xml:space="preserve">
<style type="text/css">
	.st0{fill:#FFE6DD;}
	.st1{fill:#F8D7CC;}
	.st2{fill:#F7BACF;}
	.st3{fill:#525252;}
	.st4{fill:#FFF4F1;}
	.st5{fill:#F3AAC2;}
	.st6{fill:#EF94B3;}
	.st7{fill:#FBE3EB;}
	.st8{fill:#E46161;}
	.st9{fill:#D55858;}
	.st10{fill:#BE4B4B;}
	.st11{fill:#F19B9B;}
</style>
<g>
	<path class="st0" d="M143.4,181.2H56.6c-20.8,0-37.8-16.9-37.9-37.7c-12-1.7-20.3-12.8-18.5-24.8c1.4-9.6,9-17.2,18.6-18.5
		C20.3,58.5,54.8,25,96.9,25h6.2c42.1,0,76.5,33.5,78.1,75.2c12,1.7,20.3,12.8,18.6,24.7c-1.4,9.6-8.9,17.2-18.5,18.6
		C181.1,164.4,164.2,181.2,143.4,181.2"/>
	<path class="st1" d="M181.2,100.2c-0.5-12.5-3.9-24.7-10.1-35.5c0.2,2.9,0.4,5.9,0.4,8.9c0,52.1-36,95.8-84.5,107.6h56.4
		c20.9,0,37.8-16.9,37.9-37.7c12-1.7,20.3-12.8,18.5-24.8C198.4,109.1,190.8,101.6,181.2,100.2"/>
	<path class="st2" d="M118.7,168.7H81.3C64,168.7,50,156.1,50,140.6s14-28.1,31.2-28.1h0.9L83,113c10.3,6.9,23.7,6.9,34,0l0.8-0.5
		h0.9c17.2,0,31.2,12.6,31.2,28.1S136,168.7,118.7,168.7"/>
	<path class="st3" d="M100,34.4c-1.7,0-3.1-1.4-3.1-3.1V25c0-3.5-0.9-6.9-2.8-9.8c-2-3-4.8-5.3-8-6.8c-1.6-0.7-2.3-2.6-1.6-4.1
		c0.5-1.1,1.6-1.8,2.9-1.8c0.4,0,0.9,0.1,1.3,0.3c4.4,1.9,8.1,5.1,10.7,9.1c2.5,3.9,3.8,8.5,3.8,13.2v6.3
		C103.1,33,101.7,34.4,100,34.4 M75.1,6.3c-1.7,0-3.1-1.4-3.1-3.1C72,1.4,73.4,0,75.1,0h0c1.7,0,3.1,1.4,3.1,3.1
		C78.3,4.9,76.9,6.3,75.1,6.3L75.1,6.3z"/>
	<path class="st3" d="M153.1,104.7c-1.7,0-3.1-1.4-3.1-3.1c0-2.6-2.1-4.7-4.7-4.7c-2.6,0-4.7,2.1-4.7,4.7c0,1.7-1.4,3.1-3.1,3.1
		c-1.7,0-3.1-1.4-3.1-3.1c0-6,4.9-10.9,10.9-10.9c6,0,10.9,4.9,10.9,10.9C156.2,103.3,154.8,104.7,153.1,104.7"/>
	<path class="st3" d="M62.5,104.7c-1.7,0-3.1-1.4-3.1-3.1c0-2.6-2.1-4.7-4.7-4.7c-2.6,0-4.7,2.1-4.7,4.7c0,1.7-1.4,3.1-3.1,3.1
		c-1.7,0-3.1-1.4-3.1-3.1c0-6,4.9-10.9,10.9-10.9c6,0,10.9,4.9,10.9,10.9C65.6,103.3,64.2,104.7,62.5,104.7"/>
	<path class="st4" d="M35.9,121.9c4.3,0,7.8,3.5,7.8,7.8s-3.5,7.8-7.8,7.8c-4.3,0-7.8-3.5-7.8-7.8S31.6,121.9,35.9,121.9"/>
	<path class="st4" d="M164.1,121.9c4.3,0,7.8,3.5,7.8,7.8s-3.5,7.8-7.8,7.8c-4.3,0-7.8-3.5-7.8-7.8S159.7,121.9,164.1,121.9"/>
	<path class="st5" d="M140.3,120.3c-3.2,27.6-26.5,48.5-54.3,48.5h32.8c17.2,0,31.2-12.6,31.2-28.1
		C150,132.6,146.3,125.4,140.3,120.3"/>
	<path class="st6" d="M112.2,200H87.8c-8.6,0-15.6-7-15.6-15.6c0-0.4,0-0.8,0-1.2l1.1-14.7c1.1-14.7,14-25.7,28.8-24.6
		c13.1,1,23.6,11.5,24.6,24.6l1.1,14.7c0.7,8.6-5.8,16.1-14.4,16.8C113,200,112.6,200,112.2,200 M100,150
		c-10.7,0-19.6,8.3-20.4,18.9l-1.1,14.7c-0.4,5.2,3.5,9.7,8.6,10.1c0.2,0,0.5,0,0.7,0h24.5c5.2,0,9.4-4.2,9.4-9.4c0-0.2,0-0.5,0-0.7
		l-1.1-14.7C119.6,158.3,110.7,150,100,150"/>
	<path class="st5" d="M100,131.2c10.4,0,18.7,8.4,18.7,18.7c0,10.4-8.4,18.7-18.7,18.7c-10.4,0-18.7-8.4-18.7-18.7
		C81.3,139.6,89.6,131.2,100,131.2"/>
	<path class="st7" d="M93.7,137.5c3.5,0,6.2,2.8,6.2,6.2c0,3.5-2.8,6.3-6.2,6.3c-3.5,0-6.2-2.8-6.2-6.3
		C87.5,140.3,90.3,137.5,93.7,137.5"/>
	<path class="st6" d="M134.4,131.2c1.7,0,3.1,1.4,3.1,3.1c0,1.7-1.4,3.1-3.1,3.1c-1.7,0-3.1-1.4-3.1-3.1
		C131.2,132.6,132.6,131.2,134.4,131.2"/>
	<path class="st6" d="M134.4,143.7c1.7,0,3.1,1.4,3.1,3.1c0,1.7-1.4,3.1-3.1,3.1c-1.7,0-3.1-1.4-3.1-3.1
		C131.2,145.1,132.6,143.7,134.4,143.7"/>
	<path class="st6" d="M65.6,131.2c1.7,0,3.1,1.4,3.1,3.1c0,1.7-1.4,3.1-3.1,3.1c-1.7,0-3.1-1.4-3.1-3.1
		C62.5,132.6,63.9,131.2,65.6,131.2"/>
	<path class="st6" d="M65.6,143.7c1.7,0,3.1,1.4,3.1,3.1c0,1.7-1.4,3.1-3.1,3.1c-1.7,0-3.1-1.4-3.1-3.1
		C62.5,145.1,63.9,143.7,65.6,143.7"/>
	<path class="st6" d="M109.8,134c5.4,8.8,2.6,20.4-6.2,25.8c-6,3.7-13.5,3.7-19.5,0c5.4,8.8,16.9,11.6,25.8,6.3
		c8.8-5.4,11.6-16.9,6.3-25.8C114.5,137.7,112.3,135.5,109.8,134"/>
	<path class="st8" d="M127.3,62.5c-1.2,0-2.4-0.2-3.5-0.6L100,53.2l-23.9,8.7c-5.3,1.9-11.1-0.8-13-6.1c-0.4-1.1-0.6-2.3-0.6-3.5
		V28.7c0-5.6,4.5-10.2,10.2-10.2c1.2,0,2.4,0.2,3.5,0.6l23.9,8.7l23.9-8.7c5.3-1.9,11.1,0.8,13,6.1c0.4,1.1,0.6,2.3,0.6,3.5v23.7
		C137.5,57.9,133,62.5,127.3,62.5L127.3,62.5L127.3,62.5z"/>
	<path class="st9" d="M100,56.1c-5.2,0-9.4-4.2-9.4-9.4V34.3c0-5.2,4.2-9.4,9.4-9.4c5.2,0,9.4,4.2,9.4,9.4v12.5
		C109.4,51.9,105.2,56.1,100,56.1"/>
	<path class="st10" d="M91.2,49.9c1.7,4.9,7.1,7.4,12,5.7c3.7-1.3,6.2-4.9,6.2-8.8V34.3c0-0.6-0.1-1.2-0.2-1.9
		C107.9,41.7,100.5,48.9,91.2,49.9"/>
	<path class="st9" d="M134.2,21.2c-1.5,15.6-11.5,29.1-25.9,35l15.6,5.7c5.3,1.9,11.1-0.8,13-6.1c0.4-1.1,0.6-2.3,0.6-3.5V28.7
		C137.5,25.8,136.3,23.1,134.2,21.2"/>
	<path class="st11" d="M73.4,25c2.6,0,4.7,2.1,4.7,4.7c0,2.6-2.1,4.7-4.7,4.7c-2.6,0-4.7-2.1-4.7-4.7C68.8,27.1,70.8,25,73.4,25"/>
</g>
</svg>
