<?xml version="1.0" encoding="utf-8"?>
<!-- Generator: Adobe Illustrator 21.0.0, SVG Export Plug-In . SVG Version: 6.00 Build 0)  -->
<svg version="1.1" id="Warstwa_1" xmlns="http://www.w3.org/2000/svg" xmlns:xlink="http://www.w3.org/1999/xlink" x="0px" y="0px"
	 viewBox="0 0 200 200" style="enable-background:new 0 0 200 200;" xml:space="preserve">
<style type="text/css">
	.st0{fill:#FFCDBE;}
</style>
<path class="st0" d="M62.8,106.4c-2.9,7.6-4.4,15.7-4.4,23.9c0,13.9,4.3,27.3,12.4,38.6l2.3,3.2c1.8,2.5,4.7,4,7.8,4
	c2.9,0,5.8,1.4,7.5,3.8l1.7,2.2c3.2,4.2,8,7,13.2,7.6l14.8,1.6c3.4,0.4,6.3,2.4,7.8,5.4l1.6,3.2l6-4c5.1-3.4,8.1-9,8.1-15.1
	c0-6.1-3-11.7-8.1-15.1l-2.2-1.5l-0.2-0.5c-2.1-4.3-6.4-6.9-11.2-6.9c-2.1,0-4,0.6-5.8,1.5c-0.9-1.6-2.1-3.1-3.4-4.5l2.7-2.7
	c1.7-1.7,2.6-3.9,2.6-6.3v-1.5c0-4.9-4-8.9-8.9-8.9c-0.7,0-1.4,0.1-2.2,0.3l-7.6,1.9c-0.2-2-0.4-4-0.4-6l8.2-1.6
	c4.5-0.9,7.7-4.9,7.7-9.4v-1.2c0-5.3-4.3-9.6-9.6-9.6H99c0.3-1.2,0.6-2.5,1-3.7l11.6-1.9c4.4-0.7,7.6-4.5,7.6-9c0-1.4-0.3-2.8-1-4.1
	l-0.9-1.9c-1.6-3.1-4.7-5-8.2-5h-3.7c0.2-1.2,0.3-2.4,0.4-3.6l9.1-1.9c4.3-0.9,7.4-4.7,7.4-9.1c0-1.4-0.3-2.9-1-4.1l-0.9-1.8
	c-1.6-3.2-4.8-5.1-8.3-5.1h-6.7c-0.3-2.5-0.7-4.9-1.3-7.4l5.1-1.3c3.9-1,6.6-4.4,6.6-8.5v-3c0-4.8-3.9-8.7-8.7-8.7
	c-0.9,0-1.9,0.2-2.8,0.5l-6.2,2.1c-0.6-1.4-1.3-2.8-2-4.2l-1.5-3.1l8.4-3.3c3.9-1.6,6.4-5.3,6.4-9.5c0-1.6-0.4-3.2-1.1-4.6l-0.6-1.2
	C106.2,2.1,102.8,0,99,0c-2.1,0-4.3,0.7-6,2l-8,6c-1.7-1-3.6-1.6-5.7-1.6c-1.7,0-3.3,0.4-4.8,1.1l-6.8,3.4
	c-3.8,1.9-6.2,5.8-6.2,10.1c0,1.3,0.2,2.6,0.7,3.9l9.1,25.1c2,5.5,3,11.2,3,17c0,6.1-1.1,12.2-3.3,17.9L62.8,106.4z M90.6,30
	c0.4,0.8,0.8,1.7,1.2,2.5L74.9,41l-2.7-7.5l16.1-8.1L90.6,30z M64.8,130.2c0-1.8,0.1-3.6,0.2-5.3h25.5c0,0.9-0.1,1.7-0.1,2.6
	c0,1.4,0.1,2.7,0.1,4.1l-25.6,2.6C64.8,132.8,64.8,131.5,64.8,130.2 M91.9,111.5c-0.4,2.3-0.8,4.6-1,6.9H66c0.6-3.2,1.5-6.4,2.7-9.5
	L91.9,111.5z M91,138c0.2,1.4,0.4,2.9,0.7,4.3l-23.8,7.1c-1-2.9-1.7-5.9-2.3-8.9L91,138z M77.4,47.8L77.1,47l17.1-8.6
	c1,2.7,1.9,5.5,2.6,8.3l-18,6C78.5,51.1,78,49.4,77.4,47.8 M80.6,71.8L99.9,68c0,0.6,0.1,1.2,0.1,1.8c0,2.4-0.1,4.7-0.3,7.1H79.9
	C80.2,75.2,80.4,73.5,80.6,71.8 M99.6,61.5l-18.9,3.8c-0.1-2.1-0.2-4.1-0.5-6.2L98.4,53C98.9,55.8,99.3,58.7,99.6,61.5 M77,87.2
	c0.5-1.3,0.9-2.6,1.3-3.9h20.6c-0.4,2.7-1,5.3-1.6,7.9l-20.9-2.3L77,87.2z M95.6,97.4l-1.6,5.3c-0.3,0.9-0.4,1.7-0.7,2.6L71,102.8
	l3-7.8L95.6,97.4z M70.3,155.4l22.7-6.8l0.2,0.8l-17.7,15.1C73.5,161.6,71.8,158.5,70.3,155.4 M104,183.3c-3.5-0.4-6.7-2.2-8.8-5
	l-1.7-2.2c-3-4-7.7-6.3-12.7-6.3c-0.4,0-0.9-0.1-1.3-0.3l18-15.4l1.4,0.3c4.5,1.1,8.1,4.1,10,8.2l-3.4,3.4c-1.5,1.5-2.4,3.6-2.4,5.8
	c0,4.1,3,7.5,7,8.1l2.3,0.3c3.9,0.6,7.2,2.6,9.6,5.4c-1-0.3-2.1-0.6-3.2-0.7L104,183.3z M125.3,166.7l1,2l3.7,2.4
	c3.3,2.2,5.2,5.8,5.2,9.8c0,3.4-1.5,6.6-4,8.8c-2.2-8.2-9.2-14.6-17.8-15.8l-2.3-0.3c-0.9-0.1-1.5-0.9-1.5-1.8
	c0-0.5,0.2-0.9,0.5-1.3l4.9-4.9l0.5-0.5c1.1-1.1,2.7-1.8,4.3-1.8C122.2,163.3,124.3,164.6,125.3,166.7 M106.5,141
	c1.6-0.4,3.1,0.8,3.1,2.4v1.5c0,0.7-0.3,1.3-0.7,1.8l-3.4,3.4c-1.5-0.8-3.2-1.5-5-1.9l-1.1-0.3l-0.3-1c-0.3-1.3-0.6-2.5-0.8-3.8
	L106.5,141z M103.2,115.3c1.8,0,3.2,1.4,3.2,3.2v1.2c0,1.5-1.1,2.8-2.6,3.1l-6.9,1.4c0.1-3,0.4-5.9,0.8-8.9H103.2z M109.2,89.7
	c1,0,2,0.6,2.4,1.5l0.9,1.9c0.2,0.4,0.3,0.8,0.3,1.2c0,1.3-1,2.5-2.3,2.7l-8.5,1.4l0.4-1.2c0.7-2.5,1.4-4.9,1.9-7.5H109.2z
	 M112.3,64c1.1,0,2.1,0.6,2.6,1.6l0.9,1.8c0.2,0.4,0.3,0.8,0.3,1.3c0,1.4-1,2.5-2.3,2.8l-7.4,1.5c0-1.1,0.1-2.2,0.1-3.2
	c0-1.9-0.1-3.8-0.2-5.7H112.3z M106.6,35.3c1.4-0.5,3,0.7,3,2.2v3c0,1.1-0.7,2-1.7,2.2l-5,1.3c-0.6-2.2-1.3-4.5-2.1-6.7L106.6,35.3z
	 M96.9,7.1c1.7-1.3,4.3-0.6,5.3,1.2l0.6,1.2c0.3,0.5,0.4,1.1,0.4,1.7c0,1.6-0.9,3-2.4,3.5l-8.9,3.5l-2.7-5.5L96.9,7.1z M70.7,16.6
	l6.8-3.4c2.1-1,4.7-0.1,5.8,1.9l2.3,4.5L70,27.4l-1.7-4.8C68.1,22.1,68,21.6,68,21C68,19.1,69,17.5,70.7,16.6"/>
</svg>
