<?xml version="1.0" encoding="utf-8"?>
<!-- Generator: Adobe Illustrator 21.0.0, SVG Export Plug-In . SVG Version: 6.00 Build 0)  -->
<svg version="1.1" id="Warstwa_1" xmlns="http://www.w3.org/2000/svg" xmlns:xlink="http://www.w3.org/1999/xlink" x="0px" y="0px"
	 viewBox="0 0 200 200" style="enable-background:new 0 0 200 200;" xml:space="preserve">
<style type="text/css">
	.st0{fill:#FCE8D0;}
	.st1{fill:#FF7B79;}
	.st2{fill:#A7E8A6;}
	.st3{fill:#A0C8FF;}
	.st4{fill:#FFDA8F;}
	.st5{fill:#EEFAFF;}
</style>
<g>
	<path class="st0" d="M183.8,105.7c4.3,4.3,2.6,11.5-3.2,13.5l-12.3,4l4.4,9.9c2.1,4.1,0.3,9.1-3.9,11l-3.5,1.6
		c0.6,0.6,1.4,1.4,1.4,1.4c3.2,3.2,3.2,8.3,0,11.5l-2.4,2.4c0,9-7.3,16.3-16.3,16.3h-16.3c-11.2,0-20.3,11.5-20.3,22.8h-65
		c8.1-56.9-32.5-69.9-32.5-126.8C13.8,32.8,46.6,0,87,0c40.4,0,73.2,32.8,73.2,73.2c0,5.2,2.1,10.2,5.7,13.9L183.8,105.7z"/>
	<path class="st1" d="M111.4,73.2L87,97.6v16.3c22.5,0,40.7-18.2,40.7-40.7H111.4z"/>
	<path class="st2" d="M87,32.5l0,16.3l24.4,24.4h16.3C127.6,50.7,109.4,32.5,87,32.5"/>
	<path class="st3" d="M62.6,73.2H46.3c0,22.5,18.2,40.7,40.7,40.7V97.6L62.6,73.2z"/>
	<path class="st4" d="M87,32.5c-22.5,0-40.7,18.2-40.7,40.7h16.3L87,48.8V32.5L87,32.5z"/>
	<path class="st5" d="M87,48.8c13.5,0,24.4,10.9,24.4,24.4c0,13.5-10.9,24.4-24.4,24.4c-13.5,0-24.4-10.9-24.4-24.4
		C62.6,59.7,73.5,48.8,87,48.8"/>
</g>
</svg>
