<?xml version="1.0" encoding="utf-8"?>
<!-- Generator: Adobe Illustrator 21.0.0, SVG Export Plug-In . SVG Version: 6.00 Build 0)  -->
<svg version="1.1" id="Warstwa_1" xmlns="http://www.w3.org/2000/svg" xmlns:xlink="http://www.w3.org/1999/xlink" x="0px" y="0px"
	 viewBox="0 0 200 200" style="enable-background:new 0 0 200 200;" xml:space="preserve">
<style type="text/css">
	.st0{fill:#4B5165;}
	.st1{fill:#FFD2BC;}
	.st2{fill:#FFBD9C;}
	.st3{fill:#8DAEE1;}
	.st4{fill:#7C92DC;}
	.st5{fill:#ECA0AA;}
</style>
<g>
	<path class="st0" d="M103.4,30.4C99.9,22.5,87.2,8,73.4,0.7C69.9-1.2,65.6,1,65,4.9c-0.3,1.7-0.4,3.2-0.2,3.9
		c-12.2-3.3-23.9,3.8-35.8,8c-1.1,0.4-2,1.3-2.4,2.4c-4.2,11.8-11.3,23.6-8,35.8c-0.7-0.2-2.2,0-3.9,0.2c-3.9,0.6-6.1,4.9-4.2,8.4
		c7.4,13.8,21.8,26.6,29.7,30L103.4,30.4z"/>
	<path class="st1" d="M189.9,186.4c-1.5-7.7-17.8-52.3-24.1-65.6c1-8-1-15.5-6.3-20.8c-10.6-10.6-30.3-8.1-44,5.6
		c-13.7,13.7-16.2,33.4-5.6,44c0.2,0.2,0.4,0.3,0.5,0.5c-7.5,13.8-15.9,30.9-17.2,33.5c-2.8,5.6-0.4,12.4,5.2,15.2
		c5.6,2.8,12.4,0.4,15.2-5.2c3.8-7.8,13.3-26.7,19.8-38.1c6.3-1.3,12.8-4.5,18.4-9.5c6.6,17,15,40.8,15.9,44.8
		c1.2,6.2,7.2,10.1,13.4,8.9C187.2,198.5,191.2,192.6,189.9,186.4"/>
	<path class="st0" d="M187.6,178.3c-5.1-15.7-16.6-46.8-21.7-57.5c1-8-1-15.5-6.3-20.8c-10.6-10.6-30.3-8.1-44,5.6
		c-13.7,13.7-16.2,33.4-5.6,44c0.2,0.2,0.4,0.3,0.5,0.5c-4.7,8.6-9.7,18.4-13.1,25.3c4.4,1.1,15,5,20.2,10.4
		c4.6-9.1,11.1-21.8,15.9-30.3c6.3-1.3,12.8-4.5,18.4-9.5c5,12.8,10.9,29.3,13.9,38.5C169.2,180.7,180.5,176.9,187.6,178.3"/>
	<path class="st1" d="M77.2,169.4c-3.4,5.4-10.5,7-15.9,3.6c-5.4-3.4-7-10.5-3.6-15.9c3.8-6,19.7-46.3,20.5-53
		c0.7-6.3,6.4-10.8,12.7-10.1c6.3,0.7,10.8,6.4,10.1,12.7C99.7,118,82.1,161.5,77.2,169.4"/>
	<path class="st2" d="M126.8,85.5c-4.6,4.4-11.9,4.2-16.3-0.4c-4.4-4.6-4.2-11.9,0.4-16.3c4.6-4.4,26.3-34.1,33.9-46.9
		c3.2-5.5,10.3-7.3,15.8-4c5.5,3.2,7.3,10.3,4,15.8C158.3,44.2,134.7,77.9,126.8,85.5"/>
	<path class="st3" d="M141.9,132.1c6.1-6.1,25.7-28.4,15.1-37.1C139.3,80.5,101.1,64.8,87.9,78c-13.2,13.2,2.5,51.4,16.9,69.1
		C113.5,157.8,135.8,138.2,141.9,132.1"/>
	<path class="st4" d="M110.2,100.3c6.6-6.6,11.6-14.5,14.6-22.9C110,72.2,95.2,70.8,87.9,78c-7.3,7.3-5.8,22.1-0.6,36.9
		C95.7,111.9,103.5,107,110.2,100.3"/>
	<path class="st1" d="M40.9,80.5c8,0,14.5,6.5,14.5,14.5c0,8-6.5,14.5-14.5,14.5c-8,0-14.5-6.5-14.5-14.5
		C26.4,87,32.9,80.5,40.9,80.5"/>
	<path class="st2" d="M104.9,16.6c8,0,14.5,6.5,14.5,14.5c0,8-6.5,14.5-14.5,14.5c-8,0-14.5-6.5-14.5-14.5
		C90.4,23.1,96.9,16.6,104.9,16.6"/>
	<path class="st1" d="M46.3,36.4c17.8-17.8,44.8-19.7,60.3-4.2c15.5,15.5,13.6,42.5-4.2,60.3c-17.8,17.8-44.8,19.7-60.3,4.2
		C26.6,81.3,28.5,54.2,46.3,36.4"/>
	<path class="st2" d="M112.2,79.1c-44.1,34.4-74.1-6.2-77.7-24.4c-5.6,15-3.2,31.3,7.6,42.1c15.5,15.5,42.5,13.6,60.3-4.2
		C106.5,88.5,109.8,83.9,112.2,79.1"/>
	<path class="st5" d="M49.5,84.9c4.6-4.6,11.3-5.4,15-1.7c3.7,3.7,2.9,10.4-1.7,15c-4.6,4.6-11.3,5.4-15,1.7
		C44.1,96.3,44.9,89.5,49.5,84.9"/>
	<path class="st5" d="M94.8,39.7c4.6-4.6,11.3-5.4,15-1.7c3.7,3.7,2.9,10.4-1.7,15c-4.6,4.6-11.3,5.4-15,1.7
		C89.4,51,90.2,44.3,94.8,39.7"/>
	<path class="st0" d="M54.6,83.2c-0.7,0-1.5-0.3-2.1-0.9L49.1,79c-1.1-1.1-1.1-3,0-4.1c1.1-1.1,3-1.1,4.1,0l3.4,3.4
		c1.1,1.1,1.1,3,0,4.1C56.1,83,55.4,83.2,54.6,83.2"/>
	<path class="st0" d="M90.2,47.7c-0.7,0-1.5-0.3-2.1-0.9l-3.4-3.4c-1.1-1.1-1.1-3,0-4.1c1.1-1.1,3-1.1,4.1,0l3.4,3.4
		c1.1,1.1,1.1,3,0,4.1C91.7,47.4,90.9,47.7,90.2,47.7"/>
	<path class="st0" d="M68.2,70.1c-0.3,0-0.5,0-0.8,0c-1.6-0.1-2.8-1.5-2.7-3.1c0.1-1.6,1.5-2.8,3.1-2.7c1.7,0.1,3.4-0.5,4.5-1.7
		c1.2-1.2,1.8-2.9,1.7-4.5c-0.1-1.6,1.1-3,2.7-3.1c1.6-0.1,3,1.1,3.1,2.7c0.2,3.4-1,6.7-3.4,9.1C74.3,68.8,71.3,70.1,68.2,70.1"/>
</g>
</svg>
