<?xml version="1.0" encoding="utf-8"?>
<!-- Generator: Adobe Illustrator 21.0.0, SVG Export Plug-In . SVG Version: 6.00 Build 0)  -->
<svg version="1.1" id="Warstwa_1" xmlns="http://www.w3.org/2000/svg" xmlns:xlink="http://www.w3.org/1999/xlink" x="0px" y="0px"
	 viewBox="0 0 200 200" style="enable-background:new 0 0 200 200;" xml:space="preserve">
<style type="text/css">
	.st0{fill:#F3A76D;}
	.st1{fill:#E79758;}
	.st2{fill:#FBCFA2;}
	.st3{fill:#FFB882;}
	.st4{fill:#595959;}
</style>
<g>
	<path class="st0" d="M67.1,126.4H196c2.2,0,4-1.8,4-4V41c0-2.2-1.8-4-4-4H67.1V126.4z"/>
	<path class="st1" d="M67.1,126.4h77.6V57.3c0-4.4-1.7-10.8-9.7-16.5c-1.9-1.4-4.1-2.6-6.6-3.8H67.1V126.4z"/>
	<path class="st2" d="M67.1,37c37,0,67.1,9.1,67.1,20.3c0,11.2-30,20.3-67.1,20.3C30,77.6,0,68.5,0,57.3C0,46.1,30,37,67.1,37"/>
	<path class="st3" d="M126.9,48.1c0.5,1,0.8,2.1,0.8,3.1c0,11.2-30,20.3-67.1,20.3c-26.1,0-48.7-4.5-59.8-11.1
		c5,9.7,32.8,17.2,66.3,17.2c37,0,67.1-9.1,67.1-20.3C134.1,54,131.5,50.9,126.9,48.1"/>
	<path class="st4" d="M67.1,49.2c18,0,32.5,3.6,32.5,8.1c0,4.5-14.6,8.1-32.5,8.1c-18,0-32.5-3.6-32.5-8.1
		C34.6,52.8,49.1,49.2,67.1,49.2"/>
	<path class="st2" d="M0,142.7C0,153.9,30,163,67.1,163c37,0,67.1-9.1,67.1-20.3V57.3c0,11.2-30,20.3-67.1,20.3
		C30,77.6,0,68.5,0,57.3V142.7z"/>
	<path class="st3" d="M120.3,69.7v73c0,10.5-26.4,19.2-60.2,20.2c2.3,0.1,4.6,0.1,6.9,0.1c37,0,67.1-9.1,67.1-20.3V57.3
		C134.1,62,129,66.2,120.3,69.7"/>
</g>
</svg>
