<?xml version="1.0" encoding="utf-8"?>
<!-- Generator: Adobe Illustrator 21.0.0, SVG Export Plug-In . SVG Version: 6.00 Build 0)  -->
<svg version="1.1" id="Warstwa_1" xmlns="http://www.w3.org/2000/svg" xmlns:xlink="http://www.w3.org/1999/xlink" x="0px" y="0px"
	 viewBox="0 0 200 200" style="enable-background:new 0 0 200 200;" xml:space="preserve">
<style type="text/css">
	.st0{fill:#FDBC11;}
	.st1{fill:#EE4977;}
	.st2{fill:#1A4F7D;}
	.st3{fill:#FFE9CB;}
</style>
<g>
	<rect x="17.2" y="0.6" class="st0" width="116" height="165.7"/>
	<path class="st1" d="M90.1,56.9c0-7.3-5.9-13.2-13.3-13.3h-9.9c-1.8,0-3.3,1.5-3.3,3.3v0v39.8c0,1.8,1.5,3.3,3.3,3.3h0h9.9
		c7.3,0,13.2-5.9,13.3-13.2c0-3.8-1.6-7.5-4.5-10C88.5,64.4,90.1,60.7,90.1,56.9 M83.5,76.8c0,3.7-3,6.6-6.6,6.6h-6.6V70.2h6.6
		C80.5,70.2,83.5,73.1,83.5,76.8 M70.3,63.5V50.3h6.6c3.7,0,6.6,3,6.6,6.6c0,3.7-3,6.6-6.6,6.6H70.3z"/>
	<path class="st1" d="M43.8,43.7c-7.3,0-13.2,5.9-13.3,13.3v29.8c0,1.8,1.5,3.3,3.3,3.3c1.8,0,3.3-1.5,3.3-3.3V70.2h13.3v16.6
		c0,1.8,1.5,3.3,3.3,3.3s3.3-1.5,3.3-3.3V56.9C57,49.6,51.1,43.7,43.8,43.7 M37.1,63.5v-6.6c0-3.7,3-6.6,6.6-6.6
		c3.7,0,6.6,3,6.6,6.6v0v6.6H37.1z"/>
	<path class="st1" d="M120,83.4H110c-3.7,0-6.6-3-6.6-6.6V56.9c0-3.7,3-6.6,6.6-6.6h9.9c1.8,0,3.3-1.5,3.3-3.3
		c0-1.8-1.5-3.3-3.3-3.3H110c-7.3,0-13.2,5.9-13.3,13.3v19.9c0,7.3,5.9,13.2,13.3,13.3h9.9c1.8,0,3.3-1.5,3.3-3.3
		C123.3,84.9,121.8,83.4,120,83.4"/>
	<path class="st2" d="M17.2,0.6v165.7c-9.1,0-16.6,7.4-16.6,16.6V17.2C0.7,8,8.1,0.6,17.2,0.6"/>
	<path class="st3" d="M133.2,166.3h-116c-9.2-0.1-16.6,7.2-16.7,16.4c-0.1,9.2,7.2,16.6,16.4,16.7c0.1,0,0.2,0,0.3,0h119.3
		C136.5,199.4,135.3,182.8,133.2,166.3"/>
	<path class="st2" d="M156.4,144.7c-1.7,0-3.2-1.3-3.3-3.1c-0.2-2.7-1.5-26.3,12.8-28.4c1.8-0.3,3.5,1,3.7,2.8
		c0.3,1.8-1,3.5-2.8,3.7c-6.9,1-7.5,16.1-7.1,21.3c0.1,1.8-1.2,3.4-3.1,3.5C156.6,144.7,156.5,144.7,156.4,144.7"/>
	<path class="st1" d="M176.3,133.1c-11.1,0-16.9,3.4-19.9,8.9c-3-5.5-8.8-8.9-19.9-8.9c-12.8,0-23.2,8.2-23.2,26.5
		c0,18.3,10.4,39.8,23.2,39.8c11.1,0,16.9-3.4,19.9-8.9c3,5.5,8.8,8.9,19.9,8.9c12.8,0,23.2-21.5,23.2-39.8
		C199.5,141.3,189.1,133.1,176.3,133.1"/>
</g>
</svg>
