<?xml version="1.0" encoding="utf-8"?>
<!-- Generator: Adobe Illustrator 21.0.0, SVG Export Plug-In . SVG Version: 6.00 Build 0)  -->
<svg version="1.1" id="Warstwa_1" xmlns="http://www.w3.org/2000/svg" xmlns:xlink="http://www.w3.org/1999/xlink" x="0px" y="0px"
	 viewBox="0 0 200 200" style="enable-background:new 0 0 200 200;" xml:space="preserve">
<style type="text/css">
	.st0{fill:#EB6262;}
	.st1{fill:#E05D5D;}
	.st2{fill:#EB6666;}
	.st3{fill:#3AA0E9;}
	.st4{fill:#FD9D5F;}
	.st5{fill:#2C97DB;}
	.st6{fill:#F29558;}
	.st7{fill:#FDFDFD;}
	.st8{fill:#E15F5F;}
	.st9{fill:#3AA1E9;}
</style>
<g>
	<path class="st0" d="M199.8,189.3c-0.8,0.7-0.7,1.8-1.1,2.6c-2.5,5.1-6.8,7.4-12.3,7.4c-23.1,0.1-46.3,0.1-69.5,0
		c-8.2,0-13.4-5.3-13.4-13.5c0-23.2,0-46.4,0-69.6c0-0.8-0.1-1.6,0.4-2.3c0.9,0.9,0.6,2,0.6,3c0,8.5,0.2,16.9-0.1,25.3
		c-0.2,4.2,4.5,8.1,9.1,6c2.6-1.2,3.7-3.4,3.8-6.1c0.1-3.4,0-6.7,0.1-10.1c0-1.1,0-2.1,0.3-3.1c1.4-6,8.1-6.5,11.5-3.9
		c1,0.8,1.6,1.7,1.9,2.9c0.3,1.3,0.5,2.6,0.5,3.9v12.3c0,1.5,0.2,3,0.9,4.4c0.6,2.7,0.2,5.4,0.6,8.1c1.3,9,6.9,15.4,15.8,17.1
		c6.2,1.2,12.2,0.1,17.2-4.3c2.5-2.2,3.9-5.2,4.8-8.4c0.3-1-0.1-1.6-1-2c-2-0.7-4-1.2-5.9-1.9c-1-0.3-1.6,0.1-2,1
		c-0.5,1.3-0.9,2.6-1.7,3.7c-3.5,5.2-11.3,5.6-15,0.5c-3-4.1-3.1-8.9-2.9-13.6c0-0.5,0.2-0.9,0.8-0.9c0.1,0.1,0.3,0.3,0.3,0.5
		c0.1,0.3,0.1,0.5,0.1,0.8c1.5-2.6,1.6-5.4,1.4-8.3c0.4-1.4,1.6-2.2,2.7-2.9c3.2-2,6.4-1.9,9.8-0.5c0.7,0.3,1.4,0.8,1.6,1.6
		c0,1.8-0.1,3.5,0,5.2c0.2,3.8,3,6.9,6.5,7c3.4,0.1,6.4-2.7,6.7-6.5c0.3-3.1,0-6.2,0.1-9.4c0-1.3-0.1-2.6,0.1-3.9
		c0.2-3.2,2.7-5.7,5.9-5.9c5.4-0.4,8,2.1,8,7.5c0,3.3,0,6.6,0.1,9.9c0.1,4.4,3.5,7.5,7.5,7.1c2-0.2,3.5-1.3,4.7-2.8
		c0.3-0.4,0.6-1.6,1.4-0.5v39c0,0.7-0.2,1.3,0.2,1.9C199.8,188.3,199.8,188.8,199.8,189.3"/>
	<path class="st1" d="M199.4,146.4c-1.5,2.5-3.4,4-6.4,4.4c-4.1,0.5-7.7-4.2-7.6-7.5c0.1-3.7,0.1-7.4,0-11.1c0-3-1.8-5.4-4.3-6
		c-3.6-0.9-6.7,0.5-8.1,3.4c-0.4,0.8-0.4,1.5-0.4,2.3c0,4,0.1,8,0,12.1c0,2.9-1.1,5.3-3.7,6.8c-4.3,2.5-9.4,0.3-10.5-4.8
		c-0.5-2.3-0.5-4.6,0.1-6.9c1.7-0.1,1.9,1.4,2.4,2.4c1.3,2.4,1.2,2.4,3.9,1.7c1.4-0.4,2.8-0.7,4.2-1c1.9-0.5,2.1-0.8,1.5-2.6
		c-2.2-6.2-6.6-9.6-13-10.8c-4.6-0.9-9.1-0.6-13.3,1.5c-6.6,3.2-10,8.7-11.1,15.7c-0.2,1-0.1,2.1-1,2.9c-1-1.1-1.2-2.4-1.2-3.8
		c0-4.7,0-9.4,0-14c-0.1-4.7-2.1-6.7-6.6-6.7c-3.7,0-6.2,2.7-6.3,6.7c0,3.9,0,7.8,0,11.7c0,3.4-2.3,5.9-5.8,6.8
		c-2.8,0.7-6.1-0.9-7.6-3.5c-0.6-1-0.7-1.9-0.7-3V114c0.4-5.7,5.7-10.8,11.5-10.8c9.2-0.1,18.3-0.1,27.5-0.1h43.5
		c7.1,0,11.2,3.1,13.2,9.9c0,0.1,0.2,0.2,0.3,0.3v32C199.4,145.6,199.7,146.1,199.4,146.4"/>
	<path class="st2" d="M199.4,146.4c0-0.5,0-0.9,0.4-1.2v42.6c-0.7-0.7-0.4-1.5-0.4-2.2C199.4,172.5,199.4,159.5,199.4,146.4"/>
	<path class="st3" d="M147.9,43c0.1,10.6,0.1,21.2,0.1,31.8c0,3.4,0.1,6.9,0,10.3c-0.3,6.2-5.2,11.3-11.5,11.7
		c-0.7,0.1-1.3,0.1-2,0.1H65.1c-6.6,0-11.2-3.4-12.9-9.5c-0.4-1.2-0.4-2.3-0.4-3.5V42.6c0-0.3,0.1-0.5,0.1-0.8c1,0,1.1,0.9,1.4,1.4
		c1.8,2.5,4.1,3.6,7.1,2.9c2.8-0.7,4.4-2.6,5-5.3c0.6-2.8,0.3-5.6,0.3-8.3c0-1.7-0.1-3.4,0-5.1c0.1-3.7,2.9-6.3,6.7-6.4
		c3.8-0.1,6.6,2.4,6.8,6.1c0.1,2.8,0,5.6,0,8.4v5.6c0,3.6,1.3,6.5,4.9,7.8c0.3,0.1,0.6,0.3,0.8,0.5c0.7,1,0.1,1.9-0.3,2.8
		c-2.1,5.3-4.1,10.7-6.2,16c-1,2.4-0.8,2.7,1.8,2.7c1.7,0,3.4,0,5.1,0c1.4,0.1,2.2-0.5,2.6-1.8c0.8-2,1.5-4,2.2-6
		c0.6-1.6,1.6-2.4,3.4-2.3c4,0,8,0,12.1,0c1.7,0,2.7,0.7,3.3,2.2c0.8,2,1.6,3.9,2.2,5.8c0.5,1.5,1.4,2.2,3.1,2.2
		c1.8-0.1,3.6,0,5.4,0c2.1-0.1,2.3-0.4,1.6-2.3c-2.2-5.6-4.4-11.1-6.6-16.6c-0.4-0.9-0.9-1.8-0.5-2.8c0.2-0.2,0.4-0.4,0.6-0.5
		c4.1-1.5,5.4-4.5,5.2-8.6c-0.2-3.3,0-6.6-0.1-10c0-2.9,1.1-5.1,3.6-6.4c2.7-1.4,5.3-1.1,7.8,0.5c1.8,1.2,2.6,2.9,2.6,5v9.4
		c0,1.4,0.1,2.7,0.5,4c0.9,2.9,2.8,4.7,5.8,5c2.7,0.3,4.7-1.1,6.2-3.3C146.9,43.9,146.9,43.1,147.9,43"/>
	<path class="st4" d="M96,114c0.5,0.8,0.4,1.7,0.4,2.5c0,23.1,0,46.1,0,69.2c0,6.7-3.5,11.6-9.4,13.2c-1.5,0.4-3.1,0.6-4.6,0.6H14.1
		c-9,0-14.1-5.1-14.1-14.2c0-13.7,0.1-27.4,0.1-41.1c0.9,0.1,1.1,0.9,1.5,1.4c2,2.8,4.7,3.9,7.3,3.1c3-1,4.9-3.5,5-6.9
		c0-3.6,0.1-7.3,0-10.9c-0.2-6.9,6.7-8.4,10.7-6.2c2,1.1,2.9,2.7,2.9,4.9c0,3.8,0.1,7.6,0,11.5c-0.1,3.1,0.3,5.9,1.8,8.7
		c0.5,3,0.2,6.1,0.2,9.2c0,4,0,8,0,12.1c0,2,0.3,2.3,2.3,2.3c7.4,0,14.8,0.2,22.2-0.1c7.8-0.2,12.9-5.8,12.6-13.6
		c-0.1-2.3-0.8-4.3-2.4-6c-0.5-0.6-1.2-1.1-1.1-2c0.4-0.5,0.9-0.7,1.4-1c2.4-1.3,3.5-3.3,3.5-6c0-3.6-0.1-7.1,0-10.7
		c0-1.8,0.2-3.6,1.2-5.1c1.9-2.9,4.7-3.5,7.9-3c2.5,0.4,4.5,2.5,5.1,5.3c0.6,2.7,0.2,5.4,0.3,8.1c0,1.6-0.1,3.1,0,4.7
		c0.3,3.7,3.2,6.4,6.7,6.3c3.6-0.1,6.2-2.8,6.2-6.6c0.1-8.9,0-17.7,0-26.5C95.4,116,95.2,114.9,96,114"/>
	<path class="st5" d="M85.1,49.7c-3.8-0.7-6.2-3.5-6.3-7.4c0-4.8,0-9.6,0-14.4c0-3.5-1.5-5.4-5-6.2c-2.7-0.6-5.9,1-7.1,3.5
		c-0.4,0.7-0.4,1.4-0.4,2.1c0,3.8,0.1,7.6,0,11.5c0,3.9-1.9,6.9-4.9,7.8c-3.1,1-7,0.7-9.5-4.7c-0.5-10.3-0.6-20.5,0.1-30.8
		C52.4,5,58.3,0.6,65.4,0.6h64.9c2.8,0,5.6-0.2,8.3,0.5c5.6,1.5,9.2,5.8,9.4,12.6c0.3,9.8,0.4,19.6-0.1,29.4c-0.9,1.9-2,3.5-3.9,4.6
		c-3.9,2.2-9.3-0.5-10.1-5.1c-0.8-4.3-0.4-8.5-0.3-12.8c0.1-4-3.1-6.1-6.3-6.1c-3.8-0.1-6.6,2.5-6.6,6.1c0,4.1,0,8.2,0,12.3
		c0,4-2.4,6.7-6.3,7.4c-1.2-0.2-1.2-1.3-1.5-2.1c-2.4-6-4.9-12-7.2-18.1c-0.7-1.8-1.7-2.6-3.6-2.4c-1.8,0.2-3.5,0.1-5.3,0
		c-1.5,0-2.2,0.6-2.7,2c-2.4,6.3-4.9,12.6-7.3,18.9C86.3,48.4,86.2,49.4,85.1,49.7"/>
	<path class="st6" d="M28.9,149.6c-1.4-1.8-2-3.8-2-5.9c0-4.5-0.2-9.1,0-13.6c0.2-3.6-2.7-5.8-5.8-5.8c-4.1,0-6.7,2.2-6.7,5.8
		c-0.1,3.8,0,7.5,0,11.3c0,4.3-2.4,7.4-6.2,8.2c-2.9,0.6-6.3-1.6-7.9-5.1c-0.1-0.1-0.2-0.2-0.3-0.3c0-9.9-0.2-19.8,0-29.6
		c0.1-5.9,5.7-11.3,11.8-11.4c15.5-0.1,31-0.1,46.6-0.1c8.7,0,17.4-0.1,26.1,0.1c5.9,0,11.2,5.2,11.5,10.9v29.8
		c0,3.9-2.8,6.7-6.6,6.9c-4.3,0.3-7.4-3.5-7.4-6.9c0-3.7,0-7.4,0-11.1c0-2.9-1.7-5.5-4-6.3c-3.1-1.1-6.1-0.3-8,2.2
		c-1.1,1.4-1.2,3-1.2,4.6c-0.1,4,0,8-0.1,12.1c0,3-2.4,5.6-5.4,6.2c-0.4,0.2-0.8,0.1-1.1-0.1c-2.4-1-2.7-1.8-0.8-3.5
		c5.9-5.6,3.2-15.9-5.3-18.1c-2-0.5-4.1-0.8-6.2-0.8c-5.8-0.1-11.7,0-17.5,0c-2.6,0-2.8,0.2-2.8,2.9v15
		C29.4,147.8,29.6,148.8,28.9,149.6"/>
	<path class="st7" d="M131.9,148.8c0.4-2.8,0.8-5.6,1.9-8.3c3.5-8.7,11.8-13.5,21.1-12.5c5.9,0.6,10.9,2.7,14.2,7.9
		c0.9,1.4,1.5,3,2.1,4.6c0.5,1.2,0,1.7-1.1,2c-2.4,0.6-4.8,1.2-7.2,1.7c-1.1,0.3-1.7-0.1-2-1.2c-0.5-1.5-1.2-2.9-2.5-3.8
		c-4.1-3.5-10.5-2.6-13.5,2c-0.7,2.3-1.2,4.6-2.1,6.9c-0.6,4.6-0.5,9.1,1.8,13.2c1.8,3.3,4.9,4.6,8.5,4.4c3.5-0.2,5.8-2.3,7.2-5.4
		c1.7-3.9,1.7-3.9,5.7-2.7c1.3,0.4,2.6,0.9,3.9,1.2c1.3,0.4,1.6,1,1.2,2.3c-2.4,8-8.5,13.2-16.2,13.6c-10.2,0.6-17.8-3.8-21.2-12
		C132,158.1,131.8,153.5,131.9,148.8"/>
	<path class="st8" d="M142.8,147.9c0-2.5,0.6-4.8,2.1-6.9c0.9,3.1,0.1,6.8-1.9,8.8C142.9,149.1,142.8,148.5,142.8,147.9"/>
	<path class="st7" d="M85.1,49.7c2.8-7.1,5.7-14.3,8.4-21.5c0.6-1.6,1.4-2.2,3.1-2.1c1.9,0.2,3.9,0.2,5.8,0c1.8-0.2,2.6,0.5,3.3,2.2
		c2.5,6.6,5.2,13.2,7.9,19.9c0.2,0.4,0.4,0.8,0.6,1.2c2.6,6.5,5.1,13,7.7,19.5c1,2.4,0.8,2.7-1.8,2.7c-2.2,0-4.3-0.1-6.4,0.1
		c-1.6,0.1-2.3-0.6-2.8-2c-0.8-2.3-1.7-4.5-2.5-6.7c-0.4-1-0.9-1.4-2-1.4c-4.5,0.1-9,0.1-13.4,0c-1.2,0-1.7,0.5-2.1,1.6
		c-0.8,2.3-1.7,4.6-2.5,6.9c-0.4,1.2-1.1,1.6-2.3,1.6c-2.3-0.1-4.7,0-7-0.1c-2,0-2.2-0.4-1.5-2.2c2.4-6,4.7-12.1,7-18.2
		C84.9,50.7,85,50.2,85.1,49.7"/>
	<path class="st7" d="M28.9,149.6c0-6.2,0.1-12.4,0.1-18.5c0-2.5,0.1-2.5,2.5-2.5c6.4,0,12.7-0.1,19.1,0.1c3.8,0.1,7.4,0.6,10.6,3.3
		c5,4.4,5.3,12.2,0.3,16.7c-0.4,0.4-0.8,0.7-1.2,1.1c1.1,0.7,2.1,1.3,3,1.9c5.3,5.9,5.2,13.7-0.3,18.9c-2.5,2.3-5.5,3.2-8.7,3.3
		c-7.7,0.2-15.4,0.1-23.2,0.2c-1.6,0-2.2-0.5-2.2-2.1C29,164.3,28.9,157,28.9,149.6"/>
	<path class="st9" d="M99.8,40c1.4,3.8,2.8,7.6,4.3,11.4c0.4,1-0.1,1.2-0.9,1.2c-2.4,0-4.8-0.1-7.2,0c-1.1,0-1-0.5-0.7-1.2
		c1.4-3.8,2.8-7.5,4.1-11.3C99.5,40,99.6,40,99.8,40"/>
	<path class="st4" d="M46.3,164.9c-1.8,0-3.6,0-5.4,0c-1.1,0.1-1.5-0.3-1.5-1.4c0-2.5,0-4.9,0-7.4c0-0.7-0.1-1.4,0.9-1.4
		c4.1-0.1,8.3-0.1,12.4,0.6c2.6,0.4,3.9,2.4,3.8,4.8c-0.1,2.6-1.8,4.3-4.4,4.6c-0.2,0-0.4,0-0.6,0h-5.2
		C46.3,164.8,46.3,164.8,46.3,164.9"/>
	<path class="st4" d="M41.4,137.5c3.1,0,6.1,0,9.2,0c2.8,0.1,4.3,1.6,4.4,3.9c0.1,2.4-1.6,4-4.3,4.3c-3.4,0.4-6.9,0.2-10.3,0.3
		c-0.3,0-0.7,0-0.8-0.4c1.1-0.8,1.3-1.8,1.3-3C40.9,140.9,40.4,139.1,41.4,137.5"/>
	<path class="st6" d="M41.4,137.5c0,2.1-0.1,4.3,0.1,6.4c0.1,1.5-0.5,2-1.9,1.8c-0.1-2.1,0-4.3-0.1-6.4
		C39.2,137.6,39.9,137.2,41.4,137.5"/>
</g>
</svg>
