<?xml version="1.0" encoding="utf-8"?>
<!-- Generator: Adobe Illustrator 21.0.0, SVG Export Plug-In . SVG Version: 6.00 Build 0)  -->
<svg version="1.1" id="Warstwa_1" xmlns="http://www.w3.org/2000/svg" xmlns:xlink="http://www.w3.org/1999/xlink" x="0px" y="0px"
	 viewBox="0 0 200 200" style="enable-background:new 0 0 200 200;" xml:space="preserve">
<style type="text/css">
	.st0{fill:#FFCDBE;}
	.st1{fill:#FFAF9D;}
	.st2{fill:#FC8086;}
	.st3{fill:#FD646F;}
	.st4{fill:#F8F6F7;}
	.st5{fill:#FDF38A;}
</style>
<g>
	<path class="st0" d="M82.1,194.2v-19.3c0-4.8-3.9-8.7-8.7-8.7l-30.1-0.1c-5.2,0-9.5-3.7-10.4-8.8l-5.1-29.7H16.6
		c-1.4,0-2.5-1.1-2.5-2.5c0-9.5,2.7-18.8,7.7-26.8l3.7-5.9c0.5-0.8,0.7-1.8,0.7-2.7l-1.4-17.8C21.7,33.1,52.4,0,91.2,0
		c47.5,0,81.5,45.8,67.8,91.2l-13.9,46.2v56.5c0,3.2-2.6,5.8-5.8,5.8L88,200C84.8,200,82.1,197.4,82.1,194.2"/>
	<path class="st1" d="M101.6,196.8v-34.3c0-4.8-3.9-8.7-8.7-8.7l-30.1-0.1c-5.2,0-9.5-3.7-10.4-8.8l-3.2-18.6
		c-1.1-6.4-6.7-11.1-13.2-11.1c-1.4,0-2.5-1.1-2.5-2.5c0-9.5,2.7-18.8,7.7-26.8l3.7-5.9c0.5-0.8,0.7-1.8,0.7-2.7l-1.4-17.8
		C42.6,38,51.2,18.3,65.8,5c-25.8,10.7-43.3,37.1-41,66.8l1.4,17.8c0.1,1-0.2,1.9-0.7,2.7l-3.7,5.9c-5,8-7.7,17.3-7.7,26.8
		c0,1.4,1.1,2.5,2.5,2.5h11.3l5.1,29.7c0.9,5.1,5.3,8.8,10.4,8.8l30.1,0.1c4.8,0,8.7,3.9,8.7,8.7v21c0,2.3,1.9,4.2,4.2,4.1l16.7-0.1
		C102.2,199.1,101.6,198,101.6,196.8"/>
	<path class="st2" d="M93,19.3c28,0,50.8,22.7,50.8,50.8c0,28-22.7,50.8-50.8,50.8c-28,0-50.8-22.7-50.8-50.8
		C42.2,42,65,19.3,93,19.3"/>
	<path class="st3" d="M66.2,70c0-23.9,16.6-44,38.8-49.3c-3.8-0.9-7.8-1.4-12-1.4C65,19.3,42.2,42,42.2,70c0,28,22.7,50.8,50.8,50.8
		c4.1,0,8.1-0.5,12-1.4C82.7,114,66.2,94,66.2,70"/>
	<path class="st4" d="M96.5,96.6l23.9-26.3c6.1-6.6,5.8-16.9-0.5-23.2l-0.1-0.1c-6.6-6.6-17.2-6.6-23.8,0l-3,3L89.9,47
		c-6.6-6.5-17.2-6.5-23.8,0c-6.4,6.4-6.6,16.7-0.5,23.3L90,96.6C91.7,98.5,94.7,98.5,96.5,96.6"/>
	<path class="st5" d="M171.1,30.2c-0.9,0-1.7-0.4-2.3-1.1c-1.1-1.3-0.9-3.2,0.4-4.3l4.9-4c1.3-1.1,3.2-0.9,4.3,0.4
		c1.1,1.3,0.9,3.2-0.4,4.3l-4.9,4C172.4,30,171.7,30.2,171.1,30.2"/>
	<path class="st5" d="M157.9,18.1c-0.3,0-0.6-0.1-1-0.2c-1.6-0.5-2.4-2.2-1.9-3.8l2.1-6.4c0.5-1.6,2.2-2.4,3.8-1.9
		c1.6,0.5,2.4,2.2,1.9,3.8l-2.1,6.4C160.3,17.3,159.1,18.1,157.9,18.1"/>
	<path class="st5" d="M182.9,47.7H176c-1.7,0-3-1.4-3-3c0-1.7,1.4-3,3-3h6.9c1.7,0,3,1.4,3,3C185.9,46.3,184.5,47.7,182.9,47.7"/>
</g>
</svg>
