<?xml version="1.0" encoding="utf-8"?>
<!-- Generator: Adobe Illustrator 21.0.0, SVG Export Plug-In . SVG Version: 6.00 Build 0)  -->
<svg version="1.1" id="Warstwa_1" xmlns="http://www.w3.org/2000/svg" xmlns:xlink="http://www.w3.org/1999/xlink" x="0px" y="0px"
	 viewBox="0 0 200 200" style="enable-background:new 0 0 200 200;" xml:space="preserve">
<style type="text/css">
	.st0{fill:#EBC09B;}
	.st1{fill:#EFCFB3;}
	.st2{fill:#FF816E;}
	.st3{fill:#FBD670;}
	.st4{fill:#E5E8EC;}
	.st5{fill:#CBD0D8;}
</style>
<g>
	<path class="st0" d="M140,83.3v20v20v20h13.3v-20v-20V92.8c0-1.8,0.7-3.5,2-4.7l4.7-4.7H140z"/>
	<path class="st1" d="M120,83.3h20v20v20v20h13.3v20h-26.7V92.8c0-1.8-0.7-3.5-2-4.7L120,83.3z"/>
	<path class="st2" d="M124.7,88l-4.7-4.7h-13.3L102,88c-1.3,1.3-2,3-2,4.7V170c0,3.7,3,6.7,6.7,6.7H120c3.7,0,6.7-3,6.7-6.7v-6.7
		V92.8C126.7,91,126,89.3,124.7,88"/>
	<path class="st2" d="M173.3,83.3c-3.7,0-6.7,3-6.7,6.7v6.7c0,3.7,3,6.7,6.7,6.7c-3.7,0-6.7,3-6.7,6.7v6.7c0,3.7,3,6.7,6.7,6.7
		c-3.7,0-6.7,3-6.7,6.7v6.7c0,3.7,3,6.7,6.7,6.7c-3.7,0-6.7,3-6.7,6.7v6.7c0,3.7,3,6.7,6.7,6.7h6.7v6.7c0,3.7-3,6.7-6.7,6.7H160
		c-3.7,0-6.7-3-6.7-6.7v-6.7v-20v-20v-20V92.8c0-1.8,0.7-3.5,2-4.7l4.7-4.7H173.3z"/>
	<path class="st3" d="M106.7,150c3.7,0,6.7,3,6.7,6.7c0,1.8-0.7,3.5-2,4.7c-1.2,1.2-2.9,2-4.7,2H100V150H106.7z"/>
	<path class="st3" d="M106.7,123.3c3.7,0,6.7,3,6.7,6.7c0,1.8-0.7,3.5-2,4.7c-1.2,1.2-2.9,2-4.7,2H100v-13.3H106.7z"/>
	<path class="st3" d="M106.7,96.7c3.7,0,6.7,3,6.7,6.7c0,1.8-0.7,3.5-2,4.7c-1.2,1.2-2.9,2-4.7,2H100V96.7H106.7z"/>
	<path class="st4" d="M106.7,76.7c0-11.5,5.8-21.6,14.7-27.6c4.8,4.7,11.4,7.6,18.7,7.6c-5.5,0-10.5,2.2-14.1,5.9
		c-3.6,3.6-5.9,8.6-5.9,14.1v6.7h-13.3V76.7z"/>
	<path class="st4" d="M173.3,76.7v6.7H160v-6.7c0-11-9-20-20-20c7.3,0,13.9-2.9,18.7-7.6C167.5,55,173.3,65.2,173.3,76.7"/>
	<path class="st5" d="M158.7,49.1c-4.8,4.7-11.4,7.6-18.7,7.6c-7.3,0-13.9-2.9-18.7-7.6c-4.9-4.8-8-11.6-8-19v-0.1v-0.3
		c0.2-14.6,12-26.3,26.7-26.3c14.7,0,26.7,11.9,26.7,26.7C166.7,37.5,163.6,44.2,158.7,49.1 M153.3,30c0-7.4-6-13.3-13.3-13.3
		c-7.4,0-13.3,6-13.3,13.3c0,7.4,6,13.3,13.3,13.3C147.4,43.3,153.3,37.4,153.3,30"/>
	<path class="st1" d="M200,130v6.7c0,3.7-3,6.7-6.7,6.7h-20c-3.7,0-6.7-3-6.7-6.7V130c0-3.7,3-6.7,6.7-6.7h20
		C197,123.3,200,126.3,200,130"/>
	<path class="st1" d="M200,150v6.7c0,3.7-3,6.7-6.7,6.7H180h-6.7c-3.7,0-6.7-3-6.7-6.7V150c0-3.7,3-6.7,6.7-6.7h20
		C197,143.3,200,146.3,200,150"/>
	<path class="st1" d="M200,110v6.7c0,3.7-3,6.7-6.7,6.7h-20c-3.7,0-6.7-3-6.7-6.7V110c0-3.7,3-6.7,6.7-6.7h20
		C197,103.3,200,106.3,200,110"/>
	<path class="st1" d="M200,90v6.7c0,3.7-3,6.7-6.7,6.7h-20c-3.7,0-6.7-3-6.7-6.7V90c0-3.7,3-6.7,6.7-6.7h20
		C197,83.3,200,86.3,200,90"/>
	<path class="st1" d="M106.7,76.7v6.7L102,88c-1.3,1.3-2,3-2,4.7v3.9V110v13.3v13.3V150v13.3H83.3L0,196.7v-83.3l54-13.5
		c7.4-1.9,12.6-8.5,12.6-16.2V76c0-8.2,3-16,8.4-22.1l11.6-13.1c4.3-4.8,6.6-11,6.6-17.5c0-1.8,0.7-3.5,2-4.7c1.2-1.2,2.9-2,4.7-2
		h0.3c7.2,0,13,5.8,13,13v0.3V30c0,6.6-1.9,12.9-5.5,18.3c-2,2.9-4,6-5.5,8.3c-1.5,2.2-2.3,4.8-2.3,7.4v0.2c0,3.7,1.5,7.2,4.1,9.9
		L106.7,76.7z"/>
</g>
</svg>
