<?xml version="1.0" encoding="utf-8"?>
<!-- Generator: Adobe Illustrator 21.0.0, SVG Export Plug-In . SVG Version: 6.00 Build 0)  -->
<svg version="1.1" id="Warstwa_1" xmlns="http://www.w3.org/2000/svg" xmlns:xlink="http://www.w3.org/1999/xlink" x="0px" y="0px"
	 viewBox="0 0 200 200" style="enable-background:new 0 0 200 200;" xml:space="preserve">
<style type="text/css">
	.st0{fill:#FF6337;}
	.st1{fill:#FF8546;}
	.st2{fill:#CE301B;}
	.st3{fill:#FF4128;}
	.st4{fill:#198FC1;}
	.st5{fill:#2DACE2;}
	.st6{fill:#9CB45F;}
	.st7{fill:#B8D071;}
	.st8{fill:#CBCBCB;}
	.st9{fill:#EAEAEA;}
	.st10{fill:#084F6D;}
	.st11{fill:#116F96;}
	.st12{fill:#FFCA63;}
	.st13{fill:#FF8C7E;}
	.st14{fill:#FFB3A8;}
	.st15{fill:#FFE1A7;}
	.st16{fill:#FFEFD2;}
</style>
<g>
	<path class="st0" d="M114.5,111H72.8v-5.9h41.6c1.6,0,3-1.3,3-3h5.9C123.4,107,119.4,111,114.5,111"/>
	<path class="st1" d="M72.8,111H31.2c-4.9,0-8.9-4-8.9-8.9h5.9c0,1.6,1.3,3,3,3h41.6V111z"/>
	<polygon class="st2" points="174.7,149.6 162.8,155.6 174.7,161.5 192.6,161.5 192.6,149.6 	"/>
	<rect x="138.3" y="149.6" class="st3" width="36.5" height="11.9"/>
	<polygon class="st4" points="174.7,108.7 162.8,114.6 174.7,120.6 192.6,120.6 192.6,108.7 	"/>
	<rect x="138.3" y="108.7" class="st5" width="36.5" height="11.9"/>
	<polygon class="st0" points="174.7,67.7 162.8,73.7 174.7,79.6 192.6,79.6 192.6,67.7 	"/>
	<rect x="138.3" y="67.7" class="st1" width="36.5" height="11.9"/>
	<polygon class="st6" points="174.7,26.8 162.8,32.7 174.7,38.7 192.6,38.7 192.6,26.8 	"/>
	<rect x="138.3" y="26.8" class="st7" width="36.5" height="11.9"/>
	<polygon class="st4" points="120.4,8.9 108.5,17.8 120.4,26.8 138.3,26.8 138.3,8.9 	"/>
	<rect x="7.4" y="8.9" class="st5" width="113" height="17.8"/>
	<path class="st0" d="M82.8,100.1H70.9v37.6h19.8V108C90.7,103.7,87.1,100.1,82.8,100.1"/>
	<path class="st1" d="M70.9,100.1h-7.9c-4.4,0-7.9,3.6-7.9,7.9v29.7h23.8V108C78.8,103.7,75.2,100.1,70.9,100.1"/>
	<path class="st8" d="M90.7,131.8H78.8v23.6h17.8l0-10.4C96.6,139.7,94.4,135.1,90.7,131.8"/>
	<path class="st9" d="M78.8,131.8H55c-3.7,3.3-5.9,7.8-5.9,13.2v10.4h35.7V145C84.7,139.7,82.5,135.1,78.8,131.8"/>
	<polygon class="st10" points="96.6,149.6 84.7,155.6 96.6,161.5 108.5,161.5 108.5,149.6 	"/>
	<rect x="37.2" y="149.6" class="st11" width="59.5" height="11.9"/>
	<path class="st12" d="M138.3,3c-3.3,0-5.9,2.7-5.9,5.9V200h11.9V8.9C144.2,5.6,141.5,3,138.3,3"/>
	<path class="st12" d="M7.4,3c3.3,0,5.9,2.7,5.9,5.9V200H1.5V8.9C1.5,5.6,4.1,3,7.4,3"/>
	<path class="st13" d="M83.5,56.1H72.8v32.1c9.9,0,17.8-8,17.8-17.8C90.7,64.5,87.9,59.3,83.5,56.1"/>
	<path class="st14" d="M78.1,61.9c0.5,2.5,0.7,5.4,0.7,8.5c0,9.9-2.7,17.8-5.9,17.8c-9.9,0-17.8-8-17.8-17.8L78.1,61.9z"/>
	<path class="st15" d="M83.5,56.1c-1.6,2.1-3.4,4.1-5.5,5.8l-5.2-9.4C76.9,52.5,80.6,53.9,83.5,56.1"/>
	<path class="st16" d="M55,70.4c0-9.9,8-17.8,17.8-17.8c2.3,0,4.2,3.8,5.2,9.4C71.9,67.2,63.8,70.4,55,70.4"/>
	<path class="st12" d="M192.6,3c-3.3,0-5.9,2.7-5.9,5.9V200h11.9V8.9C198.5,5.6,195.9,3,192.6,3"/>
	<path class="st12" d="M37.2,164.5c-1.6,0-3-1.3-3-3V3c0-1.6,1.3-3,3-3c1.6,0,3,1.3,3,3v158.5C40.1,163.2,38.8,164.5,37.2,164.5"/>
	<path class="st12" d="M108.5,164.5c-1.6,0-3-1.3-3-3V3c0-1.6,1.3-3,3-3c1.6,0,3,1.3,3,3v158.6C111.5,163.2,110.2,164.5,108.5,164.5
		"/>
	<path class="st14" d="M61,140.7c-1.6,0-3,1.3-3,3v36.6l-5.2,10.5c-0.7,1.5-0.1,3.3,1.3,4c1.5,0.7,3.3,0.1,4-1.3l5.5-11.1
		c0.2-0.4,0.3-0.8,0.3-1.3v-37.3C63.9,142,62.6,140.7,61,140.7"/>
	<path class="st13" d="M84.7,140.7c1.6,0,3,1.3,3,3v36.6l5.2,10.5c0.7,1.5,0.1,3.3-1.3,4c-1.5,0.7-3.3,0.1-4-1.3l-5.5-11.1
		c-0.2-0.4-0.3-0.8-0.3-1.3v-37.3C81.8,142,83.1,140.7,84.7,140.7"/>
	<path class="st1" d="M120.4,105.1c-1.6,0-3-1.3-3-3c0-1.6-1.3-3-3-3h-5.9c-1.6,0-3-1.3-3-3c0-1.6,1.3-3,3-3h5.9
		c4.9,0,8.9,4,8.9,8.9C123.4,103.7,122.1,105.1,120.4,105.1"/>
	<path class="st1" d="M25.3,105.1c-1.6,0-3-1.3-3-3c0-4.9,4-8.9,8.9-8.9h5.9c1.6,0,3,1.3,3,3c0,1.6-1.3,3-3,3h-5.9c-1.6,0-3,1.3-3,3
		C28.2,103.7,26.9,105.1,25.3,105.1"/>
</g>
</svg>
