<?xml version="1.0" encoding="utf-8"?>
<!-- Generator: Adobe Illustrator 21.0.0, SVG Export Plug-In . SVG Version: 6.00 Build 0)  -->
<svg version="1.1" id="Warstwa_1" xmlns="http://www.w3.org/2000/svg" xmlns:xlink="http://www.w3.org/1999/xlink" x="0px" y="0px"
	 viewBox="0 0 200 200" style="enable-background:new 0 0 200 200;" xml:space="preserve">
<style type="text/css">
	.st0{fill:#FFE6DD;}
	.st1{fill:#E46161;}
	.st2{fill:#F8D7CC;}
	.st3{fill:#D55858;}
	.st4{fill:#F19B9B;}
</style>
<g>
	<path class="st0" d="M193.5,90.3c3.6,0,6.5,2.9,6.5,6.5c0,3.6-2.9,6.5-6.5,6.5c-3.6,0-6.5-2.9-6.5-6.5
		C187.1,93.2,190,90.3,193.5,90.3"/>
	<path class="st0" d="M174.2,74.2c3.6,0,6.5,2.9,6.5,6.5c0,3.6-2.9,6.5-6.5,6.5c-3.6,0-6.5-2.9-6.5-6.5
		C167.7,77.1,170.6,74.2,174.2,74.2"/>
	<path class="st0" d="M148.4,67.7c3.6,0,6.5,2.9,6.5,6.5c0,3.6-2.9,6.5-6.5,6.5c-3.6,0-6.5-2.9-6.5-6.5
		C141.9,70.6,144.8,67.7,148.4,67.7"/>
	<path class="st0" d="M122.6,71c3.6,0,6.5,2.9,6.5,6.5c0,3.6-2.9,6.5-6.5,6.5c-3.6,0-6.5-2.9-6.5-6.5C116.1,73.9,119,71,122.6,71"/>
	<path class="st0" d="M93.5,83.9c5.3,0,9.7,4.3,9.7,9.7c0,5.3-4.3,9.7-9.7,9.7c-5.3,0-9.7-4.3-9.7-9.7
		C83.9,88.2,88.2,83.9,93.5,83.9"/>
	<path class="st0" d="M6.5,22.6c3.6,0,6.5,2.9,6.5,6.5c0,3.6-2.9,6.5-6.5,6.5C2.9,35.5,0,32.6,0,29C0,25.5,2.9,22.6,6.5,22.6"/>
	<path class="st0" d="M25.8,6.5c3.6,0,6.5,2.9,6.5,6.5c0,3.6-2.9,6.5-6.5,6.5c-3.6,0-6.5-2.9-6.5-6.5C19.4,9.3,22.2,6.5,25.8,6.5"/>
	<path class="st0" d="M51.6,0c3.6,0,6.5,2.9,6.5,6.5c0,3.6-2.9,6.5-6.5,6.5c-3.6,0-6.5-2.9-6.5-6.5C45.2,2.9,48.1,0,51.6,0"/>
	<path class="st0" d="M77.4,3.2c3.6,0,6.5,2.9,6.5,6.5c0,3.6-2.9,6.5-6.5,6.5c-3.6,0-6.5-2.9-6.5-6.5C71,6.1,73.9,3.2,77.4,3.2"/>
	<path class="st0" d="M106.5,16.1c5.3,0,9.7,4.3,9.7,9.7c0,5.3-4.3,9.7-9.7,9.7c-5.3,0-9.7-4.3-9.7-9.7
		C96.8,20.5,101.1,16.1,106.5,16.1"/>
	<path class="st0" d="M136.5,151.8c0-12.6-26.8-15.2-26.8-32.9c0-14.1,11.8-25.4,26.1-25.4h13.9c24.2,0,42,22.3,36.3,45.5l-9.5,38.2
		c-1.3,12.8-12.3,22.8-25.6,22.8c-1,0-2-0.1-3-0.2c-16.1-1.8-24.9-19.6-16.6-33.4C133.5,162.8,136.5,159.6,136.5,151.8"/>
	<path class="st0" d="M63.5,84.1c0-12.6,26.8-15.2,26.8-32.9c0-14.1-11.8-25.4-26.1-25.4H50.3c-24.2,0-42,22.3-36.3,45.5l9.5,38.2
		c1.3,12.8,12.3,23,25.6,23c1,0,2-0.1,3-0.2c16.1-1.8,24.9-19.8,16.6-33.5C66.5,95.1,63.5,91.8,63.5,84.1"/>
	<path class="st1" d="M54.8,41.9c-2.4,0-4.7,0.9-6.5,2.5c-4-3.6-10.1-3.2-13.7,0.8c-1.6,1.8-2.5,4.1-2.5,6.5
		c0,9.7,16.1,16.1,16.1,16.1s16.1-6.5,16.1-16.1C64.5,46.3,60.2,41.9,54.8,41.9"/>
	<path class="st1" d="M154.8,109.7c-2.4,0-4.7,0.9-6.5,2.5c-4-3.6-10.1-3.2-13.7,0.8c-1.6,1.8-2.5,4.1-2.5,6.5
		c0,9.7,16.1,16.1,16.1,16.1s16.1-6.5,16.1-16.1C164.5,114,160.2,109.7,154.8,109.7"/>
	<path class="st2" d="M68.7,98.7c-1.5-2.5-3.3-4.8-4.4-8.4C52.7,100.3,38,106,22.7,106.4l0.7,3c1.3,12.8,12.3,23,25.6,23
		c1,0,2-0.1,3-0.2C68.2,130.4,76.9,112.5,68.7,98.7"/>
	<path class="st2" d="M183.3,149.8c-11.9,18.9-32.6,30.5-55,30.8c1.3,10.2,9.4,18.1,19.6,19.2c1,0.1,2,0.2,3,0.2
		c13.4,0,24.4-10,25.6-22.8L183.3,149.8z"/>
	<path class="st3" d="M40.1,63.2c2.6,1.8,5.4,3.3,8.3,4.6c0,0,16.1-6.5,16.1-16.1c0-2.7-1.1-5.2-3-7C57.4,53.6,49.6,60.4,40.1,63.2"
		/>
	<path class="st3" d="M140.1,130.9c2.6,1.8,5.4,3.3,8.3,4.6c0,0,16.1-6.5,16.1-16.1c0-2.7-1.1-5.2-3-7
		C157.4,121.3,149.6,128.1,140.1,130.9"/>
	<path class="st4" d="M40.3,43.5c2.7,0,4.8,2.2,4.8,4.8s-2.2,4.8-4.8,4.8c-2.7,0-4.8-2.2-4.8-4.8S37.6,43.5,40.3,43.5"/>
	<path class="st4" d="M140.3,112.9c2.7,0,4.8,2.2,4.8,4.8c0,2.7-2.2,4.8-4.8,4.8c-2.7,0-4.8-2.2-4.8-4.8
		C135.5,115.1,137.6,112.9,140.3,112.9"/>
	<path class="st2" d="M6.5,35.5c3.6,0,6.4-2.9,6.4-6.4c0-2.3-1.2-4.5-3.3-5.6c-0.4,4.7-4.1,8.4-8.8,8.8C2,34.2,4.1,35.5,6.5,35.5"/>
	<path class="st2" d="M25.8,19.4c3.6,0,6.4-2.9,6.4-6.4c0-2.3-1.2-4.5-3.3-5.6c-0.4,4.7-4.1,8.4-8.8,8.8
		C21.3,18.1,23.5,19.4,25.8,19.4"/>
	<path class="st2" d="M51.6,12.9c3.6,0,6.4-2.9,6.4-6.4c0-2.3-1.2-4.5-3.3-5.6c-0.4,4.7-4.1,8.4-8.8,8.8
		C47.2,11.7,49.3,12.9,51.6,12.9"/>
	<path class="st2" d="M77.4,16.1c3.6,0,6.4-2.9,6.4-6.4c0-2.3-1.2-4.5-3.3-5.6c-0.4,4.7-4.1,8.4-8.8,8.8
		C73,14.9,75.1,16.1,77.4,16.1"/>
	<path class="st2" d="M122.6,83.9c3.6,0,6.4-2.9,6.4-6.4c0-2.3-1.2-4.5-3.3-5.6c-0.4,4.7-4.1,8.4-8.8,8.8
		C118.1,82.6,120.3,83.9,122.6,83.9"/>
	<path class="st2" d="M148.4,80.6c3.6,0,6.4-2.9,6.4-6.4c0-2.3-1.2-4.5-3.3-5.6c-0.4,4.7-4.1,8.4-8.8,8.8
		C143.9,79.4,146.1,80.6,148.4,80.6"/>
	<path class="st2" d="M174.2,87.1c3.6,0,6.4-2.9,6.4-6.4c0-2.3-1.2-4.5-3.3-5.6c-0.4,4.7-4.1,8.4-8.8,8.8
		C169.7,85.8,171.9,87.1,174.2,87.1"/>
	<path class="st2" d="M193.5,103.2c3.6,0,6.4-2.9,6.4-6.4c0-2.3-1.2-4.5-3.3-5.6c-0.4,4.7-4.1,8.4-8.8,8.8
		C189.1,102,191.2,103.2,193.5,103.2"/>
	<path class="st2" d="M112.9,18.6c0,0.3,0,0.5,0,0.8c0,7.1-5.8,12.9-12.9,12.9c-0.3,0-0.5,0-0.8,0c3.5,4,9.7,4.4,13.7,0.8
		c4-3.5,4.4-9.7,0.8-13.7C113.5,19.1,113.2,18.8,112.9,18.6"/>
	<path class="st2" d="M100,86.3c0,0.3,0,0.5,0,0.8c0,7.1-5.8,12.9-12.9,12.9c-0.3,0-0.5,0-0.8,0c3.5,4,9.7,4.4,13.7,0.8
		c4-3.5,4.4-9.7,0.8-13.7C100.6,86.9,100.3,86.6,100,86.3"/>
</g>
</svg>
