<?xml version="1.0" encoding="utf-8"?>
<!-- Generator: Adobe Illustrator 21.0.0, SVG Export Plug-In . SVG Version: 6.00 Build 0)  -->
<svg version="1.1" id="Layer_1" xmlns="http://www.w3.org/2000/svg" xmlns:xlink="http://www.w3.org/1999/xlink" x="0px" y="0px"
	 viewBox="0 0 50 50" style="enable-background:new 0 0 50 50;" xml:space="preserve">
		<path d="M25,0C11.216,0,0,11.216,0,25s11.216,25,25,25s25-11.216,25-25S38.784,0,25,0z M25,45C13.972,45,5,36.028,5,25
			S13.972,5,25,5s20,8.972,20,20S36.028,45,25,45L25,45z M35,22.5v10c0,1.382-1.118,2.5-2.5,2.5h-10c-1.382,0-2.5-1.118-2.5-2.5
			c0-1.382,1.118-2.5,2.5-2.5h3.965L15.732,19.268c-0.977-0.977-0.977-2.559,0-3.535s2.559-0.977,3.535,0L30,26.465V22.5
			c0-1.382,1.118-2.5,2.5-2.5C33.882,20,35,21.118,35,22.5L35,22.5z"/>
</svg>
