<?xml version="1.0" encoding="utf-8"?>
<!-- Generator: Adobe Illustrator 21.0.0, SVG Export Plug-In . SVG Version: 6.00 Build 0)  -->
<svg version="1.1" id="Layer_1" xmlns="http://www.w3.org/2000/svg" xmlns:xlink="http://www.w3.org/1999/xlink" x="0px" y="0px"
	 viewBox="0 0 50 50" style="enable-background:new 0 0 50 50;" xml:space="preserve">
<path d="M25,50C11.193,50,0,38.807,0,25S11.193,0,25,0s25,11.193,25,25C49.985,38.801,38.801,49.985,25,50z M25,5
		C13.954,5,5,13.954,5,25s8.954,20,20,20s20-8.954,20-20C44.988,13.959,36.041,5.012,25,5z"/>
	<path d="M32.5,17.5h-15c-1.381,0-2.5-1.119-2.5-2.5s1.119-2.5,2.5-2.5h15c1.381,0,2.5,1.119,2.5,2.5S33.881,17.5,32.5,17.5z"/>
	<path d="M32.5,27.5h-15c-1.381,0-2.5-1.119-2.5-2.5s1.119-2.5,2.5-2.5h15c1.381,0,2.5,1.119,2.5,2.5S33.881,27.5,32.5,27.5z"/>
	<path d="M32.5,37.5h-15c-1.381,0-2.5-1.119-2.5-2.5c0-1.381,1.119-2.5,2.5-2.5h15c1.381,0,2.5,1.119,2.5,2.5
		C35,36.381,33.881,37.5,32.5,37.5z"/>
</svg>
