<?xml version="1.0" encoding="utf-8"?>
<!-- Generator: Adobe Illustrator 21.0.0, SVG Export Plug-In . SVG Version: 6.00 Build 0)  -->
<svg version="1.1" id="Layer_1" xmlns="http://www.w3.org/2000/svg" xmlns:xlink="http://www.w3.org/1999/xlink" x="0px" y="0px"
	 viewBox="0 0 50 50" style="enable-background:new 0 0 50 50;" xml:space="preserve">
<path d="M42.678,7.322c-9.747-9.747-25.608-9.747-35.355,0s-9.747,25.608,0,35.355s25.608,9.747,35.355,0
			S52.425,17.069,42.678,7.322z M10.858,39.142c-7.798-7.798-7.798-20.486,0-28.284s20.486-7.798,28.284,0s7.798,20.486,0,28.284
			S18.656,46.94,10.858,39.142L10.858,39.142z M33.839,30.303l-7.071,7.071c-0.977,0.977-2.558,0.977-3.535,0l-7.071-7.071
			c-0.977-0.977-0.977-2.558,0-3.535c0.977-0.977,2.558-0.977,3.535,0l2.804,2.804V14.393c0-1.381,1.119-2.5,2.5-2.5
			s2.5,1.119,2.5,2.5v15.178l2.804-2.804c0.977-0.977,2.558-0.977,3.535,0C34.816,27.745,34.816,29.326,33.839,30.303L33.839,30.303
			z"/>
</svg>
