			<!-- 
			#icon-sample-004-home
			#icon-sample-004-o-firmie
			#icon-sample-004-oferta
			#icon-sample-004-oferta-1
			#icon-sample-004-oferta-2
			#icon-sample-004-oferta-3
			#icon-sample-004-galeria
			#icon-sample-004-statystyki
			#icon-sample-004-wspolpraca
			#icon-sample-004-kontakt
			#icon-sample-004-telefon
			#icon-sample-004-mail
			#icon-sample-004-adres
			#icon-sample-004-checked
			#icon-sample-004-menu
			#icon-sample-004-close
			#icon-sample-004-top
			#icon-sample-004-clock
			#icon-sample-004-zespol
			#icon-sample-004-opinie
			#icon-sample-004-cytat
			#icon-sample-004-socialmedia
			-->

<svg aria-hidden="true" style="position: absolute; width: 0; height: 0; overflow: hidden;" version="1.1" xmlns="http://www.w3.org/2000/svg" xmlns:xlink="http://www.w3.org/1999/xlink" x="0px" y="0px">
<defs>
<symbol id="icon-sample-004-home" viewBox="0 0 50 50" >
<path d="M46.1,10.3L28.6,0.9c-2.3-1.2-5-1.2-7.2,0L3.9,10.3C1.5,11.5,0,14,0,16.7v26c0,4,3.4,7.3,7.5,7.3H15h20h7.5
		c4.1,0,7.5-3.3,7.5-7.3v-26C50,14,48.5,11.5,46.1,10.3z M20,45V35c0-2.8,2.2-5,5-5s5,2.2,5,5v10H20z M45,42.7
		c0,1.3-1.1,2.3-2.5,2.3H35V35c0-5.5-4.5-10-10-10s-10,4.5-10,10v10H7.5C6.1,45,5,44,5,42.7v-26c0-0.8,0.5-1.6,1.3-2l17.5-9.4
		C24.1,5.1,24.6,5,25,5s0.9,0.1,1.3,0.3l17.5,9.4c0.8,0.4,1.3,1.2,1.3,2V42.7z"/>
</symbol>
<symbol id="icon-sample-004-o-firmie" viewBox="0 0 50 50" >
<path d="M47.7,18.2H36.4v-6.8c0-1.3-1-2.3-2.3-2.3l-0.8,0V2.3c0-1.3-1-2.3-2.3-2.3H18.9c-1.3,0-2.3,1-2.3,2.3v6.8h-0.8c0,0,0,0,0,0
	c-0.6,0-1.2,0.2-1.6,0.7c-0.4,0.4-0.7,1-0.7,1.6v6.8H2.3c-1.3,0-2.3,1-2.3,2.3v27.3C0,49,1,50,2.3,50h13.6c0,0,0,0,0,0c0,0,0,0,0,0
	h18.2c0,0,0,0,0,0c0,0,0,0,0,0h13.6c1.3,0,2.3-1,2.3-2.3V20.5C50,19.2,49,18.2,47.7,18.2z M21.2,4.5h7.6v4.5h-7.6V4.5z M4.5,31.8
	h9.1v4.5H4.5C4.5,36.4,4.5,31.8,4.5,31.8z M31.8,27.3H18.2v-4.5h13.6V27.3z M18.2,13.6l13.6,0v4.5H18.2
	C18.2,18.2,18.2,13.6,18.2,13.6z M18.2,31.8h13.6v4.5H18.2C18.2,36.4,18.2,31.8,18.2,31.8z M36.4,31.8h9.1v4.5h-9.1V31.8z
	 M45.5,22.7v4.5h-9.1v-4.5H45.5z M13.6,22.7v4.5H4.5v-4.5H13.6z M4.5,45.5v-4.5h9.1v4.5H4.5z M18.2,45.5v-4.5h13.6v4.5H18.2z
	 M36.4,45.5v-4.5h9.1v4.5H36.4z"/>
</symbol>
<symbol id="icon-sample-004-oferta" viewBox="0 0 50 50" >
	<path d="M42.5,7.5H35V5c0-2.758-2.244-5-5-5H20c-2.756,0-5,2.242-5,5v2.5H7.5C3.364,7.5,0,10.864,0,15v5
		c0,2.208,0.977,4.176,2.5,5.549V42.5c0,4.136,3.364,7.5,7.5,7.5h30c4.136,0,7.5-3.364,7.5-7.5V25.549
		C49.023,24.176,50,22.208,50,20v-5C50,10.864,46.636,7.5,42.5,7.5z M20,5h10v2.5H20V5z M5,15c0-1.378,1.121-2.5,2.5-2.5h35
		c1.379,0,2.5,1.122,2.5,2.5v5c0,1.378-1.121,2.5-2.5,2.5h-5c0-1.381-1.118-2.5-2.5-2.5s-2.5,1.119-2.5,2.5h-15
		c0-1.381-1.118-2.5-2.5-2.5s-2.5,1.119-2.5,2.5h-5C6.121,22.5,5,21.378,5,20V15z M42.5,42.5c0,1.378-1.121,2.5-2.5,2.5H10
		c-1.379,0-2.5-1.122-2.5-2.5v-15h5c0,1.381,1.118,2.5,2.5,2.5s2.5-1.119,2.5-2.5h15c0,1.381,1.118,2.5,2.5,2.5s2.5-1.119,2.5-2.5h5
		V42.5z"/>
</symbol>
<symbol id="icon-sample-004-oferta-1" viewBox="0 0 50 50" >
		<path d="M25,0C11.216,0,0,11.216,0,25s11.216,25,25,25s25-11.216,25-25S38.784,0,25,0z M25,45C13.972,45,5,36.028,5,25
			S13.972,5,25,5s20,8.972,20,20S36.028,45,25,45L25,45z M35,22.5v10c0,1.382-1.118,2.5-2.5,2.5h-10c-1.382,0-2.5-1.118-2.5-2.5
			c0-1.382,1.118-2.5,2.5-2.5h3.965L15.732,19.268c-0.977-0.977-0.977-2.559,0-3.535s2.559-0.977,3.535,0L30,26.465V22.5
			c0-1.382,1.118-2.5,2.5-2.5C33.882,20,35,21.118,35,22.5L35,22.5z"/>
</symbol>
<symbol id="icon-sample-004-oferta-2" viewBox="0 0 50 50" >
<path d="M42.678,7.322c-9.747-9.747-25.608-9.747-35.355,0s-9.747,25.608,0,35.355s25.608,9.747,35.355,0
			S52.425,17.069,42.678,7.322z M10.858,39.142c-7.798-7.798-7.798-20.486,0-28.284s20.486-7.798,28.284,0s7.798,20.486,0,28.284
			S18.656,46.94,10.858,39.142L10.858,39.142z M33.839,30.303l-7.071,7.071c-0.977,0.977-2.558,0.977-3.535,0l-7.071-7.071
			c-0.977-0.977-0.977-2.558,0-3.535c0.977-0.977,2.558-0.977,3.535,0l2.804,2.804V14.393c0-1.381,1.119-2.5,2.5-2.5
			s2.5,1.119,2.5,2.5v15.178l2.804-2.804c0.977-0.977,2.558-0.977,3.535,0C34.816,27.745,34.816,29.326,33.839,30.303L33.839,30.303
			z"/>
</symbol>
<symbol id="icon-sample-004-oferta-3" viewBox="0 0 50 50" >
<path d="M50,25C50,11.216,38.784,0,25,0C11.216,0,0,11.216,0,25c0,13.784,11.216,25,25,25S50,38.784,50,25z M5,25
			C5,13.972,13.972,5,25,5s20,8.972,20,20s-8.972,20-20,20S5,36.028,5,25L5,25z M27.5,35h-10c-1.382,0-2.5-1.118-2.5-2.5v-10
			c0-1.382,1.118-2.5,2.5-2.5c1.382,0,2.5,1.118,2.5,2.5v3.965l10.732-10.732c0.977-0.977,2.559-0.977,3.535,0
			c0.977,0.977,0.977,2.559,0,3.535L23.535,30H27.5c1.382,0,2.5,1.118,2.5,2.5C30,33.882,28.882,35,27.5,35L27.5,35z"/>
</symbol>
<symbol id="icon-sample-004-galeria" viewBox="0 0 50 50" >
		<path d="M10,17.5c-0.65,0-1.3,0.275-1.775,0.728C7.773,18.708,7.5,19.36,7.5,20.015s0.273,1.305,0.725,1.788
			c0.95,0.93,2.6,0.93,3.55,0c0.45-0.483,0.725-1.132,0.725-1.788s-0.275-1.307-0.725-1.788C11.3,17.775,10.65,17.5,10,17.5z"/>
		<path d="M42.5,10h-5.955l-1.81-3.617C34.313,5.535,33.447,5,32.5,5h-15c-0.947,0-1.813,0.535-2.238,1.382L13.455,10H7.5
			C3.365,10,0,13.365,0,17.5v20C0,41.635,3.365,45,7.5,45h35c4.135,0,7.5-3.365,7.5-7.5v-20C50,13.365,46.635,10,42.5,10z M45,37.5
			c0,1.38-1.122,2.5-2.5,2.5h-35C6.123,40,5,38.88,5,37.5v-20C5,16.12,6.123,15,7.5,15H15c0.947,0,1.813-0.535,2.238-1.382
			L19.045,10h11.91l1.81,3.618C33.188,14.465,34.053,15,35,15h7.5c1.378,0,2.5,1.12,2.5,2.5V37.5z"/>
		<path d="M25,17.5c-5.515,0-10,4.485-10,10s4.485,10,10,10s10-4.485,10-10S30.515,17.5,25,17.5z M25,32.5c-2.757,0-5-2.243-5-5
			s2.243-5,5-5s5,2.243,5,5S27.757,32.5,25,32.5z"/>
</symbol>
<symbol id="icon-sample-004-statystyki" viewBox="0 0 50 50" >
	<path d="M50,47.5c0,1.382-1.119,2.5-2.5,2.5h-40C3.364,50,0,46.636,0,42.5v-40C0,1.118,1.119,0,2.5,0S5,1.118,5,2.5v40
		C5,43.879,6.122,45,7.5,45H10V32.5c0-1.382,1.119-2.5,2.5-2.5s2.5,1.118,2.5,2.5V45h5V25c0-1.382,1.119-2.5,2.5-2.5
		S25,23.618,25,25v20h5V27.5c0-1.382,1.119-2.5,2.5-2.5s2.5,1.118,2.5,2.5V45h5V20c0-1.382,1.119-2.5,2.5-2.5S45,18.618,45,20v25
		h2.5C48.881,45,50,46.118,50,47.5z M45,0h-5c-1.381,0-2.5,1.118-2.5,2.5S38.619,5,40,5h1.465L32.5,13.965l-5.732-5.732
		c-0.977-0.977-2.559-0.977-3.535,0l-12.5,12.5c-0.977,0.977-0.977,2.559,0,3.535C11.221,24.756,11.86,25,12.5,25
		s1.279-0.244,1.768-0.732L25,13.535l5.732,5.732c0.977,0.977,2.559,0.977,3.535,0L45,8.535V10c0,1.382,1.119,2.5,2.5,2.5
		S50,11.382,50,10V5C50,2.244,47.758,0,45,0z"/>
</symbol>
<symbol id="icon-sample-004-wspolpraca" viewBox="0 0 50 50" >
<path d="M32.5,7.5C32.5,3.364,29.136,0,25,0s-7.5,3.364-7.5,7.5S20.864,15,25,15S32.5,11.636,32.5,7.5z M25,10
		c-1.379,0-2.5-1.121-2.5-2.5S23.621,5,25,5s2.5,1.121,2.5,2.5S26.379,10,25,10z M17.5,22.5V25c0,1.382,1.118,2.5,2.5,2.5h10
		c1.382,0,2.5-1.118,2.5-2.5v-2.5c0-4.136-3.364-7.5-7.5-7.5S17.5,18.364,17.5,22.5z M25,20c1.379,0,2.5,1.121,2.5,2.5h-5
		C22.5,21.121,23.621,20,25,20z M50,30c0-4.136-3.364-7.5-7.5-7.5S35,25.864,35,30s3.364,7.5,7.5,7.5S50,34.136,50,30z M42.5,32.5
		c-1.379,0-2.5-1.121-2.5-2.5s1.121-2.5,2.5-2.5S45,28.621,45,30S43.879,32.5,42.5,32.5z M42.5,37.5c-4.136,0-7.5,3.364-7.5,7.5v2.5
		c0,1.382,1.118,2.5,2.5,2.5h10c1.382,0,2.5-1.118,2.5-2.5V45C50,40.864,46.636,37.5,42.5,37.5z M40,45c0-1.379,1.121-2.5,2.5-2.5
		S45,43.621,45,45H40z M15,30c0-4.136-3.364-7.5-7.5-7.5S0,25.864,0,30s3.364,7.5,7.5,7.5S15,34.136,15,30z M7.5,32.5
		C6.121,32.5,5,31.379,5,30s1.121-2.5,2.5-2.5S10,28.621,10,30S8.879,32.5,7.5,32.5z M0,45v2.5C0,48.882,1.118,50,2.5,50h10
		c1.382,0,2.5-1.118,2.5-2.5V45c0-4.136-3.364-7.5-7.5-7.5S0,40.864,0,45z M7.5,42.5c1.379,0,2.5,1.121,2.5,2.5H5
		C5,43.621,6.121,42.5,7.5,42.5z M31.768,40.732c0.977,0.977,0.977,2.559,0,3.535C31.279,44.756,30.64,45,30,45
		s-1.279-0.244-1.768-0.732L25,41.035l-3.232,3.232C21.279,44.756,20.64,45,20,45s-1.279-0.244-1.768-0.732
		c-0.977-0.977-0.977-2.559,0-3.535l4.268-4.268V32.5c0-1.382,1.118-2.5,2.5-2.5s2.5,1.118,2.5,2.5v3.965L31.768,40.732z"/>
</symbol>
<symbol id="icon-sample-004-kontakt" viewBox="0 0 50 50" >
<path d="M41.46,0H8.481C5.053,0,2.275,2.778,2.275,6.206v37.589C2.275,47.222,5.053,50,8.481,50h33.038
				c3.428,0,6.206-2.778,6.206-6.206V6.206C47.665,2.778,44.888,0,41.46,0z M44.77,43.794H44.71c0,1.773-1.478,3.251-3.251,3.251
				H13.268V2.955h28.251c1.773,0,3.251,1.478,3.251,3.251V43.794z"/>
			<path d="M29.108,10.757c-3.96,0-7.21,3.251-7.21,7.21c0,4.019,3.251,7.21,7.21,7.27c3.96,0,7.21-3.251,7.21-7.21
				S33.067,10.757,29.108,10.757z"/>
			<path d="M41.046,32.151c-2.6-4.019-7.092-6.501-11.939-6.442c-4.846-0.059-9.338,2.423-11.939,6.442
				c-0.709,1.005-1.064,2.246-1.005,3.487v2.128c0,0.827,0.65,1.478,1.478,1.478h22.931c0.827,0,1.478-0.65,1.478-1.478v-2.128
				C42.051,34.397,41.696,33.215,41.046,32.151z"/>
</symbol>
<symbol id="icon-sample-004-telefon" viewBox="0 0 50 50" >
<path d="M35.519,0H14.481c-2.013,0-3.639,1.633-3.639,3.642v42.719c0,2.008,1.625,3.639,3.639,3.639h21.037
		c2.01,0,3.639-1.631,3.639-3.639V3.642C39.157,1.633,37.528,0,35.519,0z M19.809,2.212h10.386c0.262,0,0.476,0.392,0.476,0.876
		s-0.213,0.878-0.476,0.878H19.809c-0.264,0-0.474-0.394-0.474-0.878C19.335,2.604,19.545,2.212,19.809,2.212z M25.002,46.405
		c-1.281,0-2.323-1.042-2.323-2.325c0-1.283,1.042-2.321,2.323-2.321c1.277,0,2.319,1.039,2.319,2.321
		C27.321,45.363,26.279,46.405,25.002,46.405z M36.431,38.445H13.57V6.146h22.861C36.431,6.146,36.431,38.445,36.431,38.445z"/>
</symbol>
<symbol id="icon-sample-004-mail" viewBox="0 0 50 50" >
		<path d="M46.667,6.667H3.333C1.495,6.667,0,8.162,0,10v30c0,1.838,1.495,3.333,3.333,3.333h43.333C48.505,43.333,50,41.838,50,40
			V10C50,8.162,48.505,6.667,46.667,6.667z M46.667,14.09L35.94,20.985c0.407,1.103,0.648,2.282,0.702,3.512l10.023-6.443L46.662,40
			H3.333V18.053l10.025,6.445c0.053-1.23,0.295-2.408,0.702-3.512L3.333,14.09V10h43.333L46.667,14.09z"/>
		<path d="M30.833,25.833C30.373,25.833,30,25.46,30,25c0-2.757-2.243-5-5-5s-5,2.243-5,5s2.243,5,5,5
			c1.398,0,2.662-0.582,3.572-1.51c0.653,0.425,1.427,0.677,2.262,0.677C33.13,29.167,35,27.297,35,25c0-5.515-4.485-10-10-10
			s-10,4.485-10,10s4.485,10,10,10c2.202,0,4.278-0.693,6.007-2.007c0.733-0.555,0.877-1.602,0.32-2.335
			c-0.555-0.732-1.598-0.877-2.335-0.32c-1.145,0.87-2.525,1.328-3.992,1.328c-3.677,0-6.667-2.99-6.667-6.667
			s2.99-6.667,6.667-6.667s6.667,2.99,6.667,6.667C31.667,25.46,31.293,25.833,30.833,25.833L30.833,25.833z M25,26.667
			c-0.918,0-1.667-0.748-1.667-1.667s0.748-1.667,1.667-1.667c0.918,0,1.667,0.748,1.667,1.667
			C26.667,25.918,25.918,26.667,25,26.667z"/>
</symbol>
<symbol id="icon-sample-004-adres" viewBox="0 0 50 50" >
<path d="M25,0C13.973,0,5,8.972,5,20c0,17.498,17.892,29.12,18.655,29.608C24.065,49.868,24.532,50,25,50s0.935-0.132,1.345-0.392
			C27.108,49.12,45,37.498,45,20C45,8.973,36.027,0,25,0z M25,44.44C21.085,41.525,10,32.195,10,20c0-8.273,6.728-15,15-15
			s15,6.727,15,15C40,32.195,28.913,41.525,25,44.44z"/>
		<path d="M25,12.5c-4.135,0-7.5,3.365-7.5,7.5s3.365,7.5,7.5,7.5s7.5-3.365,7.5-7.5S29.135,12.5,25,12.5z M25,22.5
			c-1.377,0-2.5-1.12-2.5-2.5s1.123-2.5,2.5-2.5s2.5,1.12,2.5,2.5S26.377,22.5,25,22.5z"/>
</symbol>
<symbol id="icon-sample-004-checked" viewBox="0 0 50 50" >
<path class="st0" d="M48.141,5.645c-2.092-1.699-5.102-1.454-6.725,0.544l-21.39,26.372L8.861,18.052
		c-1.665-2.162-4.769-2.567-6.932-0.903c-2.164,1.664-2.569,4.769-0.903,6.935l14.986,19.473c1.665,2.162,4.77,2.568,6.934,0.903
		c0.617-0.475,1.073-1.074,1.396-1.729l24.654-30.393C50.617,10.338,50.234,7.343,48.141,5.645z"/>
</symbol>
<symbol id="icon-sample-004-menu" viewBox="0 0 50 50" >
<path d="M25,50C11.193,50,0,38.807,0,25S11.193,0,25,0s25,11.193,25,25C49.985,38.801,38.801,49.985,25,50z M25,5
		C13.954,5,5,13.954,5,25s8.954,20,20,20s20-8.954,20-20C44.988,13.959,36.041,5.012,25,5z"/>
	<path d="M32.5,17.5h-15c-1.381,0-2.5-1.119-2.5-2.5s1.119-2.5,2.5-2.5h15c1.381,0,2.5,1.119,2.5,2.5S33.881,17.5,32.5,17.5z"/>
	<path d="M32.5,27.5h-15c-1.381,0-2.5-1.119-2.5-2.5s1.119-2.5,2.5-2.5h15c1.381,0,2.5,1.119,2.5,2.5S33.881,27.5,32.5,27.5z"/>
	<path d="M32.5,37.5h-15c-1.381,0-2.5-1.119-2.5-2.5c0-1.381,1.119-2.5,2.5-2.5h15c1.381,0,2.5,1.119,2.5,2.5
		C35,36.381,33.881,37.5,32.5,37.5z"/>
</symbol>
<symbol id="icon-sample-004-close" viewBox="0 0 50 50" >
		<path d="M25,0C11.2,0,0,11.2,0,25s11.2,25,25,25s25-11.2,25-25S38.8,0,25,0z M25,45C14,45,5,36,5,25S14,5,25,5s20,9,20,20
			S36,45,25,45z"/>
		<path d="M34.3,15.7c-1-1-2.6-1-3.5,0L25,21.5l-5.7-5.7c-1-1-2.6-1-3.5,0s-1,2.6,0,3.5l5.7,5.7l-5.7,5.7c-1,1-1,2.6,0,3.5
			c0.5,0.5,1.1,0.7,1.8,0.7c0.6,0,1.3-0.2,1.8-0.7l5.7-5.7l5.7,5.7c0.5,0.5,1.1,0.7,1.8,0.7c0.6,0,1.3-0.2,1.8-0.7c1-1,1-2.6,0-3.5
			L28.5,25l5.7-5.7C35.2,18.3,35.2,16.7,34.3,15.7L34.3,15.7z"/>
</symbol>
<symbol id="icon-sample-004-top" viewBox="0 0 50 50" >
<path d="M19,49.6V27.4H9.1L25,11.6l15.9,15.9H31v22.2c10.9-2.7,19-12.5,19-24.3c0-13.8-11.2-25-25-25c-13.8,0-25,11.2-25,25
			C0,37.1,8.1,46.9,19,49.6z"/>
</symbol>
<symbol id="icon-sample-004-clock" viewBox="0 0 50 50" >
	<path d="M25,0C11.2,0,0,11.2,0,25s11.2,25,25,25s25-11.2,25-25S38.8,0,25,0z M25,44.7C14.1,44.7,5.3,35.9,5.3,25S14.1,5.3,25,5.3
		S44.7,14.1,44.7,25S35.9,44.7,25,44.7z"/>
	<path d="M35.4,25.3H25.2v-8.9c0-1.5-1.2-2.6-2.6-2.6s-2.6,1.2-2.6,2.6v11.5c0,1.5,1.2,2.6,2.6,2.6h12.9c1.5,0,2.6-1.2,2.6-2.6
		S36.9,25.3,35.4,25.3z"/>
</symbol>
<symbol id="icon-sample-004-zespol" viewBox="0 0 50 50" >
<path d="M48.5,20.6c0-1.6-0.6-3-1.8-4.2c-1.1-1.1-2.6-1.7-4.2-1.7c-3.2,0-5.9,2.6-5.9,5.9s2.6,5.9,5.9,5.9c1.6,0,3-0.6,4.2-1.7
		C47.9,23.7,48.5,22.2,48.5,20.6L48.5,20.6z M42.6,23.5c-1.6,0-2.9-1.3-2.9-2.9c0-1.6,1.3-2.9,2.9-2.9c1.6,0,3,1.3,3,2.9
		C45.6,22.2,44.2,23.5,42.6,23.5z"/>
	<path d="M35.3,31.3c0.3,2.7,0.9,3.7,1.5,4.6c0.7,1.1,1.4,2.3,1.4,9.6V47h8.9v-1.5c0-7.3,0.8-8.5,1.4-9.6c0.6-0.9,1.2-1.9,1.5-4.6
		c0.3-2.6-1.8-4.9-4.4-4.9h-6C37,26.5,35,28.7,35.3,31.3z M45.6,29.4c0.9,0,1.5,0.8,1.5,1.7c-0.2,2-0.6,2.6-1,3.3
		c-1,1.6-1.8,3.3-1.9,9.7h-3c-0.1-6.4-0.9-8.1-1.9-9.7c-0.5-0.7-0.8-1.3-1-3.3c-0.1-0.9,0.6-1.7,1.5-1.7H45.6z"/>
	<path d="M30.9,20.6c0-3.2-2.6-5.9-5.9-5.9s-5.9,2.6-5.9,5.9s2.6,5.9,5.9,5.9S30.9,23.8,30.9,20.6L30.9,20.6z M25,23.5
		c-1.6,0-2.9-1.3-2.9-2.9c0-1.6,1.3-2.9,2.9-2.9s2.9,1.3,2.9,2.9C27.9,22.2,26.6,23.5,25,23.5z"/>
	<path d="M29.4,45.5c0-7.3,0.8-8.5,1.4-9.6c0.6-0.9,1.2-1.9,1.5-4.6c0.3-2.6-1.8-4.9-4.4-4.9h-5.9c-2.6,0-4.6,2.3-4.4,4.9
		c0.3,2.7,0.9,3.7,1.5,4.6c0.7,1.1,1.4,2.3,1.4,9.6V47h8.8V45.5z M29.4,31.1c-0.2,2-0.6,2.6-1,3.3c-1,1.6-1.8,3.3-1.9,9.7h-3
		c-0.1-6.4-0.9-8.1-1.9-9.7c-0.5-0.7-0.8-1.3-1-3.3c-0.1-0.9,0.6-1.7,1.5-1.7h5.9C28.8,29.4,29.5,30.2,29.4,31.1z"/>
	<path d="M39.6,8.9C39.6,5.7,37,3,33.8,3s-5.9,2.6-5.9,5.9s2.6,5.9,5.9,5.9S39.6,12.1,39.6,8.9z M33.8,11.8c-1.6,0-2.9-1.3-2.9-2.9
		S32.2,6,33.8,6c1.6,0,2.9,1.3,2.9,2.9S35.4,11.8,33.8,11.8z"/>
	<path d="M10.4,8.9c0,3.2,2.6,5.9,5.9,5.9s5.9-2.6,5.9-5.9S19.4,3,16.2,3S10.4,5.7,10.4,8.9z M19.1,8.9c0,1.6-1.3,2.9-2.9,2.9
		s-2.9-1.3-2.9-2.9S14.6,6,16.2,6S19.1,7.3,19.1,8.9z"/>
	<path d="M13.3,20.6c0-3.2-2.6-5.9-5.9-5.9s-5.9,2.6-5.9,5.9s2.6,5.9,5.9,5.9S13.3,23.8,13.3,20.6L13.3,20.6z M7.4,23.5
		c-1.6,0-2.9-1.3-2.9-2.9c0-1.6,1.3-2.9,2.9-2.9s2.9,1.3,2.9,2.9C10.4,22.2,9,23.5,7.4,23.5z"/>
	<path d="M0,31.3c0.3,2.7,0.9,3.7,1.5,4.6C2.2,37,3,38.2,3,45.5V47h8.8v-1.5c0-7.3,0.8-8.5,1.4-9.6c0.6-0.9,1.2-1.9,1.5-4.6
		c0.1-1.3-0.3-2.5-1.1-3.4c-0.8-0.9-2-1.4-3.2-1.4h-6C1.8,26.5-0.2,28.7,0,31.3z M10.4,29.4c0.9,0,1.5,0.8,1.5,1.7
		c-0.2,2-0.6,2.6-1,3.3C9.8,36,9,37.7,8.9,44h-3c-0.1-6.4-0.9-8.1-2-9.7c-0.5-0.7-0.8-1.3-1-3.3c-0.1-0.9,0.6-1.7,1.5-1.7L10.4,29.4
		L10.4,29.4z"/>
</symbol>
<symbol id="icon-sample-004-opinie" viewBox="0 0 50 50" >
			<path d="M45.8,29.9c-0.4-1-1.5-1.5-2.5-1.1c-1,0.4-1.5,1.5-1.1,2.5l2.3,5.7l-6.8-3c-0.5-0.2-1.1-0.2-1.6,0
				c-2.3,1-4.8,1.5-7.4,1.5c-10.5,0-17.5-8.2-17.5-15.8C11.1,11,19,3.9,28.6,3.9S46.1,11,46.1,19.7c0,0.7-0.1,1.5-0.2,2.2
				c-0.2,1.1,0.6,2.1,1.6,2.2c1.1,0.2,2.1-0.6,2.2-1.6c0.1-0.9,0.2-1.9,0.2-2.8c0-5.3-2.2-10.3-6.3-14C39.6,2,34.3,0,28.6,0
				s-11,2-15.1,5.7c-3.6,3.3-5.8,7.7-6.2,12.3C2.7,21.1,0,26,0,31.2c0,3.3,1,6.4,3,9.1l-2.9,7.1c-0.3,0.7-0.1,1.6,0.5,2.1
				C1,49.8,1.5,50,2,50c0.3,0,0.5-0.1,0.8-0.2l8.2-3.6c2.1,0.8,4.3,1.2,6.5,1.2c0,0,0.1,0,0.1,0c3.3,0,6.4-0.9,9.2-2.5
				c2.5-1.4,4.5-3.4,5.9-5.8c1.4-0.2,2.7-0.6,4.1-1.1l10.5,4.6c0.3,0.1,0.5,0.2,0.8,0.2c0.5,0,1-0.2,1.4-0.6
				c0.6-0.6,0.7-1.4,0.5-2.1L45.8,29.9z M17.5,43.5C17.5,43.5,17.4,43.5,17.5,43.5c-2.1,0-4-0.4-5.8-1.2c-0.5-0.2-1.1-0.2-1.6,0
				l-4.6,2L7,40.7c0.3-0.7,0.1-1.4-0.3-2c-1.8-2.2-2.8-4.7-2.8-7.5c0-3.1,1.3-6.1,3.6-8.3c0.7,3.9,2.7,7.6,5.8,10.6
				c3.8,3.6,8.8,5.8,14.2,6C25,42,21.3,43.5,17.5,43.5z"/>
			<circle cx="28.5" cy="19.8" r="2"/>
			<circle cx="36.3" cy="19.8" r="2"/>
			<circle cx="20.7" cy="19.8" r="2"/>
</symbol>
<symbol id="icon-sample-004-cytat" viewBox="0 0 50 50" >
	<path d="M21.08,29.326c4.244-4.979,3.752-12.611-1.482-16.971C15.146,8.647,8.565,8.708,4.176,12.49
		c-5.335,4.597-5.558,12.659-0.671,17.547c1.254,1.254,2.717,2.17,4.277,2.751c1.344,0.5,1.705,2.236,0.69,3.25l-3.116,3.116l0,0
		c1.645,1.645,4.311,1.645,5.956,0l9.798-9.798L21.08,29.326z"/>
	<path d="M47.148,29.326c4.244-4.979,3.752-12.611-1.482-16.971c-4.451-3.707-11.033-3.646-15.422,0.135
		c-5.335,4.597-5.558,12.659-0.671,17.547c1.254,1.254,2.717,2.17,4.277,2.751c1.344,0.5,1.705,2.236,0.69,3.25l-3.116,3.116h0
		c1.645,1.645,4.311,1.645,5.956,0l9.798-9.798L47.148,29.326z"/>
</symbol>
<symbol id="icon-sample-004-socialmedia" viewBox="0 0 50 50" >
<path d="M21.1,32.3c-1.2-0.3-1.9-0.5-2.4-0.6l-0.1-0.5c1.4-1.3,2.5-3.9,1.8-6.5c-0.5-1.6-2.1-2.7-3.9-2.7s-3.5,1.1-3.9,2.7
		c-0.6,2.1,0.1,4.7,1.6,6.3c0.1,0.1,0.2,0.2,0.3,0.3l-0.1,0.4c-0.4,0.1-1.1,0.3-2.4,0.6c-1.7,0.5-2.4,1-2.6,3.1c0,0,0,0,0,0.1l0,0.1
		c0,0.9,0,1.3,0,2.2c0,0.4,0.3,0.8,0.8,0.8c0,0,0,0,0,0h0c0.4,0,0.8-0.3,0.8-0.8c0-0.9,0-1.4,0-2.3l0-0.1c0-0.6,0.1-1,0.3-1.2
		c0.2-0.2,0.6-0.3,1.1-0.5c2.2-0.6,2.6-0.7,2.7-0.7c0.3,0,0.6-0.3,0.7-0.6l0.2-0.6c0.2,0.1,0.4,0.1,0.7,0.1c0.2,0,0.5,0,0.7-0.1
		l0.2,0.6c0.1,0.3,0.3,0.5,0.7,0.6c0.1,0,0.5,0.1,2.7,0.7c0.6,0.2,1,0.3,1.1,0.5c0.2,0.2,0.3,0.6,0.3,1.2l0,0.1c0,0.9,0,1.3,0,2.3
		c0,0.4,0.4,0.8,0.8,0.8h0c0.4,0,0.8-0.4,0.8-0.8c0-0.9,0-1.3,0-2.2l0-0.1c0,0,0,0,0-0.1C23.6,33.3,22.8,32.8,21.1,32.3L21.1,32.3z
		 M15.2,29.8c-1-1-1.7-3-1.2-4.7c0.3-1.1,1.5-1.6,2.4-1.6c0.9,0,2.1,0.5,2.4,1.6c0.6,2-0.3,4-1.4,4.9C16.8,30.7,16,30.6,15.2,29.8
		L15.2,29.8z M8.1,16.2c4.5,0,8.1-3.6,8.1-8.1S12.6,0,8.1,0S0,3.6,0,8.1C0,12.6,3.6,16.2,8.1,16.2z M7.7,12.2
		c-1.2-0.7-4.3-3.1-4.1-5.6c0.1-1.2,0.8-2.1,1.9-2.5c0.9-0.3,1.9-0.1,2.7,0.4c0.8-0.6,1.8-0.7,2.7-0.4c1.1,0.4,1.8,1.3,1.9,2.5
		c0.2,2.5-2.9,4.9-4.1,5.6C8.3,12.3,8,12.3,7.7,12.2L7.7,12.2z M5.1,6.7c0-0.6,0.4-1,0.8-1.1c0.1,0,0.3-0.1,0.4-0.1
		c0.4,0,0.8,0.2,1.2,0.6c0.3,0.3,0.8,0.3,1.1,0c0,0,0,0,0,0c0.5-0.5,1.1-0.7,1.6-0.5c0.5,0.2,0.8,0.6,0.8,1.1c0.1,1.2-1.6,3-3,3.9
		C6.7,9.6,5,7.9,5.1,6.7L5.1,6.7z M31.5,39.8c0,0.7-0.6,1.3-1.3,1.3H16.6c-0.1,0-0.3,0-0.4,0.1l-8.7,5v-4.4c0-0.4-0.3-0.8-0.8-0.8
		H2.9c-0.7,0-1.3-0.6-1.3-1.3V20.7c0-0.7,0.6-1.3,1.3-1.3h18.8c1.6,4.5,5.3,7.9,9.8,9.2L31.5,39.8L31.5,39.8z M35.4,27.6
		c-7.2,0-13-5.8-13-13s5.8-13,13-13s13,5.8,13,13S42.6,27.6,35.4,27.6z M42.5,12.4h-2.4c0-1.4-0.1-4.1-1.5-5.1
		c-0.4-0.3-1.1-0.6-2.1-0.2c-0.1,0.1-0.3,0.1-0.4,0.2c-0.3,0.1-0.4,0.4-0.4,0.7l0.1,2c-0.7,1.4-1.5,2.7-2.5,3.9l-0.4,0
		c-0.2,0-0.3,0.1-0.4,0.2v-0.3c0-0.7-0.5-1.2-1.2-1.2h-3.4c-0.7,0-1.2,0.5-1.2,1.2v7.2c0,0.7,0.5,1.2,1.2,1.2h3.4
		c0.5,0,0.9-0.3,1.1-0.8c0.2,0.1,0.4,0.1,0.6,0.2c0.2,0.1,0.5,0.1,0.6,0.2c0.1,0.1,0.2,0.1,0.4,0.1H41c0.8,0,1.5-0.5,1.7-1.3
		l1.4-6.1c0.2-0.9-0.3-1.8-1.3-2.1C42.7,12.5,42.6,12.4,42.5,12.4L42.5,12.4z M30.9,20.7v-6.4h-2.6v6.4L30.9,20.7z M42.6,14.2
		c0-0.1,0-0.2-0.1-0.2c0,0,0,0,0,0h-3.2c-0.4,0-0.8-0.3-0.8-0.8c0,0,0-0.1,0-0.1c0.2-1.5-0.1-4-0.8-4.6c-0.1,0-0.2-0.1-0.4-0.1
		l0.1,1.7c0,0.1,0,0.3-0.1,0.4c-0.8,1.6-1.8,3.2-3,4.6c-0.1,0.2-0.4,0.3-0.6,0.3l-0.8,0c-0.2,0-0.4,0-0.5-0.2v4.5
		c0.3,0.1,0.7,0.2,1,0.3c0.3,0.1,0.5,0.1,0.7,0.2h7c0.1,0,0.1,0,0.1-0.1L42.6,14.2L42.6,14.2z M41.9,33.8c-4.5,0-8.1,3.6-8.1,8.1
		s3.6,8.1,8.1,8.1s8.1-3.6,8.1-8.1l0,0C50,37.4,46.4,33.8,41.9,33.8z M44.8,37.6c0.8,0,1.4,0.6,1.4,1.4v5.9c0,0.8-0.6,1.4-1.4,1.4
		H39c-0.8,0-1.4-0.6-1.4-1.4V39c0-0.8,0.6-1.4,1.4-1.4H44.8z M44.6,44.6h-5.5v-5.5h5.5V44.6z M42.4,40.5c0-0.4,0.3-0.8,0.8-0.8
		s0.8,0.3,0.8,0.8s-0.3,0.8-0.8,0.8C42.7,41.3,42.4,41,42.4,40.5C42.4,40.5,42.4,40.5,42.4,40.5L42.4,40.5z"/>
</symbol>
</defs>
</svg>










