<?xml version="1.0" encoding="utf-8"?>
<!-- Generator: Adobe Illustrator 21.0.0, SVG Export Plug-In . SVG Version: 6.00 Build 0)  -->
<svg version="1.1" id="Layer_1" xmlns="http://www.w3.org/2000/svg" xmlns:xlink="http://www.w3.org/1999/xlink" x="0px" y="0px"
	 viewBox="0 0 50 50" style="enable-background:new 0 0 50 50;" xml:space="preserve">
<path d="M50,25C50,11.216,38.784,0,25,0C11.216,0,0,11.216,0,25c0,13.784,11.216,25,25,25S50,38.784,50,25z M5,25
			C5,13.972,13.972,5,25,5s20,8.972,20,20s-8.972,20-20,20S5,36.028,5,25L5,25z M27.5,35h-10c-1.382,0-2.5-1.118-2.5-2.5v-10
			c0-1.382,1.118-2.5,2.5-2.5c1.382,0,2.5,1.118,2.5,2.5v3.965l10.732-10.732c0.977-0.977,2.559-0.977,3.535,0
			c0.977,0.977,0.977,2.559,0,3.535L23.535,30H27.5c1.382,0,2.5,1.118,2.5,2.5C30,33.882,28.882,35,27.5,35L27.5,35z"/>
</svg>
