<?xml version="1.0" encoding="utf-8"?>
<!-- Generator: Adobe Illustrator 21.0.0, SVG Export Plug-In . SVG Version: 6.00 Build 0)  -->
<svg version="1.1" id="Layer_1" xmlns="http://www.w3.org/2000/svg" xmlns:xlink="http://www.w3.org/1999/xlink" x="0px" y="0px"
	 viewBox="0 0 50 50" style="enable-background:new 0 0 50 50;" xml:space="preserve">
<path d="M46.1,10.3L28.6,0.9c-2.3-1.2-5-1.2-7.2,0L3.9,10.3C1.5,11.5,0,14,0,16.7v26c0,4,3.4,7.3,7.5,7.3H15h20h7.5
		c4.1,0,7.5-3.3,7.5-7.3v-26C50,14,48.5,11.5,46.1,10.3z M20,45V35c0-2.8,2.2-5,5-5s5,2.2,5,5v10H20z M45,42.7
		c0,1.3-1.1,2.3-2.5,2.3H35V35c0-5.5-4.5-10-10-10s-10,4.5-10,10v10H7.5C6.1,45,5,44,5,42.7v-26c0-0.8,0.5-1.6,1.3-2l17.5-9.4
		C24.1,5.1,24.6,5,25,5s0.9,0.1,1.3,0.3l17.5,9.4c0.8,0.4,1.3,1.2,1.3,2V42.7z"/>
</svg>
