<?xml version="1.0" encoding="utf-8"?>
<!-- Generator: Adobe Illustrator 21.0.0, SVG Export Plug-In . SVG Version: 6.00 Build 0)  -->
<svg version="1.1" id="Layer_1" xmlns="http://www.w3.org/2000/svg" xmlns:xlink="http://www.w3.org/1999/xlink" x="0px" y="0px"
	 viewBox="0 0 50 50" style="enable-background:new 0 0 50 50;" xml:space="preserve">
	<path d="M50,47.5c0,1.382-1.119,2.5-2.5,2.5h-40C3.364,50,0,46.636,0,42.5v-40C0,1.118,1.119,0,2.5,0S5,1.118,5,2.5v40
		C5,43.879,6.122,45,7.5,45H10V32.5c0-1.382,1.119-2.5,2.5-2.5s2.5,1.118,2.5,2.5V45h5V25c0-1.382,1.119-2.5,2.5-2.5
		S25,23.618,25,25v20h5V27.5c0-1.382,1.119-2.5,2.5-2.5s2.5,1.118,2.5,2.5V45h5V20c0-1.382,1.119-2.5,2.5-2.5S45,18.618,45,20v25
		h2.5C48.881,45,50,46.118,50,47.5z M45,0h-5c-1.381,0-2.5,1.118-2.5,2.5S38.619,5,40,5h1.465L32.5,13.965l-5.732-5.732
		c-0.977-0.977-2.559-0.977-3.535,0l-12.5,12.5c-0.977,0.977-0.977,2.559,0,3.535C11.221,24.756,11.86,25,12.5,25
		s1.279-0.244,1.768-0.732L25,13.535l5.732,5.732c0.977,0.977,2.559,0.977,3.535,0L45,8.535V10c0,1.382,1.119,2.5,2.5,2.5
		S50,11.382,50,10V5C50,2.244,47.758,0,45,0z"/>
</svg>
