<?xml version="1.0" encoding="utf-8"?>
<!-- Generator: Adobe Illustrator 21.0.0, SVG Export Plug-In . SVG Version: 6.00 Build 0)  -->
<svg version="1.1" id="Warstwa_1" xmlns="http://www.w3.org/2000/svg" xmlns:xlink="http://www.w3.org/1999/xlink" x="0px" y="0px"
	 viewBox="0 0 50 50" style="enable-background:new 0 0 50 50;" xml:space="preserve">
<g>
	<g>
		<g>
			<path d="M45.8,29.9c-0.4-1-1.5-1.5-2.5-1.1c-1,0.4-1.5,1.5-1.1,2.5l2.3,5.7l-6.8-3c-0.5-0.2-1.1-0.2-1.6,0
				c-2.3,1-4.8,1.5-7.4,1.5c-10.5,0-17.5-8.2-17.5-15.8C11.1,11,19,3.9,28.6,3.9S46.1,11,46.1,19.7c0,0.7-0.1,1.5-0.2,2.2
				c-0.2,1.1,0.6,2.1,1.6,2.2c1.1,0.2,2.1-0.6,2.2-1.6c0.1-0.9,0.2-1.9,0.2-2.8c0-5.3-2.2-10.3-6.3-14C39.6,2,34.3,0,28.6,0
				s-11,2-15.1,5.7c-3.6,3.3-5.8,7.7-6.2,12.3C2.7,21.1,0,26,0,31.2c0,3.3,1,6.4,3,9.1l-2.9,7.1c-0.3,0.7-0.1,1.6,0.5,2.1
				C1,49.8,1.5,50,2,50c0.3,0,0.5-0.1,0.8-0.2l8.2-3.6c2.1,0.8,4.3,1.2,6.5,1.2c0,0,0.1,0,0.1,0c3.3,0,6.4-0.9,9.2-2.5
				c2.5-1.4,4.5-3.4,5.9-5.8c1.4-0.2,2.7-0.6,4.1-1.1l10.5,4.6c0.3,0.1,0.5,0.2,0.8,0.2c0.5,0,1-0.2,1.4-0.6
				c0.6-0.6,0.7-1.4,0.5-2.1L45.8,29.9z M17.5,43.5C17.5,43.5,17.4,43.5,17.5,43.5c-2.1,0-4-0.4-5.8-1.2c-0.5-0.2-1.1-0.2-1.6,0
				l-4.6,2L7,40.7c0.3-0.7,0.1-1.4-0.3-2c-1.8-2.2-2.8-4.7-2.8-7.5c0-3.1,1.3-6.1,3.6-8.3c0.7,3.9,2.7,7.6,5.8,10.6
				c3.8,3.6,8.8,5.8,14.2,6C25,42,21.3,43.5,17.5,43.5z"/>
			<circle cx="28.5" cy="19.8" r="2"/>
			<circle cx="36.3" cy="19.8" r="2"/>
			<circle cx="20.7" cy="19.8" r="2"/>
		</g>
	</g>
</g>
</svg>
