<?xml version="1.0" encoding="utf-8"?>
<!-- Generator: Adobe Illustrator 21.0.0, SVG Export Plug-In . SVG Version: 6.00 Build 0)  -->
<svg version="1.1" id="Layer_1" xmlns="http://www.w3.org/2000/svg" xmlns:xlink="http://www.w3.org/1999/xlink" x="0px" y="0px"
	 viewBox="0 0 50 50" style="enable-background:new 0 0 50 50;" xml:space="preserve">
		<path d="M25,0C11.2,0,0,11.2,0,25s11.2,25,25,25s25-11.2,25-25S38.8,0,25,0z M25,45C14,45,5,36,5,25S14,5,25,5s20,9,20,20
			S36,45,25,45z"/>
		<path d="M34.3,15.7c-1-1-2.6-1-3.5,0L25,21.5l-5.7-5.7c-1-1-2.6-1-3.5,0s-1,2.6,0,3.5l5.7,5.7l-5.7,5.7c-1,1-1,2.6,0,3.5
			c0.5,0.5,1.1,0.7,1.8,0.7c0.6,0,1.3-0.2,1.8-0.7l5.7-5.7l5.7,5.7c0.5,0.5,1.1,0.7,1.8,0.7c0.6,0,1.3-0.2,1.8-0.7c1-1,1-2.6,0-3.5
			L28.5,25l5.7-5.7C35.2,18.3,35.2,16.7,34.3,15.7L34.3,15.7z"/>
</svg>
