<?xml version="1.0" encoding="utf-8"?>
<!-- Generator: Adobe Illustrator 21.0.0, SVG Export Plug-In . SVG Version: 6.00 Build 0)  -->
<svg version="1.1" id="Layer_1" xmlns="http://www.w3.org/2000/svg" xmlns:xlink="http://www.w3.org/1999/xlink" x="0px" y="0px"
	 viewBox="0 0 50 50" style="enable-background:new 0 0 50 50;" xml:space="preserve">
		<path d="M10,17.5c-0.65,0-1.3,0.275-1.775,0.728C7.773,18.708,7.5,19.36,7.5,20.015s0.273,1.305,0.725,1.788
			c0.95,0.93,2.6,0.93,3.55,0c0.45-0.483,0.725-1.132,0.725-1.788s-0.275-1.307-0.725-1.788C11.3,17.775,10.65,17.5,10,17.5z"/>
		<path d="M42.5,10h-5.955l-1.81-3.617C34.313,5.535,33.447,5,32.5,5h-15c-0.947,0-1.813,0.535-2.238,1.382L13.455,10H7.5
			C3.365,10,0,13.365,0,17.5v20C0,41.635,3.365,45,7.5,45h35c4.135,0,7.5-3.365,7.5-7.5v-20C50,13.365,46.635,10,42.5,10z M45,37.5
			c0,1.38-1.122,2.5-2.5,2.5h-35C6.123,40,5,38.88,5,37.5v-20C5,16.12,6.123,15,7.5,15H15c0.947,0,1.813-0.535,2.238-1.382
			L19.045,10h11.91l1.81,3.618C33.188,14.465,34.053,15,35,15h7.5c1.378,0,2.5,1.12,2.5,2.5V37.5z"/>
		<path d="M25,17.5c-5.515,0-10,4.485-10,10s4.485,10,10,10s10-4.485,10-10S30.515,17.5,25,17.5z M25,32.5c-2.757,0-5-2.243-5-5
			s2.243-5,5-5s5,2.243,5,5S27.757,32.5,25,32.5z"/>
</svg>
