<?xml version="1.0" encoding="utf-8"?>
<!-- Generator: Adobe Illustrator 21.0.0, SVG Export Plug-In . SVG Version: 6.00 Build 0)  -->
<svg version="1.1" id="Layer_1" xmlns="http://www.w3.org/2000/svg" xmlns:xlink="http://www.w3.org/1999/xlink" x="0px" y="0px"
	 viewBox="0 0 50 50" style="enable-background:new 0 0 50 50;" xml:space="preserve">
	<path d="M42.5,7.5H35V5c0-2.758-2.244-5-5-5H20c-2.756,0-5,2.242-5,5v2.5H7.5C3.364,7.5,0,10.864,0,15v5
		c0,2.208,0.977,4.176,2.5,5.549V42.5c0,4.136,3.364,7.5,7.5,7.5h30c4.136,0,7.5-3.364,7.5-7.5V25.549
		C49.023,24.176,50,22.208,50,20v-5C50,10.864,46.636,7.5,42.5,7.5z M20,5h10v2.5H20V5z M5,15c0-1.378,1.121-2.5,2.5-2.5h35
		c1.379,0,2.5,1.122,2.5,2.5v5c0,1.378-1.121,2.5-2.5,2.5h-5c0-1.381-1.118-2.5-2.5-2.5s-2.5,1.119-2.5,2.5h-15
		c0-1.381-1.118-2.5-2.5-2.5s-2.5,1.119-2.5,2.5h-5C6.121,22.5,5,21.378,5,20V15z M42.5,42.5c0,1.378-1.121,2.5-2.5,2.5H10
		c-1.379,0-2.5-1.122-2.5-2.5v-15h5c0,1.381,1.118,2.5,2.5,2.5s2.5-1.119,2.5-2.5h15c0,1.381,1.118,2.5,2.5,2.5s2.5-1.119,2.5-2.5h5
		V42.5z"/>
</svg>
