<?xml version="1.0" encoding="utf-8"?>
<!-- Generator: Adobe Illustrator 21.0.0, SVG Export Plug-In . SVG Version: 6.00 Build 0)  -->
<svg version="1.1" id="Warstwa_1" xmlns="http://www.w3.org/2000/svg" xmlns:xlink="http://www.w3.org/1999/xlink" x="0px" y="0px"
	 viewBox="0 0 50 50" style="enable-background:new 0 0 50 50;" xml:space="preserve">
<g>
	<path d="M25,0C11.2,0,0,11.2,0,25s11.2,25,25,25s25-11.2,25-25S38.8,0,25,0z M25,44.7C14.1,44.7,5.3,35.9,5.3,25S14.1,5.3,25,5.3
		S44.7,14.1,44.7,25S35.9,44.7,25,44.7z"/>
	<path d="M35.4,25.3H25.2v-8.9c0-1.5-1.2-2.6-2.6-2.6s-2.6,1.2-2.6,2.6v11.5c0,1.5,1.2,2.6,2.6,2.6h12.9c1.5,0,2.6-1.2,2.6-2.6
		S36.9,25.3,35.4,25.3z"/>
</g>
</svg>
