<?xml version="1.0" encoding="utf-8"?>
<!-- Generator: Adobe Illustrator 21.0.0, SVG Export Plug-In . SVG Version: 6.00 Build 0)  -->
<svg version="1.1" id="Layer_1" xmlns="http://www.w3.org/2000/svg" xmlns:xlink="http://www.w3.org/1999/xlink" x="0px" y="0px"
	 viewBox="0 0 50 50" style="enable-background:new 0 0 50 50;" xml:space="preserve">
<g>
	<path d="M21.1,32.3c-1.2-0.3-1.9-0.5-2.4-0.6l-0.1-0.5c1.4-1.3,2.5-3.9,1.8-6.5c-0.5-1.6-2.1-2.7-3.9-2.7s-3.5,1.1-3.9,2.7
		c-0.6,2.1,0.1,4.7,1.6,6.3c0.1,0.1,0.2,0.2,0.3,0.3l-0.1,0.4c-0.4,0.1-1.1,0.3-2.4,0.6c-1.7,0.5-2.4,1-2.6,3.1c0,0,0,0,0,0.1l0,0.1
		c0,0.9,0,1.3,0,2.2c0,0.4,0.3,0.8,0.8,0.8c0,0,0,0,0,0h0c0.4,0,0.8-0.3,0.8-0.8c0-0.9,0-1.4,0-2.3l0-0.1c0-0.6,0.1-1,0.3-1.2
		c0.2-0.2,0.6-0.3,1.1-0.5c2.2-0.6,2.6-0.7,2.7-0.7c0.3,0,0.6-0.3,0.7-0.6l0.2-0.6c0.2,0.1,0.4,0.1,0.7,0.1c0.2,0,0.5,0,0.7-0.1
		l0.2,0.6c0.1,0.3,0.3,0.5,0.7,0.6c0.1,0,0.5,0.1,2.7,0.7c0.6,0.2,1,0.3,1.1,0.5c0.2,0.2,0.3,0.6,0.3,1.2l0,0.1c0,0.9,0,1.3,0,2.3
		c0,0.4,0.4,0.8,0.8,0.8h0c0.4,0,0.8-0.4,0.8-0.8c0-0.9,0-1.3,0-2.2l0-0.1c0,0,0,0,0-0.1C23.6,33.3,22.8,32.8,21.1,32.3L21.1,32.3z
		 M15.2,29.8c-1-1-1.7-3-1.2-4.7c0.3-1.1,1.5-1.6,2.4-1.6c0.9,0,2.1,0.5,2.4,1.6c0.6,2-0.3,4-1.4,4.9C16.8,30.7,16,30.6,15.2,29.8
		L15.2,29.8z M8.1,16.2c4.5,0,8.1-3.6,8.1-8.1S12.6,0,8.1,0S0,3.6,0,8.1C0,12.6,3.6,16.2,8.1,16.2z M7.7,12.2
		c-1.2-0.7-4.3-3.1-4.1-5.6c0.1-1.2,0.8-2.1,1.9-2.5c0.9-0.3,1.9-0.1,2.7,0.4c0.8-0.6,1.8-0.7,2.7-0.4c1.1,0.4,1.8,1.3,1.9,2.5
		c0.2,2.5-2.9,4.9-4.1,5.6C8.3,12.3,8,12.3,7.7,12.2L7.7,12.2z M5.1,6.7c0-0.6,0.4-1,0.8-1.1c0.1,0,0.3-0.1,0.4-0.1
		c0.4,0,0.8,0.2,1.2,0.6c0.3,0.3,0.8,0.3,1.1,0c0,0,0,0,0,0c0.5-0.5,1.1-0.7,1.6-0.5c0.5,0.2,0.8,0.6,0.8,1.1c0.1,1.2-1.6,3-3,3.9
		C6.7,9.6,5,7.9,5.1,6.7L5.1,6.7z M31.5,39.8c0,0.7-0.6,1.3-1.3,1.3H16.6c-0.1,0-0.3,0-0.4,0.1l-8.7,5v-4.4c0-0.4-0.3-0.8-0.8-0.8
		H2.9c-0.7,0-1.3-0.6-1.3-1.3V20.7c0-0.7,0.6-1.3,1.3-1.3h18.8c1.6,4.5,5.3,7.9,9.8,9.2L31.5,39.8L31.5,39.8z M35.4,27.6
		c-7.2,0-13-5.8-13-13s5.8-13,13-13s13,5.8,13,13S42.6,27.6,35.4,27.6z M42.5,12.4h-2.4c0-1.4-0.1-4.1-1.5-5.1
		c-0.4-0.3-1.1-0.6-2.1-0.2c-0.1,0.1-0.3,0.1-0.4,0.2c-0.3,0.1-0.4,0.4-0.4,0.7l0.1,2c-0.7,1.4-1.5,2.7-2.5,3.9l-0.4,0
		c-0.2,0-0.3,0.1-0.4,0.2v-0.3c0-0.7-0.5-1.2-1.2-1.2h-3.4c-0.7,0-1.2,0.5-1.2,1.2v7.2c0,0.7,0.5,1.2,1.2,1.2h3.4
		c0.5,0,0.9-0.3,1.1-0.8c0.2,0.1,0.4,0.1,0.6,0.2c0.2,0.1,0.5,0.1,0.6,0.2c0.1,0.1,0.2,0.1,0.4,0.1H41c0.8,0,1.5-0.5,1.7-1.3
		l1.4-6.1c0.2-0.9-0.3-1.8-1.3-2.1C42.7,12.5,42.6,12.4,42.5,12.4L42.5,12.4z M30.9,20.7v-6.4h-2.6v6.4L30.9,20.7z M42.6,14.2
		c0-0.1,0-0.2-0.1-0.2c0,0,0,0,0,0h-3.2c-0.4,0-0.8-0.3-0.8-0.8c0,0,0-0.1,0-0.1c0.2-1.5-0.1-4-0.8-4.6c-0.1,0-0.2-0.1-0.4-0.1
		l0.1,1.7c0,0.1,0,0.3-0.1,0.4c-0.8,1.6-1.8,3.2-3,4.6c-0.1,0.2-0.4,0.3-0.6,0.3l-0.8,0c-0.2,0-0.4,0-0.5-0.2v4.5
		c0.3,0.1,0.7,0.2,1,0.3c0.3,0.1,0.5,0.1,0.7,0.2h7c0.1,0,0.1,0,0.1-0.1L42.6,14.2L42.6,14.2z M41.9,33.8c-4.5,0-8.1,3.6-8.1,8.1
		s3.6,8.1,8.1,8.1s8.1-3.6,8.1-8.1l0,0C50,37.4,46.4,33.8,41.9,33.8z M44.8,37.6c0.8,0,1.4,0.6,1.4,1.4v5.9c0,0.8-0.6,1.4-1.4,1.4
		H39c-0.8,0-1.4-0.6-1.4-1.4V39c0-0.8,0.6-1.4,1.4-1.4H44.8z M44.6,44.6h-5.5v-5.5h5.5V44.6z M42.4,40.5c0-0.4,0.3-0.8,0.8-0.8
		s0.8,0.3,0.8,0.8s-0.3,0.8-0.8,0.8C42.7,41.3,42.4,41,42.4,40.5C42.4,40.5,42.4,40.5,42.4,40.5L42.4,40.5z"/>
</g>
</svg>
