<?xml version="1.0" encoding="utf-8"?>
<!-- Generator: Adobe Illustrator 21.0.0, SVG Export Plug-In . SVG Version: 6.00 Build 0)  -->
<svg version="1.1" id="Warstwa_1" xmlns="http://www.w3.org/2000/svg" xmlns:xlink="http://www.w3.org/1999/xlink" x="0px" y="0px"
	 viewBox="0 0 50 50" style="enable-background:new 0 0 50 50;" xml:space="preserve">
<g id="Layer_2">
</g>
<g>
	<path d="M21.08,29.326c4.244-4.979,3.752-12.611-1.482-16.971C15.146,8.647,8.565,8.708,4.176,12.49
		c-5.335,4.597-5.558,12.659-0.671,17.547c1.254,1.254,2.717,2.17,4.277,2.751c1.344,0.5,1.705,2.236,0.69,3.25l-3.116,3.116l0,0
		c1.645,1.645,4.311,1.645,5.956,0l9.798-9.798L21.08,29.326z"/>
	<path d="M47.148,29.326c4.244-4.979,3.752-12.611-1.482-16.971c-4.451-3.707-11.033-3.646-15.422,0.135
		c-5.335,4.597-5.558,12.659-0.671,17.547c1.254,1.254,2.717,2.17,4.277,2.751c1.344,0.5,1.705,2.236,0.69,3.25l-3.116,3.116h0
		c1.645,1.645,4.311,1.645,5.956,0l9.798-9.798L47.148,29.326z"/>
</g>
</svg>
