<?xml version="1.0" encoding="utf-8"?>
<!-- Generator: Adobe Illustrator 21.0.0, SVG Export Plug-In . SVG Version: 6.00 Build 0)  -->
<svg version="1.1" id="Layer_1" xmlns="http://www.w3.org/2000/svg" xmlns:xlink="http://www.w3.org/1999/xlink" x="0px" y="0px"
	 viewBox="0 0 50 50" style="enable-background:new 0 0 50 50;" xml:space="preserve">
<path d="M47.7,18.2H36.4v-6.8c0-1.3-1-2.3-2.3-2.3l-0.8,0V2.3c0-1.3-1-2.3-2.3-2.3H18.9c-1.3,0-2.3,1-2.3,2.3v6.8h-0.8c0,0,0,0,0,0
	c-0.6,0-1.2,0.2-1.6,0.7c-0.4,0.4-0.7,1-0.7,1.6v6.8H2.3c-1.3,0-2.3,1-2.3,2.3v27.3C0,49,1,50,2.3,50h13.6c0,0,0,0,0,0c0,0,0,0,0,0
	h18.2c0,0,0,0,0,0c0,0,0,0,0,0h13.6c1.3,0,2.3-1,2.3-2.3V20.5C50,19.2,49,18.2,47.7,18.2z M21.2,4.5h7.6v4.5h-7.6V4.5z M4.5,31.8
	h9.1v4.5H4.5C4.5,36.4,4.5,31.8,4.5,31.8z M31.8,27.3H18.2v-4.5h13.6V27.3z M18.2,13.6l13.6,0v4.5H18.2
	C18.2,18.2,18.2,13.6,18.2,13.6z M18.2,31.8h13.6v4.5H18.2C18.2,36.4,18.2,31.8,18.2,31.8z M36.4,31.8h9.1v4.5h-9.1V31.8z
	 M45.5,22.7v4.5h-9.1v-4.5H45.5z M13.6,22.7v4.5H4.5v-4.5H13.6z M4.5,45.5v-4.5h9.1v4.5H4.5z M18.2,45.5v-4.5h13.6v4.5H18.2z
	 M36.4,45.5v-4.5h9.1v4.5H36.4z"/>
</svg>
