<?xml version="1.0" encoding="utf-8"?>
<!-- Generator: Adobe Illustrator 21.0.0, SVG Export Plug-In . SVG Version: 6.00 Build 0)  -->
<svg version="1.1" id="Warstwa_1" xmlns="http://www.w3.org/2000/svg" xmlns:xlink="http://www.w3.org/1999/xlink" x="0px" y="0px"
	 viewBox="0 0 50 50" style="enable-background:new 0 0 50 50;" xml:space="preserve">
<g>
	<path d="M48.5,20.6c0-1.6-0.6-3-1.8-4.2c-1.1-1.1-2.6-1.7-4.2-1.7c-3.2,0-5.9,2.6-5.9,5.9s2.6,5.9,5.9,5.9c1.6,0,3-0.6,4.2-1.7
		C47.9,23.7,48.5,22.2,48.5,20.6L48.5,20.6z M42.6,23.5c-1.6,0-2.9-1.3-2.9-2.9c0-1.6,1.3-2.9,2.9-2.9c1.6,0,3,1.3,3,2.9
		C45.6,22.2,44.2,23.5,42.6,23.5z"/>
	<path d="M35.3,31.3c0.3,2.7,0.9,3.7,1.5,4.6c0.7,1.1,1.4,2.3,1.4,9.6V47h8.9v-1.5c0-7.3,0.8-8.5,1.4-9.6c0.6-0.9,1.2-1.9,1.5-4.6
		c0.3-2.6-1.8-4.9-4.4-4.9h-6C37,26.5,35,28.7,35.3,31.3z M45.6,29.4c0.9,0,1.5,0.8,1.5,1.7c-0.2,2-0.6,2.6-1,3.3
		c-1,1.6-1.8,3.3-1.9,9.7h-3c-0.1-6.4-0.9-8.1-1.9-9.7c-0.5-0.7-0.8-1.3-1-3.3c-0.1-0.9,0.6-1.7,1.5-1.7H45.6z"/>
	<path d="M30.9,20.6c0-3.2-2.6-5.9-5.9-5.9s-5.9,2.6-5.9,5.9s2.6,5.9,5.9,5.9S30.9,23.8,30.9,20.6L30.9,20.6z M25,23.5
		c-1.6,0-2.9-1.3-2.9-2.9c0-1.6,1.3-2.9,2.9-2.9s2.9,1.3,2.9,2.9C27.9,22.2,26.6,23.5,25,23.5z"/>
	<path d="M29.4,45.5c0-7.3,0.8-8.5,1.4-9.6c0.6-0.9,1.2-1.9,1.5-4.6c0.3-2.6-1.8-4.9-4.4-4.9h-5.9c-2.6,0-4.6,2.3-4.4,4.9
		c0.3,2.7,0.9,3.7,1.5,4.6c0.7,1.1,1.4,2.3,1.4,9.6V47h8.8V45.5z M29.4,31.1c-0.2,2-0.6,2.6-1,3.3c-1,1.6-1.8,3.3-1.9,9.7h-3
		c-0.1-6.4-0.9-8.1-1.9-9.7c-0.5-0.7-0.8-1.3-1-3.3c-0.1-0.9,0.6-1.7,1.5-1.7h5.9C28.8,29.4,29.5,30.2,29.4,31.1z"/>
	<path d="M39.6,8.9C39.6,5.7,37,3,33.8,3s-5.9,2.6-5.9,5.9s2.6,5.9,5.9,5.9S39.6,12.1,39.6,8.9z M33.8,11.8c-1.6,0-2.9-1.3-2.9-2.9
		S32.2,6,33.8,6c1.6,0,2.9,1.3,2.9,2.9S35.4,11.8,33.8,11.8z"/>
	<path d="M10.4,8.9c0,3.2,2.6,5.9,5.9,5.9s5.9-2.6,5.9-5.9S19.4,3,16.2,3S10.4,5.7,10.4,8.9z M19.1,8.9c0,1.6-1.3,2.9-2.9,2.9
		s-2.9-1.3-2.9-2.9S14.6,6,16.2,6S19.1,7.3,19.1,8.9z"/>
	<path d="M13.3,20.6c0-3.2-2.6-5.9-5.9-5.9s-5.9,2.6-5.9,5.9s2.6,5.9,5.9,5.9S13.3,23.8,13.3,20.6L13.3,20.6z M7.4,23.5
		c-1.6,0-2.9-1.3-2.9-2.9c0-1.6,1.3-2.9,2.9-2.9s2.9,1.3,2.9,2.9C10.4,22.2,9,23.5,7.4,23.5z"/>
	<path d="M0,31.3c0.3,2.7,0.9,3.7,1.5,4.6C2.2,37,3,38.2,3,45.5V47h8.8v-1.5c0-7.3,0.8-8.5,1.4-9.6c0.6-0.9,1.2-1.9,1.5-4.6
		c0.1-1.3-0.3-2.5-1.1-3.4c-0.8-0.9-2-1.4-3.2-1.4h-6C1.8,26.5-0.2,28.7,0,31.3z M10.4,29.4c0.9,0,1.5,0.8,1.5,1.7
		c-0.2,2-0.6,2.6-1,3.3C9.8,36,9,37.7,8.9,44h-3c-0.1-6.4-0.9-8.1-2-9.7c-0.5-0.7-0.8-1.3-1-3.3c-0.1-0.9,0.6-1.7,1.5-1.7L10.4,29.4
		L10.4,29.4z"/>
</g>
</svg>
