<?xml version="1.0" encoding="utf-8"?>
<!-- Generator: Adobe Illustrator 21.0.0, SVG Export Plug-In . SVG Version: 6.00 Build 0)  -->
<svg version="1.1" id="Layer_1" xmlns="http://www.w3.org/2000/svg" xmlns:xlink="http://www.w3.org/1999/xlink" x="0px" y="0px"
	 viewBox="0 0 50 50" style="enable-background:new 0 0 50 50;" xml:space="preserve">
<path d="M35.519,0H14.481c-2.013,0-3.639,1.633-3.639,3.642v42.719c0,2.008,1.625,3.639,3.639,3.639h21.037
		c2.01,0,3.639-1.631,3.639-3.639V3.642C39.157,1.633,37.528,0,35.519,0z M19.809,2.212h10.386c0.262,0,0.476,0.392,0.476,0.876
		s-0.213,0.878-0.476,0.878H19.809c-0.264,0-0.474-0.394-0.474-0.878C19.335,2.604,19.545,2.212,19.809,2.212z M25.002,46.405
		c-1.281,0-2.323-1.042-2.323-2.325c0-1.283,1.042-2.321,2.323-2.321c1.277,0,2.319,1.039,2.319,2.321
		C27.321,45.363,26.279,46.405,25.002,46.405z M36.431,38.445H13.57V6.146h22.861C36.431,6.146,36.431,38.445,36.431,38.445z"/>
</svg>
