<?xml version="1.0" encoding="utf-8"?>
<!-- Generator: Adobe Illustrator 21.0.0, SVG Export Plug-In . SVG Version: 6.00 Build 0)  -->
<svg version="1.1" id="Layer_1" xmlns="http://www.w3.org/2000/svg" xmlns:xlink="http://www.w3.org/1999/xlink" x="0px" y="0px"
	 viewBox="0 0 50 50" style="enable-background:new 0 0 50 50;" xml:space="preserve">
<path d="M41.46,0H8.481C5.053,0,2.275,2.778,2.275,6.206v37.589C2.275,47.222,5.053,50,8.481,50h33.038
				c3.428,0,6.206-2.778,6.206-6.206V6.206C47.665,2.778,44.888,0,41.46,0z M44.77,43.794H44.71c0,1.773-1.478,3.251-3.251,3.251
				H13.268V2.955h28.251c1.773,0,3.251,1.478,3.251,3.251V43.794z"/>
			<path d="M29.108,10.757c-3.96,0-7.21,3.251-7.21,7.21c0,4.019,3.251,7.21,7.21,7.27c3.96,0,7.21-3.251,7.21-7.21
				S33.067,10.757,29.108,10.757z"/>
			<path d="M41.046,32.151c-2.6-4.019-7.092-6.501-11.939-6.442c-4.846-0.059-9.338,2.423-11.939,6.442
				c-0.709,1.005-1.064,2.246-1.005,3.487v2.128c0,0.827,0.65,1.478,1.478,1.478h22.931c0.827,0,1.478-0.65,1.478-1.478v-2.128
				C42.051,34.397,41.696,33.215,41.046,32.151z"/>
</svg>
